ZillaSlabHighlight-Regular.ufo
<glyph name="exclam" format="1">
  <advance width="236"/>
  <unicode hex="0021"/>
  <outline>
    <contour>
      <point x="159" y="650" type="line"/>
      <point x="76" y="650" type="line"/>
      <point x="90" y="192" type="line"/>
      <point x="144" y="192" type="line"/>
    </contour>
    <contour>
      <point x="75" y="0" type="line"/>
      <point x="165" y="0" type="line"/>
      <point x="165" y="97" type="line"/>
      <point x="75" y="97" type="line"/>
    </contour>
    <contour>
      <point x="-12" y="917" type="line"/>
      <point x="248" y="917" type="line"/>
      <point x="248" y="-213" type="line"/>
      <point x="-12" y="-213" type="line"/>
    </contour>
  </outline>
</glyph>
<glyph name="quotedbl" format="1">
  <advance width="367"/>
  <unicode hex="0022"/>
  <outline>
    <contour>
      <point x="124" y="377" type="line"/>
      <point x="129" y="650" type="line"/>
      <point x="58" y="650" type="line"/>
      <point x="63" y="377" type="line"/>
    </contour>
    <contour>
      <point x="304" y="377" type="line"/>
      <point x="309" y="650" type="line"/>
      <point x="238" y="650" type="line"/>
      <point x="243" y="377" type="line"/>
    </contour>
    <contour>
      <point x="-12" y="917" type="line"/>
      <point x="379" y="917" type="line"/>
      <point x="379" y="-213" type="line"/>
      <point x="-12" y="-213" type="line"/>
    </contour>
  </outline>
</glyph>
<glyph name="dollar" format="1">
  <advance width="467"/>
  <unicode hex="0024"/>
  <outline>
    <contour>
      <point x="424" y="148" type="curve" smooth="yes"/>
      <point x="424" y="260"/>
      <point x="326" y="286"/>
      <point x="257" y="301" type="curve"/>
      <point x="257" y="472" type="line"/>
      <point x="284" y="470"/>
      <point x="310" y="462"/>
      <point x="336" y="446" type="curve"/>
      <point x="347" y="362" type="line"/>
      <point x="406" y="366" type="line"/>
      <point x="400" y="481" type="line"/>
      <point x="365" y="505"/>
      <point x="319" y="523"/>
      <point x="257" y="528" type="curve"/>
      <point x="257" y="593" type="line"/>
      <point x="215" y="593" type="line"/>
      <point x="215" y="529" type="line"/>
      <point x="126" y="525"/>
      <point x="51" y="479"/>
      <point x="51" y="384" type="curve" smooth="yes"/>
      <point x="51" y="282"/>
      <point x="136" y="263"/>
      <point x="215" y="246" type="curve"/>
      <point x="215" y="50" type="line"/>
      <point x="181" y="53"/>
      <point x="144" y="64"/>
      <point x="115" y="78" type="curve"/>
      <point x="123" y="151" type="line"/>
      <point x="63" y="156" type="line"/>
      <point x="46" y="42" type="line"/>
      <point x="79" y="20"/>
      <point x="141" y="-3"/>
      <point x="215" y="-7" type="curve"/>
      <point x="215" y="-65" type="line"/>
      <point x="257" y="-65" type="line"/>
      <point x="257" y="-7" type="line"/>
      <point x="355" y="-1"/>
      <point x="424" y="54"/>
    </contour>
    <contour>
      <point x="349" y="141" type="curve" smooth="yes"/>
      <point x="349" y="84"/>
      <point x="311" y="57"/>
      <point x="257" y="51" type="curve"/>
      <point x="257" y="235" type="line"/>
      <point x="309" y="220"/>
      <point x="349" y="198"/>
    </contour>
    <contour>
      <point x="126" y="392" type="curve" smooth="yes"/>
      <point x="126" y="439"/>
      <point x="159" y="467"/>
      <point x="215" y="471" type="curve"/>
      <point x="215" y="310" type="line"/>
      <point x="166" y="323"/>
      <point x="126" y="339"/>
    </contour>
    <contour>
      <point x="-12" y="917" type="line"/>
      <point x="479" y="917" type="line"/>
      <point x="479" y="-213" type="line"/>
      <point x="-12" y="-213" type="line"/>
    </contour>
  </outline>
</glyph>
<glyph name="parenright" format="1">
  <advance width="274"/>
  <unicode hex="0029"/>
  <outline>
    <contour>
      <point x="76" y="718" type="line"/>
      <point x="186" y="576"/>
      <point x="237" y="424"/>
      <point x="237" y="270" type="curve" smooth="yes"/>
      <point x="237" y="118"/>
      <point x="189" y="-36"/>
      <point x="78" y="-183" type="curve"/>
      <point x="9" y="-183" type="line"/>
      <point x="120" y="-45"/>
      <point x="175" y="115"/>
      <point x="175" y="270" type="curve" smooth="yes"/>
      <point x="175" y="427"/>
      <point x="119" y="578"/>
      <point x="9" y="718" type="curve"/>
    </contour>
    <contour>
      <point x="286" y="917" type="line"/>
      <point x="-12" y="917" type="line"/>
      <point x="-12" y="-213" type="line"/>
      <point x="286" y="-213" type="line"/>
    </contour>
  </outline>
</glyph>
<glyph name="hyphen" format="1">
  <advance width="345"/>
  <unicode hex="002D"/>
  <unicode hex="00AD"/>
  <outline>
    <contour>
      <point x="56" y="261" type="line"/>
      <point x="287" y="261" type="line"/>
      <point x="287" y="200" type="line"/>
      <point x="56" y="200" type="line"/>
    </contour>
    <contour>
      <point x="-12" y="-213" type="line"/>
      <point x="357" y="-213" type="line"/>
      <point x="357" y="917" type="line"/>
      <point x="-12" y="917" type="line"/>
    </contour>
  </outline>
</glyph>
<glyph name="period" format="1">
  <advance width="207"/>
  <unicode hex="002E"/>
  <outline>
    <contour>
      <point x="55" y="108" type="line"/>
      <point x="152" y="108" type="line"/>
      <point x="152" y="0" type="line"/>
      <point x="55" y="0" type="line"/>
    </contour>
    <contour>
      <point x="-12" y="-213" type="line"/>
      <point x="219" y="-213" type="line"/>
      <point x="219" y="917" type="line"/>
      <point x="-12" y="917" type="line"/>
    </contour>
  </outline>
</glyph>
<glyph name="zero" format="1">
  <advance width="571"/>
  <unicode hex="0030"/>
  <outline>
    <contour>
      <point x="527" y="259" type="curve" smooth="yes"/>
      <point x="527" y="412"/>
      <point x="452" y="531"/>
      <point x="288" y="531" type="curve" smooth="yes"/>
      <point x="128" y="531"/>
      <point x="45" y="413"/>
      <point x="45" y="256" type="curve" smooth="yes"/>
      <point x="45" y="95"/>
      <point x="126" y="-10"/>
      <point x="284" y="-10" type="curve" smooth="yes"/>
      <point x="440" y="-10"/>
      <point x="527" y="94"/>
    </contour>
    <contour>
      <point x="450" y="262" type="curve" smooth="yes"/>
      <point x="450" y="127"/>
      <point x="391" y="55"/>
      <point x="286" y="55" type="curve" smooth="yes"/>
      <point x="178" y="55"/>
      <point x="123" y="130"/>
      <point x="123" y="261" type="curve" smooth="yes"/>
      <point x="123" y="392"/>
      <point x="177" y="466"/>
      <point x="287" y="466" type="curve" smooth="yes"/>
      <point x="399" y="466"/>
      <point x="450" y="388"/>
    </contour>
    <contour>
      <point x="-12" y="917" type="line"/>
      <point x="583" y="917" type="line"/>
      <point x="583" y="-213" type="line"/>
      <point x="-12" y="-213" type="line"/>
    </contour>
  </outline>
</glyph>
<glyph name="one" format="1">
  <advance width="382"/>
  <unicode hex="0031"/>
  <outline>
    <contour>
      <point x="363" y="0" type="line"/>
      <point x="363" y="64" type="line"/>
      <point x="246" y="64" type="line"/>
      <point x="246" y="521" type="line"/>
      <point x="50" y="521" type="line"/>
      <point x="50" y="457" type="line"/>
      <point x="172" y="457" type="line"/>
      <point x="172" y="64" type="line"/>
      <point x="50" y="64" type="line"/>
      <point x="50" y="0" type="line"/>
    </contour>
    <contour>
      <point x="-12" y="917" type="line"/>
      <point x="394" y="917" type="line"/>
      <point x="394" y="-213" type="line"/>
      <point x="-12" y="-213" type="line"/>
    </contour>
  </outline>
</glyph>
<glyph name="four" format="1">
  <advance width="534"/>
  <unicode hex="0034"/>
  <outline>
    <contour>
      <point x="406" y="-131" type="line"/>
      <point x="406" y="34" type="line"/>
      <point x="503" y="34" type="line"/>
      <point x="511" y="96" type="line"/>
      <point x="406" y="96" type="line"/>
      <point x="406" y="521" type="line"/>
      <point x="250" y="521" type="line"/>
      <point x="17" y="96" type="line"/>
      <point x="25" y="34" type="line"/>
      <point x="334" y="34" type="line"/>
      <point x="334" y="-131" type="line"/>
    </contour>
    <contour>
      <point x="334" y="96" type="line"/>
      <point x="88" y="96" type="line"/>
      <point x="285" y="458" type="line"/>
      <point x="334" y="458" type="line"/>
    </contour>
    <contour>
      <point x="-12" y="917" type="line"/>
      <point x="546" y="917" type="line"/>
      <point x="546" y="-213" type="line"/>
      <point x="-12" y="-213" type="line"/>
    </contour>
  </outline>
</glyph>
<glyph name="six" format="1">
  <advance width="528"/>
  <unicode hex="0036"/>
  <outline>
    <contour>
      <point x="481" y="205" type="curve" smooth="yes"/>
      <point x="481" y="312"/>
      <point x="430" y="403"/>
      <point x="298" y="403" type="curve" smooth="yes"/>
      <point x="193" y="403"/>
      <point x="142" y="347"/>
      <point x="122" y="293" type="curve"/>
      <point x="122" y="295"/>
      <point x="122" y="312"/>
      <point x="123" y="314" type="curve" smooth="yes"/>
      <point x="125" y="495"/>
      <point x="159" y="597"/>
      <point x="283" y="597" type="curve" smooth="yes"/>
      <point x="340" y="597"/>
      <point x="392" y="572"/>
      <point x="427" y="528" type="curve"/>
      <point x="470" y="572" type="line"/>
      <point x="422" y="631"/>
      <point x="367" y="660"/>
      <point x="284" y="660" type="curve" smooth="yes"/>
      <point x="109" y="660"/>
      <point x="46" y="507"/>
      <point x="46" y="307" type="curve" smooth="yes"/>
      <point x="46" y="125"/>
      <point x="97" y="-10"/>
      <point x="271" y="-10" type="curve" smooth="yes"/>
      <point x="419" y="-10"/>
      <point x="481" y="87"/>
    </contour>
    <contour>
      <point x="407" y="202" type="curve" smooth="yes"/>
      <point x="407" y="111"/>
      <point x="369" y="56"/>
      <point x="273" y="56" type="curve" smooth="yes"/>
      <point x="175" y="56"/>
      <point x="139" y="115"/>
      <point x="127" y="200" type="curve"/>
      <point x="132" y="261"/>
      <point x="171" y="340"/>
      <point x="280" y="340" type="curve" smooth="yes"/>
      <point x="370" y="340"/>
      <point x="407" y="290"/>
    </contour>
    <contour>
      <point x="-12" y="917" type="line"/>
      <point x="540" y="917" type="line"/>
      <point x="540" y="-213" type="line"/>
      <point x="-12" y="-213" type="line"/>
    </contour>
  </outline>
</glyph>
<glyph name="colon" format="1">
  <advance width="219"/>
  <unicode hex="003A"/>
  <outline>
    <contour>
      <point x="63" y="337" type="line"/>
      <point x="157" y="337" type="line"/>
      <point x="157" y="445" type="line"/>
      <point x="63" y="445" type="line"/>
    </contour>
    <contour>
      <point x="63" y="0" type="line"/>
      <point x="157" y="0" type="line"/>
      <point x="157" y="108" type="line"/>
      <point x="63" y="108" type="line"/>
    </contour>
    <contour>
      <point x="-12" y="917" type="line"/>
      <point x="231" y="917" type="line"/>
      <point x="231" y="-213" type="line"/>
      <point x="-12" y="-213" type="line"/>
    </contour>
  </outline>
</glyph>
<glyph name="question" format="1">
  <advance width="444"/>
  <unicode hex="003F"/>
  <outline>
    <contour>
      <point x="104" y="460" type="line"/>
      <point x="117" y="556" type="line"/>
      <point x="147" y="581"/>
      <point x="183" y="595"/>
      <point x="225" y="595" type="curve" smooth="yes"/>
      <point x="298" y="595"/>
      <point x="336" y="560"/>
      <point x="336" y="515" type="curve" smooth="yes"/>
      <point x="336" y="407"/>
      <point x="135" y="386"/>
      <point x="135" y="266" type="curve" smooth="yes"/>
      <point x="135" y="215"/>
      <point x="172" y="176"/>
      <point x="263" y="181" type="curve"/>
      <point x="263" y="231" type="line"/>
      <point x="228" y="231"/>
      <point x="210" y="246"/>
      <point x="210" y="272" type="curve" smooth="yes"/>
      <point x="210" y="359"/>
      <point x="414" y="390"/>
      <point x="414" y="525" type="curve" smooth="yes"/>
      <point x="414" y="609"/>
      <point x="332" y="660"/>
      <point x="230" y="660" type="curve" smooth="yes"/>
      <point x="162" y="660"/>
      <point x="94" y="626"/>
      <point x="54" y="585" type="curve"/>
      <point x="46" y="465" type="line"/>
    </contour>
    <contour>
      <point x="165" y="0" type="line"/>
      <point x="254" y="0" type="line"/>
      <point x="254" y="97" type="line"/>
      <point x="165" y="97" type="line"/>
    </contour>
    <contour>
      <point x="-12" y="917" type="line"/>
      <point x="456" y="917" type="line"/>
      <point x="456" y="-213" type="line"/>
      <point x="-12" y="-213" type="line"/>
    </contour>
  </outline>
</glyph>
<glyph name="at" format="1">
  <advance width="902"/>
  <unicode hex="0040"/>
  <outline>
    <contour>
      <point x="296" y="405" type="curve"/>
      <point x="278" y="301" type="line"/>
      <point x="331" y="295" type="line"/>
      <point x="350" y="372" type="line"/>
      <point x="383" y="393"/>
      <point x="413" y="400"/>
      <point x="449" y="400" type="curve" smooth="yes"/>
      <point x="520" y="400"/>
      <point x="544" y="356"/>
      <point x="544" y="288" type="curve" smooth="yes"/>
      <point x="544" y="246" type="line"/>
      <point x="520" y="247"/>
      <point x="492" y="249"/>
      <point x="466" y="249" type="curve" smooth="yes"/>
      <point x="366" y="249"/>
      <point x="256" y="227"/>
      <point x="256" y="115" type="curve" smooth="yes"/>
      <point x="256" y="20"/>
      <point x="333" y="-10"/>
      <point x="394" y="-10" type="curve" smooth="yes"/>
      <point x="467" y="-10"/>
      <point x="520" y="37"/>
      <point x="547" y="87" type="curve"/>
      <point x="558" y="29"/>
      <point x="603" y="-10"/>
      <point x="673" y="-10" type="curve" smooth="yes"/>
      <point x="814" y="-10"/>
      <point x="859" y="144"/>
      <point x="859" y="272" type="curve" smooth="yes"/>
      <point x="859" y="557"/>
      <point x="637" y="654"/>
      <point x="460" y="654" type="curve" smooth="yes"/>
      <point x="212" y="654"/>
      <point x="38" y="459"/>
      <point x="38" y="219" type="curve" smooth="yes"/>
      <point x="38" y="-29"/>
      <point x="223" y="-202"/>
      <point x="456" y="-202" type="curve" smooth="yes"/>
      <point x="551" y="-202"/>
      <point x="640" y="-174"/>
      <point x="706" y="-130" type="curve"/>
      <point x="682" y="-85" type="line"/>
      <point x="622" y="-126"/>
      <point x="541" y="-147"/>
      <point x="465" y="-147" type="curve" smooth="yes"/>
      <point x="273" y="-147"/>
      <point x="98" y="-16"/>
      <point x="98" y="224" type="curve" smooth="yes"/>
      <point x="98" y="446"/>
      <point x="248" y="599"/>
      <point x="463" y="599" type="curve" smooth="yes"/>
      <point x="619" y="599"/>
      <point x="799" y="520"/>
      <point x="799" y="252" type="curve" smooth="yes"/>
      <point x="799" y="156"/>
      <point x="774" y="40"/>
      <point x="688" y="40" type="curve" smooth="yes"/>
      <point x="644" y="40"/>
      <point x="615" y="68"/>
      <point x="615" y="112" type="curve" smooth="yes"/>
      <point x="615" y="305" type="line" smooth="yes"/>
      <point x="615" y="399"/>
      <point x="562" y="454"/>
      <point x="459" y="454" type="curve" smooth="yes"/>
      <point x="383" y="454"/>
      <point x="338" y="434"/>
    </contour>
    <contour>
      <point x="544" y="204" type="curve"/>
      <point x="544" y="173" type="line" smooth="yes"/>
      <point x="543" y="97"/>
      <point x="478" y="45"/>
      <point x="415" y="45" type="curve" smooth="yes"/>
      <point x="374" y="45"/>
      <point x="331" y="66"/>
      <point x="331" y="123" type="curve" smooth="yes"/>
      <point x="331" y="194"/>
      <point x="396" y="209"/>
      <point x="464" y="209" type="curve" smooth="yes"/>
      <point x="491" y="209"/>
      <point x="520" y="206"/>
    </contour>
    <contour>
      <point x="-12" y="917" type="line"/>
      <point x="914" y="917" type="line"/>
      <point x="914" y="-213" type="line"/>
      <point x="-12" y="-213" type="line"/>
    </contour>
  </outline>
</glyph>
<glyph name="B" format="1">
  <advance width="600"/>
  <unicode hex="0042"/>
  <outline>
    <contour>
      <point x="562" y="184" type="curve" smooth="yes"/>
      <point x="562" y="81"/>
      <point x="488" y="0"/>
      <point x="344" y="0" type="curve" smooth="yes"/>
      <point x="40" y="0" type="line"/>
      <point x="40" y="64" type="line"/>
      <point x="122" y="64" type="line"/>
      <point x="122" y="586" type="line"/>
      <point x="40" y="586" type="line"/>
      <point x="40" y="650" type="line"/>
      <point x="339" y="650" type="line" smooth="yes"/>
      <point x="471" y="650"/>
      <point x="535" y="588"/>
      <point x="535" y="494" type="curve" smooth="yes"/>
      <point x="535" y="424"/>
      <point x="490" y="368"/>
      <point x="423" y="354" type="curve"/>
      <point x="423" y="350" type="line"/>
      <point x="517" y="335"/>
      <point x="562" y="267"/>
    </contour>
    <contour>
      <point x="484" y="188" type="curve" smooth="yes"/>
      <point x="484" y="261"/>
      <point x="440" y="306"/>
      <point x="355" y="306" type="curve" smooth="yes"/>
      <point x="195" y="306" type="line"/>
      <point x="195" y="64" type="line"/>
      <point x="331" y="64" type="line" smooth="yes"/>
      <point x="424" y="64"/>
      <point x="484" y="101"/>
    </contour>
    <contour>
      <point x="457" y="477" type="curve" smooth="yes"/>
      <point x="457" y="559"/>
      <point x="409" y="586"/>
      <point x="327" y="586" type="curve" smooth="yes"/>
      <point x="195" y="586" type="line"/>
      <point x="195" y="366" type="line"/>
      <point x="324" y="366" type="line" smooth="yes"/>
      <point x="401" y="366"/>
      <point x="457" y="405"/>
    </contour>
    <contour>
      <point x="-12" y="-213" type="line"/>
      <point x="612" y="-213" type="line"/>
      <point x="612" y="917" type="line"/>
      <point x="-12" y="917" type="line"/>
    </contour>
  </outline>
</glyph>
<glyph name="D" format="1">
  <advance width="697"/>
  <unicode hex="0044"/>
  <outline>
    <contour>
      <point x="659" y="326" type="curve" smooth="yes"/>
      <point x="659" y="135"/>
      <point x="535" y="0"/>
      <point x="330" y="0" type="curve" smooth="yes"/>
      <point x="56" y="0" type="line"/>
      <point x="56" y="63" type="line"/>
      <point x="138" y="63" type="line"/>
      <point x="138" y="587" type="line"/>
      <point x="56" y="587" type="line"/>
      <point x="56" y="650" type="line"/>
      <point x="327" y="650" type="line" smooth="yes"/>
      <point x="539" y="650"/>
      <point x="659" y="514"/>
    </contour>
    <contour>
      <point x="581" y="325" type="curve" smooth="yes"/>
      <point x="581" y="482"/>
      <point x="491" y="587"/>
      <point x="326" y="587" type="curve" smooth="yes"/>
      <point x="211" y="587" type="line"/>
      <point x="211" y="63" type="line"/>
      <point x="326" y="63" type="line" smooth="yes"/>
      <point x="491" y="63"/>
      <point x="581" y="164"/>
    </contour>
    <contour>
      <point x="-16" y="-213" type="line"/>
      <point x="709" y="-213" type="line"/>
      <point x="709" y="917" type="line"/>
      <point x="-16" y="917" type="line"/>
    </contour>
  </outline>
</glyph>
<glyph name="I" format="1">
  <advance width="318"/>
  <unicode hex="0049"/>
  <outline>
    <contour>
      <point x="40" y="0" type="line"/>
      <point x="40" y="64" type="line"/>
      <point x="122" y="64" type="line"/>
      <point x="122" y="586" type="line"/>
      <point x="40" y="586" type="line"/>
      <point x="40" y="650" type="line"/>
      <point x="277" y="650" type="line"/>
      <point x="277" y="586" type="line"/>
      <point x="196" y="586" type="line"/>
      <point x="196" y="64" type="line"/>
      <point x="277" y="64" type="line"/>
      <point x="277" y="0" type="line"/>
    </contour>
    <contour>
      <point x="-12" y="-213" type="line"/>
      <point x="330" y="-213" type="line"/>
      <point x="330" y="917" type="line"/>
      <point x="-12" y="917" type="line"/>
    </contour>
  </outline>
</glyph>
<glyph name="J" format="1">
  <advance width="454"/>
  <unicode hex="004A"/>
  <outline>
    <contour>
      <point x="346" y="586" type="line"/>
      <point x="346" y="166" type="line" smooth="yes"/>
      <point x="346" y="48"/>
      <point x="284" y="-10"/>
      <point x="179" y="-10" type="curve" smooth="yes"/>
      <point x="94" y="-10"/>
      <point x="45" y="30"/>
      <point x="17" y="89" type="curve"/>
      <point x="70" y="129" type="line"/>
      <point x="98" y="75"/>
      <point x="129" y="59"/>
      <point x="173" y="59" type="curve" smooth="yes"/>
      <point x="244" y="59"/>
      <point x="273" y="101"/>
      <point x="273" y="166" type="curve" smooth="yes"/>
      <point x="273" y="586" type="line"/>
      <point x="144" y="586" type="line"/>
      <point x="144" y="650" type="line"/>
      <point x="418" y="650" type="line"/>
      <point x="418" y="586" type="line"/>
    </contour>
    <contour>
      <point x="-10" y="-213" type="line"/>
      <point x="466" y="-213" type="line"/>
      <point x="466" y="917" type="line"/>
      <point x="-12" y="917" type="line"/>
    </contour>
  </outline>
</glyph>
<glyph name="K" format="1">
  <advance width="638"/>
  <unicode hex="004B"/>
  <outline>
    <contour>
      <point x="399" y="0" type="line"/>
      <point x="399" y="64" type="line"/>
      <point x="476" y="64" type="line"/>
      <point x="304" y="299" type="line"/>
      <point x="196" y="299" type="line"/>
      <point x="196" y="64" type="line"/>
      <point x="271" y="64" type="line"/>
      <point x="271" y="0" type="line"/>
      <point x="40" y="0" type="line"/>
      <point x="40" y="64" type="line"/>
      <point x="122" y="64" type="line"/>
      <point x="122" y="586" type="line"/>
      <point x="40" y="586" type="line"/>
      <point x="40" y="650" type="line"/>
      <point x="272" y="650" type="line"/>
      <point x="272" y="586" type="line"/>
      <point x="196" y="586" type="line"/>
      <point x="196" y="362" type="line"/>
      <point x="302" y="362" type="line"/>
      <point x="469" y="587" type="line"/>
      <point x="392" y="587" type="line"/>
      <point x="392" y="651" type="line"/>
      <point x="621" y="651" type="line"/>
      <point x="621" y="587" type="line"/>
      <point x="547" y="587" type="line"/>
      <point x="360" y="338" type="line"/>
      <point x="560" y="64" type="line"/>
      <point x="633" y="64" type="line"/>
      <point x="633" y="0" type="line"/>
    </contour>
    <contour>
      <point x="-12" y="-213" type="line"/>
      <point x="650" y="-213" type="line"/>
      <point x="650" y="917" type="line"/>
      <point x="-12" y="917" type="line"/>
    </contour>
  </outline>
</glyph>
<glyph name="M" format="1">
  <advance width="877"/>
  <unicode hex="004D"/>
  <outline>
    <contour>
      <point x="755" y="586" type="line"/>
      <point x="755" y="64" type="line"/>
      <point x="836" y="64" type="line"/>
      <point x="836" y="0" type="line"/>
      <point x="605" y="0" type="line"/>
      <point x="605" y="64" type="line"/>
      <point x="681" y="64" type="line"/>
      <point x="681" y="478" type="line"/>
      <point x="677" y="478" type="line"/>
      <point x="459" y="33" type="line"/>
      <point x="420" y="33" type="line"/>
      <point x="197" y="481" type="line"/>
      <point x="193" y="481" type="line"/>
      <point x="193" y="64" type="line"/>
      <point x="271" y="64" type="line"/>
      <point x="271" y="0" type="line"/>
      <point x="41" y="0" type="line"/>
      <point x="41" y="64" type="line"/>
      <point x="123" y="64" type="line"/>
      <point x="123" y="586" type="line"/>
      <point x="38" y="586" type="line"/>
      <point x="38" y="650" type="line"/>
      <point x="187" y="650" type="line"/>
      <point x="440" y="141" type="line"/>
      <point x="444" y="141" type="line"/>
      <point x="690" y="650" type="line"/>
      <point x="840" y="650" type="line"/>
      <point x="840" y="586" type="line"/>
    </contour>
    <contour>
      <point x="-12" y="-213" type="line"/>
      <point x="889" y="-213" type="line"/>
      <point x="889" y="917" type="line"/>
      <point x="-12" y="917" type="line"/>
    </contour>
  </outline>
</glyph>
<glyph name="N" format="1">
  <advance width="733"/>
  <unicode hex="004E"/>
  <outline>
    <contour>
      <point x="620" y="586" type="line"/>
      <point x="620" y="0" type="line"/>
      <point x="573" y="0" type="line"/>
      <point x="196" y="512" type="line"/>
      <point x="192" y="512" type="line"/>
      <point x="192" y="64" type="line"/>
      <point x="295" y="64" type="line"/>
      <point x="295" y="0" type="line"/>
      <point x="47" y="0" type="line"/>
      <point x="47" y="64" type="line"/>
      <point x="122" y="64" type="line"/>
      <point x="122" y="586" type="line"/>
      <point x="36" y="586" type="line"/>
      <point x="36" y="650" type="line"/>
      <point x="176" y="650" type="line"/>
      <point x="546" y="149" type="line"/>
      <point x="550" y="149" type="line"/>
      <point x="550" y="586" type="line"/>
      <point x="452" y="586" type="line"/>
      <point x="452" y="650" type="line"/>
      <point x="701" y="650" type="line"/>
      <point x="701" y="586" type="line"/>
    </contour>
    <contour>
      <point x="-12" y="-213" type="line"/>
      <point x="745" y="-213" type="line"/>
      <point x="745" y="917" type="line"/>
      <point x="-12" y="917" type="line"/>
    </contour>
    <contour>
      <point x="346" y="727" type="move" name="top"/>
    </contour>
  </outline>
</glyph>
<glyph name="P" format="1">
  <advance width="570"/>
  <unicode hex="0050"/>
  <outline>
    <contour>
      <point x="542" y="451" type="curve" smooth="yes"/>
      <point x="542" y="315"/>
      <point x="450" y="242"/>
      <point x="322" y="242" type="curve" smooth="yes"/>
      <point x="195" y="242" type="line"/>
      <point x="195" y="64" type="line"/>
      <point x="307" y="64" type="line"/>
      <point x="307" y="0" type="line"/>
      <point x="40" y="0" type="line"/>
      <point x="40" y="64" type="line"/>
      <point x="122" y="64" type="line"/>
      <point x="122" y="586" type="line"/>
      <point x="40" y="586" type="line"/>
      <point x="40" y="650" type="line"/>
      <point x="316" y="650" type="line" smooth="yes"/>
      <point x="477" y="650"/>
      <point x="542" y="559"/>
    </contour>
    <contour>
      <point x="464" y="449" type="curve" smooth="yes"/>
      <point x="464" y="533"/>
      <point x="416" y="586"/>
      <point x="310" y="586" type="curve" smooth="yes"/>
      <point x="195" y="586" type="line"/>
      <point x="195" y="306" type="line"/>
      <point x="313" y="306" type="line" smooth="yes"/>
      <point x="410" y="306"/>
      <point x="464" y="358"/>
    </contour>
    <contour>
      <point x="-12" y="-213" type="line"/>
      <point x="582" y="-213" type="line"/>
      <point x="582" y="917" type="line"/>
      <point x="-12" y="917" type="line"/>
    </contour>
  </outline>
</glyph>
<glyph name="T" format="1">
  <advance width="568"/>
  <unicode hex="0054"/>
  <outline>
    <contour>
      <point x="485" y="447" type="line"/>
      <point x="465" y="586" type="line"/>
      <point x="320" y="586" type="line"/>
      <point x="320" y="64" type="line"/>
      <point x="435" y="64" type="line"/>
      <point x="435" y="0" type="line"/>
      <point x="135" y="0" type="line"/>
      <point x="135" y="64" type="line"/>
      <point x="247" y="64" type="line"/>
      <point x="247" y="586" type="line"/>
      <point x="103" y="586" type="line"/>
      <point x="83" y="447" type="line"/>
      <point x="19" y="452" type="line"/>
      <point x="38" y="650" type="line"/>
      <point x="530" y="650" type="line"/>
      <point x="550" y="452" type="line"/>
    </contour>
    <contour>
      <point x="-12" y="-213" type="line"/>
      <point x="580" y="-213" type="line"/>
      <point x="580" y="917" type="line"/>
      <point x="-12" y="917" type="line"/>
    </contour>
  </outline>
</glyph>
<glyph name="V" format="1">
  <advance width="606"/>
  <unicode hex="0056"/>
  <outline>
    <contour>
      <point x="230" y="586" type="line"/>
      <point x="139" y="586" type="line"/>
      <point x="305" y="108" type="line"/>
      <point x="310" y="108" type="line"/>
      <point x="472" y="586" type="line"/>
      <point x="380" y="586" type="line"/>
      <point x="380" y="650" type="line"/>
      <point x="618" y="650" type="line"/>
      <point x="618" y="917" type="line"/>
      <point x="-12" y="917" type="line"/>
      <point x="-12" y="650" type="line"/>
      <point x="230" y="650" type="line"/>
    </contour>
    <contour>
      <point x="618" y="-213" type="line"/>
      <point x="618" y="586" type="line"/>
      <point x="547" y="586" type="line"/>
      <point x="332" y="0" type="line"/>
      <point x="274" y="0" type="line"/>
      <point x="59" y="586" type="line"/>
      <point x="-12" y="586" type="line"/>
      <point x="-12" y="-213" type="line"/>
    </contour>
  </outline>
</glyph>
<glyph name="X" format="1">
  <advance width="629"/>
  <unicode hex="0058"/>
  <outline>
    <contour>
      <point x="396" y="0" type="line"/>
      <point x="396" y="64" type="line"/>
      <point x="476" y="64" type="line"/>
      <point x="310" y="286" type="line"/>
      <point x="151" y="64" type="line"/>
      <point x="228" y="64" type="line"/>
      <point x="228" y="0" type="line"/>
      <point x="4" y="0" type="line"/>
      <point x="4" y="64" type="line"/>
      <point x="71" y="64" type="line"/>
      <point x="273" y="336" type="line"/>
      <point x="80" y="586" type="line"/>
      <point x="15" y="586" type="line"/>
      <point x="15" y="650" type="line"/>
      <point x="237" y="650" type="line"/>
      <point x="237" y="586" type="line"/>
      <point x="164" y="586" type="line"/>
      <point x="315" y="386" type="line"/>
      <point x="459" y="586" type="line"/>
      <point x="393" y="586" type="line"/>
      <point x="393" y="650" type="line"/>
      <point x="613" y="650" type="line"/>
      <point x="613" y="586" type="line"/>
      <point x="541" y="586" type="line"/>
      <point x="352" y="337" type="line"/>
      <point x="561" y="64" type="line"/>
      <point x="623" y="64" type="line"/>
      <point x="623" y="0" type="line"/>
    </contour>
    <contour>
      <point x="-12" y="-213" type="line"/>
      <point x="641" y="-213" type="line"/>
      <point x="641" y="917" type="line"/>
      <point x="-12" y="917" type="line"/>
    </contour>
  </outline>
</glyph>
<glyph name="Z" format="1">
  <advance width="574"/>
  <unicode hex="005A"/>
  <outline>
    <contour>
      <point x="32" y="0" type="line"/>
      <point x="30" y="44" type="line"/>
      <point x="414" y="583" type="line"/>
      <point x="414" y="586" type="line"/>
      <point x="134" y="586" type="line"/>
      <point x="106" y="453" type="line"/>
      <point x="44" y="462" type="line"/>
      <point x="69" y="650" type="line"/>
      <point x="517" y="650" type="line"/>
      <point x="519" y="610" type="line"/>
      <point x="133" y="67" type="line"/>
      <point x="133" y="64" type="line"/>
      <point x="447" y="64" type="line"/>
      <point x="475" y="202" type="line"/>
      <point x="538" y="193" type="line"/>
      <point x="512" y="0" type="line"/>
    </contour>
    <contour>
      <point x="-12" y="-213" type="line"/>
      <point x="586" y="-213" type="line"/>
      <point x="586" y="917" type="line"/>
      <point x="-12" y="917" type="line"/>
    </contour>
  </outline>
</glyph>
<glyph name="bracketleft" format="1">
  <advance width="295"/>
  <unicode hex="005B"/>
  <outline>
    <contour>
      <point x="82" y="750" type="line"/>
      <point x="259" y="750" type="line"/>
      <point x="259" y="698" type="line"/>
      <point x="145" y="698" type="line"/>
      <point x="145" y="-154" type="line"/>
      <point x="259" y="-154" type="line"/>
      <point x="259" y="-206" type="line"/>
      <point x="82" y="-206" type="line"/>
    </contour>
    <contour>
      <point x="-12" y="-213" type="line"/>
      <point x="307" y="-213" type="line"/>
      <point x="307" y="917" type="line"/>
      <point x="-12" y="917" type="line"/>
    </contour>
  </outline>
</glyph>
<glyph name="underscore" format="1">
  <advance width="530"/>
  <unicode hex="005F"/>
  <outline>
    <contour>
      <point x="50" y="-125" type="line"/>
      <point x="482" y="-125" type="line"/>
      <point x="482" y="-74" type="line"/>
      <point x="50" y="-74" type="line"/>
    </contour>
    <contour>
      <point x="-12" y="917" type="line"/>
      <point x="542" y="917" type="line"/>
      <point x="542" y="-213" type="line"/>
      <point x="-12" y="-213" type="line"/>
    </contour>
  </outline>
</glyph>
<glyph name="b" format="1">
  <advance width="527"/>
  <unicode hex="0062"/>
  <outline>
    <contour>
      <point x="493" y="234" type="curve" smooth="yes"/>
      <point x="493" y="116"/>
      <point x="436" y="-10"/>
      <point x="294" y="-10" type="curve" smooth="yes"/>
      <point x="225" y="-10"/>
      <point x="167" y="20"/>
      <point x="138" y="74" type="curve"/>
      <point x="138" y="69"/>
      <point x="130" y="5"/>
      <point x="129" y="0" type="curve"/>
      <point x="59" y="0" type="line"/>
      <point x="65" y="39"/>
      <point x="72" y="86"/>
      <point x="72" y="130" type="curve" smooth="yes"/>
      <point x="72" y="631" type="line"/>
      <point x="-4" y="631" type="line"/>
      <point x="-4" y="688" type="line"/>
      <point x="143" y="688" type="line"/>
      <point x="143" y="353" type="line"/>
      <point x="170" y="408"/>
      <point x="217" y="454"/>
      <point x="302" y="454" type="curve" smooth="yes"/>
      <point x="413" y="454"/>
      <point x="493" y="375"/>
    </contour>
    <contour>
      <point x="419" y="227" type="curve" smooth="yes"/>
      <point x="419" y="338"/>
      <point x="360" y="394"/>
      <point x="284" y="394" type="curve" smooth="yes"/>
      <point x="199" y="394"/>
      <point x="145" y="317"/>
      <point x="143" y="251" type="curve"/>
      <point x="143" y="184" type="line" smooth="yes"/>
      <point x="143" y="109"/>
      <point x="203" y="50"/>
      <point x="280" y="50" type="curve" smooth="yes"/>
      <point x="378" y="50"/>
      <point x="419" y="135"/>
    </contour>
    <contour>
      <point x="-12" y="-213" type="line"/>
      <point x="539" y="-213" type="line"/>
      <point x="539" y="917" type="line"/>
      <point x="-12" y="917" type="line"/>
    </contour>
    <contour>
      <point x="260" y="566" type="move" name="top"/>
    </contour>
  </outline>
</glyph>
<glyph name="g" format="1">
  <advance width="545"/>
  <unicode hex="0067"/>
  <outline>
    <contour>
      <point x="-12" y="-213" type="line"/>
      <point x="224" y="-213" type="line"/>
      <point x="137" y="-209"/>
      <point x="61" y="-167"/>
      <point x="39" y="-82" type="curve"/>
      <point x="95" y="-54" type="line"/>
      <point x="118" y="-124"/>
      <point x="181" y="-152"/>
      <point x="241" y="-152" type="curve" smooth="yes"/>
      <point x="326" y="-152"/>
      <point x="386" y="-92"/>
      <point x="386" y="19" type="curve" smooth="yes"/>
      <point x="386" y="91" type="line"/>
      <point x="359" y="39"/>
      <point x="311" y="-6"/>
      <point x="227" y="-6" type="curve" smooth="yes"/>
      <point x="121" y="-6"/>
      <point x="36" y="71"/>
      <point x="36" y="211" type="curve" smooth="yes"/>
      <point x="36" y="330"/>
      <point x="97" y="454"/>
      <point x="235" y="454" type="curve" smooth="yes"/>
      <point x="302" y="454"/>
      <point x="357" y="426"/>
      <point x="386" y="375" type="curve"/>
      <point x="386" y="445" type="line"/>
      <point x="529" y="445" type="line"/>
      <point x="529" y="388" type="line"/>
      <point x="457" y="388" type="line"/>
      <point x="457" y="16" type="line" smooth="yes"/>
      <point x="457" y="-120"/>
      <point x="381" y="-208"/>
      <point x="248" y="-213" type="curve"/>
      <point x="557" y="-213" type="line"/>
      <point x="557" y="917" type="line"/>
      <point x="-12" y="917" type="line"/>
    </contour>
    <contour>
      <point x="386" y="269" type="line" smooth="yes"/>
      <point x="386" y="344"/>
      <point x="326" y="393"/>
      <point x="254" y="393" type="curve" smooth="yes"/>
      <point x="153" y="393"/>
      <point x="111" y="310"/>
      <point x="111" y="216" type="curve" smooth="yes"/>
      <point x="111" y="107"/>
      <point x="169" y="55"/>
      <point x="242" y="55" type="curve" smooth="yes"/>
      <point x="326" y="55"/>
      <point x="384" y="125"/>
      <point x="386" y="192" type="curve"/>
    </contour>
    <contour>
      <point x="236" y="566" type="move" name="top"/>
    </contour>
  </outline>
</glyph>
<glyph name="k" format="1">
  <advance width="517"/>
  <unicode hex="006B"/>
  <outline>
    <contour>
      <point x="297" y="0" type="line"/>
      <point x="297" y="57" type="line"/>
      <point x="364" y="57" type="line"/>
      <point x="242" y="208" type="line"/>
      <point x="163" y="208" type="line"/>
      <point x="163" y="57" type="line"/>
      <point x="227" y="57" type="line"/>
      <point x="227" y="0" type="line"/>
      <point x="15" y="0" type="line"/>
      <point x="15" y="57" type="line"/>
      <point x="92" y="57" type="line"/>
      <point x="92" y="631" type="line"/>
      <point x="13" y="631" type="line"/>
      <point x="13" y="688" type="line"/>
      <point x="163" y="688" type="line"/>
      <point x="163" y="262" type="line"/>
      <point x="243" y="262" type="line"/>
      <point x="345" y="388" type="line"/>
      <point x="276" y="388" type="line"/>
      <point x="276" y="445" type="line"/>
      <point x="484" y="445" type="line"/>
      <point x="484" y="388" type="line"/>
      <point x="416" y="388" type="line"/>
      <point x="297" y="241" type="line"/>
      <point x="444" y="57" type="line"/>
      <point x="507" y="57" type="line"/>
      <point x="507" y="0" type="line"/>
    </contour>
    <contour>
      <point x="-12" y="-213" type="line"/>
      <point x="529" y="-213" type="line"/>
      <point x="529" y="917" type="line"/>
      <point x="-12" y="917" type="line"/>
    </contour>
  </outline>
</glyph>
<glyph name="m" format="1">
  <advance width="860"/>
  <unicode hex="006D"/>
  <outline>
    <contour>
      <point x="639" y="0" type="line"/>
      <point x="639" y="57" type="line"/>
      <point x="704" y="57" type="line"/>
      <point x="704" y="264" type="line" smooth="yes"/>
      <point x="704" y="360"/>
      <point x="662" y="395"/>
      <point x="603" y="395" type="curve" smooth="yes"/>
      <point x="521" y="395"/>
      <point x="477" y="317"/>
      <point x="475" y="261" type="curve"/>
      <point x="475" y="57" type="line"/>
      <point x="552" y="57" type="line"/>
      <point x="552" y="0" type="line"/>
      <point x="340" y="0" type="line"/>
      <point x="340" y="57" type="line"/>
      <point x="404" y="57" type="line"/>
      <point x="404" y="264" type="line" smooth="yes"/>
      <point x="404" y="361"/>
      <point x="363" y="395"/>
      <point x="305" y="395" type="curve" smooth="yes"/>
      <point x="222" y="395"/>
      <point x="178" y="320"/>
      <point x="176" y="263" type="curve"/>
      <point x="176" y="57" type="line"/>
      <point x="258" y="57" type="line"/>
      <point x="258" y="0" type="line"/>
      <point x="28" y="0" type="line"/>
      <point x="28" y="57" type="line"/>
      <point x="106" y="57" type="line"/>
      <point x="106" y="388" type="line"/>
      <point x="27" y="388" type="line"/>
      <point x="27" y="445" type="line"/>
      <point x="176" y="445" type="line"/>
      <point x="176" y="362" type="line"/>
      <point x="205" y="416"/>
      <point x="254" y="454"/>
      <point x="325" y="454" type="curve" smooth="yes"/>
      <point x="394" y="454"/>
      <point x="449" y="421"/>
      <point x="468" y="347" type="curve"/>
      <point x="495" y="409"/>
      <point x="548" y="454"/>
      <point x="625" y="454" type="curve" smooth="yes"/>
      <point x="710" y="454"/>
      <point x="774" y="403"/>
      <point x="774" y="285" type="curve" smooth="yes"/>
      <point x="774" y="57" type="line"/>
      <point x="852" y="57" type="line"/>
      <point x="852" y="0" type="line"/>
    </contour>
    <contour>
      <point x="-12" y="-213" type="line"/>
      <point x="872" y="-213" type="line"/>
      <point x="872" y="917" type="line"/>
      <point x="-12" y="917" type="line"/>
    </contour>
    <contour>
      <point x="291" y="566" type="move" name="top"/>
    </contour>
  </outline>
</glyph>
<glyph name="q" format="1">
  <advance width="529"/>
  <unicode hex="0071"/>
  <outline>
    <contour>
      <point x="525" y="-213" type="line"/>
      <point x="525" y="-156" type="line"/>
      <point x="457" y="-156" type="line"/>
      <point x="457" y="307" type="line" smooth="yes"/>
      <point x="457" y="353"/>
      <point x="463" y="399"/>
      <point x="472" y="445" type="curve"/>
      <point x="402" y="445" type="line"/>
      <point x="397" y="419"/>
      <point x="394" y="393"/>
      <point x="392" y="368" type="curve"/>
      <point x="364" y="423"/>
      <point x="304" y="454"/>
      <point x="234" y="454" type="curve" smooth="yes"/>
      <point x="93" y="454"/>
      <point x="36" y="327"/>
      <point x="36" y="210" type="curve" smooth="yes"/>
      <point x="36" y="69"/>
      <point x="117" y="-10"/>
      <point x="227" y="-10" type="curve" smooth="yes"/>
      <point x="311" y="-10"/>
      <point x="359" y="37"/>
      <point x="386" y="91" type="curve"/>
      <point x="386" y="-156" type="line"/>
      <point x="282" y="-156" type="line"/>
      <point x="282" y="-213" type="line"/>
    </contour>
    <contour>
      <point x="386" y="197" type="line"/>
      <point x="384" y="130"/>
      <point x="328" y="51"/>
      <point x="244" y="51" type="curve" smooth="yes"/>
      <point x="170" y="51"/>
      <point x="111" y="106"/>
      <point x="111" y="217" type="curve" smooth="yes"/>
      <point x="111" y="309"/>
      <point x="152" y="393"/>
      <point x="249" y="393" type="curve" smooth="yes"/>
      <point x="324" y="393"/>
      <point x="386" y="339"/>
      <point x="386" y="264" type="curve"/>
    </contour>
    <contour>
      <point x="-12" y="917" type="line"/>
      <point x="541" y="917" type="line"/>
      <point x="541" y="-213" type="line"/>
      <point x="-12" y="-213" type="line"/>
    </contour>
  </outline>
</glyph>
<glyph name="v" format="1">
  <advance width="505"/>
  <unicode hex="0076"/>
  <outline>
    <contour>
      <point x="434" y="388" type="line"/>
      <point x="281" y="0" type="line"/>
      <point x="227" y="0" type="line"/>
      <point x="67" y="388" type="line"/>
      <point x="5" y="388" type="line"/>
      <point x="5" y="445" type="line"/>
      <point x="210" y="445" type="line"/>
      <point x="210" y="388" type="line"/>
      <point x="143" y="388" type="line"/>
      <point x="257" y="95" type="line"/>
      <point x="263" y="95" type="line"/>
      <point x="364" y="388" type="line"/>
      <point x="303" y="388" type="line"/>
      <point x="303" y="445" type="line"/>
      <point x="498" y="445" type="line"/>
      <point x="498" y="388" type="line"/>
    </contour>
    <contour>
      <point x="-12" y="-213" type="line"/>
      <point x="517" y="-213" type="line"/>
      <point x="517" y="917" type="line"/>
      <point x="-12" y="917" type="line"/>
    </contour>
  </outline>
</glyph>
<glyph name="w" format="1">
  <advance width="762"/>
  <unicode hex="0077"/>
  <outline>
    <contour>
      <point x="693" y="388" type="line"/>
      <point x="572" y="0" type="line"/>
      <point x="518" y="0" type="line"/>
      <point x="382" y="340" type="line"/>
      <point x="377" y="340" type="line"/>
      <point x="244" y="0" type="line"/>
      <point x="192" y="0" type="line"/>
      <point x="66" y="388" type="line"/>
      <point x="7" y="388" type="line"/>
      <point x="7" y="445" type="line"/>
      <point x="217" y="445" type="line"/>
      <point x="217" y="388" type="line"/>
      <point x="142" y="388" type="line"/>
      <point x="225" y="107" type="line"/>
      <point x="230" y="107" type="line"/>
      <point x="362" y="445" type="line"/>
      <point x="409" y="445" type="line"/>
      <point x="548" y="107" type="line"/>
      <point x="553" y="107" type="line"/>
      <point x="625" y="388" type="line"/>
      <point x="554" y="388" type="line"/>
      <point x="554" y="445" type="line"/>
      <point x="754" y="445" type="line"/>
      <point x="754" y="388" type="line"/>
    </contour>
    <contour>
      <point x="-12" y="-213" type="line"/>
      <point x="774" y="-213" type="line"/>
      <point x="774" y="917" type="line"/>
      <point x="-12" y="917" type="line"/>
    </contour>
  </outline>
</glyph>
<glyph name="x" format="1">
  <advance width="511"/>
  <unicode hex="0078"/>
  <outline>
    <contour>
      <point x="300" y="0" type="line"/>
      <point x="300" y="57" type="line"/>
      <point x="358" y="57" type="line"/>
      <point x="254" y="185" type="line"/>
      <point x="149" y="57" type="line"/>
      <point x="202" y="57" type="line"/>
      <point x="202" y="0" type="line"/>
      <point x="17" y="0" type="line"/>
      <point x="17" y="57" type="line"/>
      <point x="78" y="57" type="line"/>
      <point x="218" y="222" type="line"/>
      <point x="77" y="388" type="line"/>
      <point x="17" y="388" type="line"/>
      <point x="17" y="445" type="line"/>
      <point x="220" y="445" type="line"/>
      <point x="220" y="388" type="line"/>
      <point x="160" y="388" type="line"/>
      <point x="260" y="262" type="line"/>
      <point x="363" y="388" type="line"/>
      <point x="310" y="388" type="line"/>
      <point x="310" y="445" type="line"/>
      <point x="488" y="445" type="line"/>
      <point x="488" y="388" type="line"/>
      <point x="436" y="388" type="line"/>
      <point x="297" y="226" type="line"/>
      <point x="440" y="57" type="line"/>
      <point x="496" y="57" type="line"/>
      <point x="496" y="0" type="line"/>
    </contour>
    <contour>
      <point x="-12" y="-213" type="line"/>
      <point x="523" y="-213" type="line"/>
      <point x="523" y="917" type="line"/>
      <point x="-12" y="917" type="line"/>
    </contour>
  </outline>
</glyph>
<glyph name="asciitilde" format="1">
  <advance width="607"/>
  <unicode hex="007E"/>
  <outline>
    <contour>
      <point x="415" y="200" type="curve" smooth="yes"/>
      <point x="322" y="200"/>
      <point x="271" y="271"/>
      <point x="186" y="271" type="curve" smooth="yes"/>
      <point x="154" y="271"/>
      <point x="122" y="261"/>
      <point x="87" y="207" type="curve"/>
      <point x="45" y="234" type="line"/>
      <point x="84" y="306"/>
      <point x="136" y="336"/>
      <point x="190" y="336" type="curve" smooth="yes"/>
      <point x="276" y="336"/>
      <point x="328" y="265"/>
      <point x="415" y="265" type="curve" smooth="yes"/>
      <point x="456" y="265"/>
      <point x="484" y="282"/>
      <point x="519" y="342" type="curve"/>
      <point x="565" y="312" type="line"/>
      <point x="523" y="235"/>
      <point x="476" y="200"/>
    </contour>
    <contour>
      <point x="-12" y="-213" type="line"/>
      <point x="619" y="-213" type="line"/>
      <point x="619" y="917" type="line"/>
      <point x="-12" y="917" type="line"/>
    </contour>
  </outline>
</glyph>
<glyph name="exclamdown" format="1">
  <advance width="218"/>
  <unicode hex="00A1"/>
  <outline>
    <contour>
      <point x="151" y="-209" type="line"/>
      <point x="137" y="249" type="line"/>
      <point x="83" y="249" type="line"/>
      <point x="68" y="-209" type="line"/>
    </contour>
    <contour>
      <point x="62" y="350" type="line"/>
      <point x="152" y="350" type="line"/>
      <point x="152" y="447" type="line"/>
      <point x="62" y="447" type="line"/>
    </contour>
    <contour>
      <point x="-12" y="917" type="line"/>
      <point x="230" y="917" type="line"/>
      <point x="230" y="-213" type="line"/>
      <point x="-12" y="-213" type="line"/>
    </contour>
  </outline>
</glyph>
<glyph name="sterling" format="1">
  <advance width="506"/>
  <unicode hex="00A3"/>
  <outline>
    <contour>
      <point x="458" y="83" type="curve"/>
      <point x="422" y="116" type="line"/>
      <point x="400" y="85"/>
      <point x="370" y="56"/>
      <point x="310" y="56" type="curve" smooth="yes"/>
      <point x="120" y="56" type="line"/>
      <point x="174" y="90"/>
      <point x="184" y="149"/>
      <point x="184" y="235" type="curve"/>
      <point x="363" y="235" type="line"/>
      <point x="363" y="281" type="line"/>
      <point x="184" y="281" type="line"/>
      <point x="184" y="335" type="line" smooth="yes"/>
      <point x="184" y="439"/>
      <point x="227" y="472"/>
      <point x="286" y="472" type="curve" smooth="yes"/>
      <point x="314" y="472"/>
      <point x="336" y="468"/>
      <point x="359" y="455" type="curve"/>
      <point x="377" y="366" type="line"/>
      <point x="436" y="373" type="line"/>
      <point x="419" y="490" type="line"/>
      <point x="383" y="514"/>
      <point x="347" y="529"/>
      <point x="277" y="529" type="curve" smooth="yes"/>
      <point x="193" y="529"/>
      <point x="114" y="473"/>
      <point x="114" y="334" type="curve" smooth="yes"/>
      <point x="114" y="281" type="line"/>
      <point x="46" y="281" type="line"/>
      <point x="46" y="235" type="line"/>
      <point x="114" y="235" type="line"/>
      <point x="114" y="137"/>
      <point x="102" y="83"/>
      <point x="41" y="54" type="curve"/>
      <point x="41" y="0" type="line"/>
      <point x="325" y="0" type="line" smooth="yes"/>
      <point x="400" y="0"/>
      <point x="445" y="56"/>
    </contour>
    <contour>
      <point x="-12" y="917" type="line"/>
      <point x="518" y="917" type="line"/>
      <point x="518" y="-213" type="line"/>
      <point x="-12" y="-213" type="line"/>
    </contour>
  </outline>
</glyph>
<glyph name="currency" format="1">
  <advance width="476"/>
  <unicode hex="00A4"/>
  <outline>
    <contour>
      <point x="88" y="282" type="curve" smooth="yes"/>
      <point x="88" y="249"/>
      <point x="98" y="218"/>
      <point x="116" y="193" type="curve"/>
      <point x="21" y="98" type="line"/>
      <point x="51" y="68" type="line"/>
      <point x="147" y="162" type="line"/>
      <point x="172" y="143"/>
      <point x="204" y="130"/>
      <point x="239" y="130" type="curve" smooth="yes"/>
      <point x="273" y="130"/>
      <point x="305" y="142"/>
      <point x="330" y="162" type="curve"/>
      <point x="425" y="68" type="line"/>
      <point x="456" y="98" type="line"/>
      <point x="361" y="193" type="line"/>
      <point x="379" y="218"/>
      <point x="390" y="249"/>
      <point x="390" y="282" type="curve" smooth="yes"/>
      <point x="390" y="314"/>
      <point x="379" y="344"/>
      <point x="361" y="368" type="curve"/>
      <point x="456" y="462" type="line"/>
      <point x="425" y="493" type="line"/>
      <point x="331" y="400" type="line"/>
      <point x="305" y="420"/>
      <point x="273" y="432"/>
      <point x="239" y="432" type="curve" smooth="yes"/>
      <point x="204" y="432"/>
      <point x="171" y="420"/>
      <point x="145" y="399" type="curve"/>
      <point x="51" y="493" type="line"/>
      <point x="21" y="462" type="line"/>
      <point x="116" y="368" type="line"/>
      <point x="98" y="344"/>
      <point x="88" y="313"/>
    </contour>
    <contour>
      <point x="149" y="282" type="curve" smooth="yes"/>
      <point x="149" y="339"/>
      <point x="191" y="376"/>
      <point x="240" y="376" type="curve" smooth="yes"/>
      <point x="289" y="376"/>
      <point x="328" y="338"/>
      <point x="328" y="282" type="curve" smooth="yes"/>
      <point x="328" y="225"/>
      <point x="289" y="188"/>
      <point x="240" y="188" type="curve" smooth="yes"/>
      <point x="190" y="188"/>
      <point x="149" y="225"/>
    </contour>
    <contour>
      <point x="-12" y="878" type="line"/>
      <point x="488" y="878" type="line"/>
      <point x="488" y="-252" type="line"/>
      <point x="-12" y="-252" type="line"/>
    </contour>
  </outline>
</glyph>
<glyph name="brokenbar" format="1">
  <advance width="223"/>
  <unicode hex="00A6"/>
  <outline>
    <contour>
      <point x="80" y="730" type="line"/>
      <point x="80" y="426" type="line"/>
      <point x="144" y="426" type="line"/>
      <point x="144" y="730" type="line"/>
    </contour>
    <contour>
      <point x="80" y="224" type="line"/>
      <point x="80" y="-80" type="line"/>
      <point x="144" y="-80" type="line"/>
      <point x="144" y="224" type="line"/>
    </contour>
    <contour>
      <point x="-12" y="917" type="line"/>
      <point x="235" y="917" type="line"/>
      <point x="235" y="-213" type="line"/>
      <point x="-12" y="-213" type="line"/>
    </contour>
  </outline>
</glyph>
<glyph name="dieresis" format="1">
  <advance width="228"/>
  <unicode hex="00A8"/>
  <outline>
    <contour>
      <point x="-12" y="640" type="line"/>
      <point x="69" y="640" type="line"/>
      <point x="69" y="555" type="line"/>
      <point x="-12" y="555" type="line"/>
    </contour>
    <contour>
      <point x="159" y="640" type="line"/>
      <point x="240" y="640" type="line"/>
      <point x="240" y="555" type="line"/>
      <point x="159" y="555" type="line"/>
    </contour>
  </outline>
</glyph>
<glyph name="ordfeminine" format="1">
  <advance width="373"/>
  <unicode hex="00AA"/>
  <outline>
    <contour>
      <point x="175" y="662" type="curve" smooth="yes"/>
      <point x="225" y="662"/>
      <point x="236" y="626"/>
      <point x="236" y="589" type="curve" smooth="yes"/>
      <point x="236" y="565" type="line"/>
      <point x="220" y="566"/>
      <point x="202" y="568"/>
      <point x="180" y="568" type="curve" smooth="yes"/>
      <point x="117" y="568"/>
      <point x="42" y="553"/>
      <point x="42" y="480" type="curve" smooth="yes"/>
      <point x="42" y="419"/>
      <point x="94" y="398"/>
      <point x="135" y="398" type="curve" smooth="yes"/>
      <point x="183" y="398"/>
      <point x="217" y="427"/>
      <point x="236" y="459" type="curve"/>
      <point x="237" y="421"/>
      <point x="256" y="398"/>
      <point x="293" y="398" type="curve" smooth="yes"/>
      <point x="308" y="398"/>
      <point x="324" y="402"/>
      <point x="336" y="409" type="curve"/>
      <point x="335" y="440" type="line"/>
      <point x="330" y="438"/>
      <point x="323" y="437"/>
      <point x="317" y="437" type="curve" smooth="yes"/>
      <point x="301" y="437"/>
      <point x="294" y="446"/>
      <point x="294" y="467" type="curve" smooth="yes"/>
      <point x="294" y="603" type="line" smooth="yes"/>
      <point x="294" y="666"/>
      <point x="257" y="701"/>
      <point x="182" y="701" type="curve" smooth="yes"/>
      <point x="142" y="701"/>
      <point x="103" y="691"/>
      <point x="72" y="669" type="curve"/>
      <point x="62" y="599" type="line"/>
      <point x="105" y="595" type="line"/>
      <point x="118" y="647" type="line"/>
      <point x="136" y="656"/>
      <point x="155" y="662"/>
    </contour>
    <contour>
      <point x="236" y="516" type="line"/>
      <point x="233" y="468"/>
      <point x="195" y="439"/>
      <point x="156" y="439" type="curve" smooth="yes"/>
      <point x="130" y="439"/>
      <point x="104" y="452"/>
      <point x="104" y="487" type="curve" smooth="yes"/>
      <point x="104" y="530"/>
      <point x="144" y="539"/>
      <point x="183" y="539" type="curve" smooth="yes"/>
      <point x="201" y="539"/>
      <point x="220" y="537"/>
      <point x="236" y="535" type="curve"/>
    </contour>
    <contour>
      <point x="-12" y="917" type="line"/>
      <point x="385" y="917" type="line"/>
      <point x="385" y="-213" type="line"/>
      <point x="-12" y="-213" type="line"/>
    </contour>
  </outline>
</glyph>
<glyph name="guillemotleft" format="1">
  <advance width="447"/>
  <unicode hex="00AB"/>
  <outline>
    <contour>
      <point x="237" y="25" type="line"/>
      <point x="108" y="271" type="line"/>
      <point x="237" y="511" type="line"/>
      <point x="177" y="511" type="line"/>
      <point x="39" y="271" type="line"/>
      <point x="177" y="25" type="line"/>
    </contour>
    <contour>
      <point x="402" y="25" type="line"/>
      <point x="273" y="271" type="line"/>
      <point x="402" y="511" type="line"/>
      <point x="341" y="511" type="line"/>
      <point x="203" y="271" type="line"/>
      <point x="341" y="25" type="line"/>
    </contour>
    <contour>
      <point x="-12" y="917" type="line"/>
      <point x="459" y="917" type="line"/>
      <point x="459" y="-213" type="line"/>
      <point x="-12" y="-213" type="line"/>
    </contour>
  </outline>
</glyph>
<glyph name="logicalnot" format="1">
  <advance width="602"/>
  <unicode hex="00AC"/>
  <outline>
    <contour>
      <point x="489" y="99" type="line"/>
      <point x="541" y="99" type="line"/>
      <point x="541" y="308" type="line"/>
      <point x="60" y="308" type="line"/>
      <point x="60" y="256" type="line"/>
      <point x="489" y="256" type="line"/>
    </contour>
    <contour>
      <point x="-12" y="917" type="line"/>
      <point x="614" y="917" type="line"/>
      <point x="614" y="-213" type="line"/>
      <point x="-12" y="-213" type="line"/>
    </contour>
  </outline>
</glyph>
<glyph name="registered" format="1">
  <advance width="586"/>
  <unicode hex="00AE"/>
  <outline>
    <contour>
      <point x="-12" y="917" type="line"/>
      <point x="598" y="917" type="line"/>
      <point x="598" y="-213" type="line"/>
      <point x="-12" y="-213" type="line"/>
    </contour>
    <contour>
      <point x="294" y="159" type="curve" smooth="yes"/>
      <point x="433" y="159"/>
      <point x="545" y="270"/>
      <point x="545" y="409" type="curve" smooth="yes"/>
      <point x="545" y="548"/>
      <point x="435" y="660"/>
      <point x="295" y="660" type="curve" smooth="yes"/>
      <point x="155" y="660"/>
      <point x="44" y="548"/>
      <point x="44" y="409" type="curve" smooth="yes"/>
      <point x="44" y="269"/>
      <point x="156" y="159"/>
    </contour>
    <contour>
      <point x="295" y="200" type="curve" smooth="yes"/>
      <point x="174" y="200"/>
      <point x="86" y="293"/>
      <point x="86" y="409" type="curve" smooth="yes"/>
      <point x="86" y="525"/>
      <point x="173" y="619"/>
      <point x="295" y="619" type="curve" smooth="yes"/>
      <point x="416" y="619"/>
      <point x="502" y="525"/>
      <point x="502" y="409" type="curve" smooth="yes"/>
      <point x="502" y="294"/>
      <point x="414" y="200"/>
    </contour>
    <contour>
      <point x="175" y="277" type="line"/>
      <point x="288" y="277" type="line"/>
      <point x="288" y="308" type="line"/>
      <point x="250" y="308" type="line"/>
      <point x="250" y="393" type="line"/>
      <point x="307" y="393" type="line"/>
      <point x="369" y="277" type="line"/>
      <point x="432" y="277" type="line"/>
      <point x="432" y="308" type="line"/>
      <point x="395" y="308" type="line"/>
      <point x="345" y="400" type="line"/>
      <point x="386" y="411"/>
      <point x="408" y="441"/>
      <point x="408" y="479" type="curve" smooth="yes"/>
      <point x="408" y="526"/>
      <point x="376" y="559"/>
      <point x="304" y="559" type="curve" smooth="yes"/>
      <point x="175" y="559" type="line"/>
      <point x="175" y="528" type="line"/>
      <point x="211" y="528" type="line"/>
      <point x="211" y="308" type="line"/>
      <point x="175" y="308" type="line"/>
    </contour>
    <contour>
      <point x="297" y="528" type="line" smooth="yes"/>
      <point x="345" y="528"/>
      <point x="365" y="512"/>
      <point x="365" y="478" type="curve" smooth="yes"/>
      <point x="365" y="443"/>
      <point x="347" y="423"/>
      <point x="297" y="423" type="curve" smooth="yes"/>
      <point x="250" y="423" type="line"/>
      <point x="250" y="528" type="line"/>
    </contour>
  </outline>
</glyph>
<glyph name="macron" format="1">
  <advance width="220"/>
  <unicode hex="00AF"/>
  <outline>
    <contour>
      <point x="-12" y="564" type="line"/>
      <point x="-12" y="621" type="line"/>
      <point x="232" y="621" type="line"/>
      <point x="232" y="564" type="line"/>
    </contour>
  </outline>
</glyph>
<glyph name="degree" format="1">
  <advance width="392"/>
  <unicode hex="00B0"/>
  <outline>
    <contour>
      <point x="196" y="342" type="curve" smooth="yes"/>
      <point x="294" y="342"/>
      <point x="356" y="412"/>
      <point x="356" y="501" type="curve" smooth="yes"/>
      <point x="356" y="589"/>
      <point x="296" y="660"/>
      <point x="198" y="660" type="curve" smooth="yes"/>
      <point x="102" y="660"/>
      <point x="37" y="590"/>
      <point x="37" y="500" type="curve" smooth="yes"/>
      <point x="37" y="410"/>
      <point x="99" y="342"/>
    </contour>
    <contour>
      <point x="196" y="395" type="curve"/>
      <point x="139" y="395"/>
      <point x="96" y="434"/>
      <point x="96" y="501" type="curve" smooth="yes"/>
      <point x="96" y="569"/>
      <point x="139" y="607"/>
      <point x="197" y="607" type="curve" smooth="yes"/>
      <point x="254" y="607"/>
      <point x="296" y="569"/>
      <point x="296" y="500" type="curve" smooth="yes"/>
      <point x="296" y="433"/>
      <point x="254" y="395"/>
    </contour>
    <contour>
      <point x="-12" y="917" type="line"/>
      <point x="404" y="917" type="line"/>
      <point x="404" y="-213" type="line"/>
      <point x="-12" y="-213" type="line"/>
    </contour>
  </outline>
</glyph>
<glyph name="plusminus" format="1">
  <advance width="448"/>
  <unicode hex="00B1"/>
  <outline>
    <contour>
      <point x="51" y="259" type="line"/>
      <point x="200" y="259" type="line"/>
      <point x="200" y="113" type="line"/>
      <point x="253" y="113" type="line"/>
      <point x="253" y="259" type="line"/>
      <point x="398" y="259" type="line"/>
      <point x="398" y="313" type="line"/>
      <point x="253" y="313" type="line"/>
      <point x="253" y="460" type="line"/>
      <point x="200" y="460" type="line"/>
      <point x="200" y="313" type="line"/>
      <point x="51" y="313" type="line"/>
    </contour>
    <contour>
      <point x="51" y="0" type="line"/>
      <point x="398" y="0" type="line"/>
      <point x="398" y="53" type="line"/>
      <point x="51" y="53" type="line"/>
    </contour>
    <contour>
      <point x="-12" y="917" type="line"/>
      <point x="460" y="917" type="line"/>
      <point x="460" y="-213" type="line"/>
      <point x="-12" y="-213" type="line"/>
    </contour>
  </outline>
</glyph>
<glyph name="threesuperior" format="1">
  <advance width="338"/>
  <unicode hex="00B3"/>
  <outline>
    <contour>
      <point x="91" y="673" type="line"/>
      <point x="103" y="723" type="line"/>
      <point x="122" y="734"/>
      <point x="139" y="739"/>
      <point x="162" y="739" type="curve"/>
      <point x="202" y="739"/>
      <point x="226" y="719"/>
      <point x="226" y="687" type="curve" smooth="yes"/>
      <point x="226" y="649"/>
      <point x="196" y="626"/>
      <point x="136" y="623" type="curve"/>
      <point x="136" y="585" type="line"/>
      <point x="214" y="583"/>
      <point x="240" y="559"/>
      <point x="240" y="522" type="curve" smooth="yes"/>
      <point x="240" y="483"/>
      <point x="211" y="454"/>
      <point x="161" y="454" type="curve" smooth="yes"/>
      <point x="109" y="454"/>
      <point x="85" y="485"/>
      <point x="77" y="517" type="curve"/>
      <point x="35" y="505" type="line"/>
      <point x="44" y="445"/>
      <point x="91" y="408"/>
      <point x="159" y="408" type="curve" smooth="yes"/>
      <point x="237" y="408"/>
      <point x="303" y="444"/>
      <point x="303" y="516" type="curve" smooth="yes"/>
      <point x="303" y="557"/>
      <point x="281" y="597"/>
      <point x="214" y="607" type="curve"/>
      <point x="214" y="609" type="line"/>
      <point x="267" y="625"/>
      <point x="287" y="659"/>
      <point x="287" y="695" type="curve" smooth="yes"/>
      <point x="287" y="749"/>
      <point x="244" y="784"/>
      <point x="176" y="784" type="curve" smooth="yes"/>
      <point x="137" y="784"/>
      <point x="85" y="773"/>
      <point x="56" y="747" type="curve"/>
      <point x="46" y="678" type="line"/>
    </contour>
    <contour>
      <point x="-12" y="917" type="line"/>
      <point x="350" y="917" type="line"/>
      <point x="350" y="-213" type="line"/>
      <point x="-12" y="-213" type="line"/>
    </contour>
  </outline>
</glyph>
<glyph name="acute" format="1">
  <advance width="170"/>
  <unicode hex="00B4"/>
  <outline>
    <contour>
      <point x="10" y="520" type="line"/>
      <point x="-12" y="551" type="line"/>
      <point x="142" y="683" type="line"/>
      <point x="182" y="624" type="line"/>
    </contour>
  </outline>
</glyph>
<glyph name="mu" format="1">
  <advance width="568"/>
  <unicode hex="00B5"/>
  <outline>
    <contour>
      <point x="-12" y="917" type="line"/>
      <point x="580" y="917" type="line"/>
      <point x="580" y="-213" type="line"/>
      <point x="165" y="-213" type="line"/>
      <point x="165" y="14" type="line"/>
      <point x="187" y="-2"/>
      <point x="216" y="-10"/>
      <point x="248" y="-10" type="curve" smooth="yes"/>
      <point x="319" y="-10"/>
      <point x="374" y="27"/>
      <point x="403" y="82" type="curve"/>
      <point x="403" y="0" type="line"/>
      <point x="553" y="0" type="line"/>
      <point x="553" y="57" type="line"/>
      <point x="473" y="57" type="line"/>
      <point x="473" y="445" type="line"/>
      <point x="311" y="445" type="line"/>
      <point x="311" y="388" type="line"/>
      <point x="403" y="388" type="line"/>
      <point x="403" y="176" type="line" smooth="yes"/>
      <point x="403" y="113"/>
      <point x="348" y="47"/>
      <point x="271" y="47" type="curve" smooth="yes"/>
      <point x="208" y="47"/>
      <point x="165" y="84"/>
      <point x="165" y="180" type="curve" smooth="yes"/>
      <point x="165" y="445" type="line"/>
      <point x="17" y="445" type="line"/>
      <point x="17" y="388" type="line"/>
      <point x="94" y="388" type="line"/>
      <point x="94" y="-213" type="line"/>
      <point x="-12" y="-213" type="line"/>
    </contour>
  </outline>
</glyph>
<glyph name="paragraph" format="1">
  <advance width="613"/>
  <unicode hex="00B6"/>
  <outline>
    <contour>
      <point x="251" y="650" type="line" smooth="yes"/>
      <point x="100" y="650"/>
      <point x="28" y="575"/>
      <point x="28" y="484" type="curve" smooth="yes"/>
      <point x="28" y="357"/>
      <point x="122" y="310"/>
      <point x="245" y="310" type="curve" smooth="yes"/>
      <point x="302" y="310" type="line"/>
      <point x="302" y="0" type="line"/>
      <point x="370" y="0" type="line"/>
      <point x="370" y="588" type="line"/>
      <point x="433" y="588" type="line"/>
      <point x="433" y="0" type="line"/>
      <point x="500" y="0" type="line"/>
      <point x="500" y="588" type="line"/>
      <point x="576" y="588" type="line"/>
      <point x="576" y="650" type="line"/>
    </contour>
    <contour>
      <point x="-12" y="917" type="line"/>
      <point x="625" y="917" type="line"/>
      <point x="625" y="-213" type="line"/>
      <point x="-12" y="-213" type="line"/>
    </contour>
  </outline>
</glyph>
<glyph name="periodcentered" format="1">
  <advance width="215"/>
  <unicode hex="00B7"/>
  <outline>
    <contour>
      <point x="57" y="256" type="line"/>
      <point x="154" y="256" type="line"/>
      <point x="154" y="358" type="line"/>
      <point x="57" y="358" type="line"/>
    </contour>
    <contour>
      <point x="-12" y="917" type="line"/>
      <point x="227" y="917" type="line"/>
      <point x="227" y="-213" type="line"/>
      <point x="-12" y="-213" type="line"/>
    </contour>
  </outline>
</glyph>
<glyph name="cedilla" format="1">
  <advance width="180"/>
  <unicode hex="00B8"/>
  <outline>
    <contour>
      <point x="192" y="-125" type="curve" smooth="yes"/>
      <point x="192" y="-185"/>
      <point x="142" y="-209"/>
      <point x="84" y="-209" type="curve" smooth="yes"/>
      <point x="46" y="-209"/>
      <point x="12" y="-199"/>
      <point x="-12" y="-179" type="curve"/>
      <point x="5" y="-138" type="line"/>
      <point x="22" y="-151"/>
      <point x="48" y="-161"/>
      <point x="80" y="-161" type="curve" smooth="yes"/>
      <point x="110" y="-161"/>
      <point x="131" y="-150"/>
      <point x="131" y="-120" type="curve" smooth="yes"/>
      <point x="131" y="-87"/>
      <point x="105" y="-80"/>
      <point x="73" y="-80" type="curve" smooth="yes"/>
      <point x="43" y="-80" type="line"/>
      <point x="43" y="6" type="line"/>
      <point x="95" y="6" type="line"/>
      <point x="95" y="-47" type="line"/>
      <point x="103" y="-47" type="line" smooth="yes"/>
      <point x="165" y="-47"/>
      <point x="192" y="-81"/>
    </contour>
  </outline>
</glyph>
<glyph name="onesuperior" format="1">
  <advance width="256"/>
  <unicode hex="00B9"/>
  <outline>
    <contour>
      <point x="33" y="734" type="line"/>
      <point x="108" y="734" type="line"/>
      <point x="108" y="460" type="line"/>
      <point x="33" y="460" type="line"/>
      <point x="33" y="415" type="line"/>
      <point x="238" y="415" type="line"/>
      <point x="238" y="460" type="line"/>
      <point x="166" y="460" type="line"/>
      <point x="166" y="779" type="line"/>
      <point x="33" y="779" type="line"/>
    </contour>
    <contour>
      <point x="-12" y="917" type="line"/>
      <point x="268" y="917" type="line"/>
      <point x="268" y="-213" type="line"/>
      <point x="-12" y="-213" type="line"/>
    </contour>
  </outline>
</glyph>
<glyph name="guillemotright" format="1">
  <advance width="447"/>
  <unicode hex="00BB"/>
  <outline>
    <contour>
      <point x="270" y="25" type="line"/>
      <point x="408" y="271" type="line"/>
      <point x="270" y="511" type="line"/>
      <point x="210" y="511" type="line"/>
      <point x="339" y="271" type="line"/>
      <point x="210" y="25" type="line"/>
    </contour>
    <contour>
      <point x="106" y="25" type="line"/>
      <point x="244" y="271" type="line"/>
      <point x="106" y="511" type="line"/>
      <point x="46" y="511" type="line"/>
      <point x="174" y="271" type="line"/>
      <point x="46" y="25" type="line"/>
    </contour>
    <contour>
      <point x="-12" y="917" type="line"/>
      <point x="459" y="917" type="line"/>
      <point x="459" y="-213" type="line"/>
      <point x="-12" y="-213" type="line"/>
    </contour>
  </outline>
</glyph>
<glyph name="threequarters" format="1">
  <advance width="730"/>
  <unicode hex="00BE"/>
  <outline>
    <contour>
      <point x="95" y="549" type="line"/>
      <point x="106" y="599" type="line"/>
      <point x="125" y="610"/>
      <point x="143" y="615"/>
      <point x="166" y="615" type="curve"/>
      <point x="206" y="615"/>
      <point x="229" y="595"/>
      <point x="229" y="563" type="curve" smooth="yes"/>
      <point x="229" y="525"/>
      <point x="200" y="502"/>
      <point x="140" y="499" type="curve"/>
      <point x="140" y="461" type="line"/>
      <point x="217" y="459"/>
      <point x="244" y="435"/>
      <point x="244" y="398" type="curve" smooth="yes"/>
      <point x="244" y="359"/>
      <point x="215" y="330"/>
      <point x="165" y="330" type="curve" smooth="yes"/>
      <point x="113" y="330"/>
      <point x="89" y="361"/>
      <point x="81" y="393" type="curve"/>
      <point x="39" y="381" type="line"/>
      <point x="47" y="321"/>
      <point x="95" y="284"/>
      <point x="163" y="284" type="curve" smooth="yes"/>
      <point x="241" y="284"/>
      <point x="307" y="320"/>
      <point x="307" y="392" type="curve" smooth="yes"/>
      <point x="307" y="433"/>
      <point x="285" y="473"/>
      <point x="217" y="483" type="curve"/>
      <point x="217" y="485" type="line"/>
      <point x="271" y="501"/>
      <point x="291" y="535"/>
      <point x="291" y="571" type="curve" smooth="yes"/>
      <point x="291" y="625"/>
      <point x="247" y="660"/>
      <point x="180" y="660" type="curve" smooth="yes"/>
      <point x="141" y="660"/>
      <point x="89" y="649"/>
      <point x="59" y="623" type="curve"/>
      <point x="50" y="554" type="line"/>
    </contour>
    <contour>
      <point x="539" y="650" type="line"/>
      <point x="364" y="337" type="line"/>
      <point x="167" y="0" type="line"/>
      <point x="221" y="0" type="line"/>
      <point x="403" y="325" type="line"/>
      <point x="593" y="650" type="line"/>
    </contour>
    <contour>
      <point x="581" y="-1" type="line"/>
      <point x="639" y="-1" type="line"/>
      <point x="639" y="89" type="line"/>
      <point x="696" y="89" type="line"/>
      <point x="701" y="133" type="line"/>
      <point x="639" y="133" type="line"/>
      <point x="639" y="364" type="line"/>
      <point x="526" y="364" type="line"/>
      <point x="395" y="132" type="line"/>
      <point x="401" y="89" type="line"/>
      <point x="581" y="89" type="line"/>
    </contour>
    <contour>
      <point x="554" y="319" type="line"/>
      <point x="581" y="319" type="line"/>
      <point x="581" y="133" type="line"/>
      <point x="448" y="133" type="line"/>
    </contour>
    <contour>
      <point x="-12" y="917" type="line"/>
      <point x="742" y="917" type="line"/>
      <point x="742" y="-213" type="line"/>
      <point x="-12" y="-213" type="line"/>
    </contour>
  </outline>
</glyph>
<glyph name="questiondown" format="1">
  <advance width="437"/>
  <unicode hex="00BF"/>
  <outline>
    <contour>
      <point x="336" y="-11" type="line"/>
      <point x="323" y="-108" type="line"/>
      <point x="293" y="-133"/>
      <point x="257" y="-146"/>
      <point x="215" y="-146" type="curve" smooth="yes"/>
      <point x="142" y="-146"/>
      <point x="104" y="-112"/>
      <point x="104" y="-66" type="curve" smooth="yes"/>
      <point x="104" y="41"/>
      <point x="305" y="63"/>
      <point x="305" y="182" type="curve" smooth="yes"/>
      <point x="305" y="234"/>
      <point x="268" y="273"/>
      <point x="177" y="267" type="curve"/>
      <point x="177" y="217" type="line"/>
      <point x="212" y="217"/>
      <point x="230" y="202"/>
      <point x="230" y="177" type="curve" smooth="yes"/>
      <point x="230" y="89"/>
      <point x="26" y="58"/>
      <point x="26" y="-76" type="curve" smooth="yes"/>
      <point x="26" y="-160"/>
      <point x="108" y="-211"/>
      <point x="210" y="-211" type="curve" smooth="yes"/>
      <point x="278" y="-211"/>
      <point x="346" y="-177"/>
      <point x="386" y="-137" type="curve"/>
      <point x="394" y="-16" type="line"/>
    </contour>
    <contour>
      <point x="275" y="446" type="line"/>
      <point x="186" y="446" type="line"/>
      <point x="186" y="349" type="line"/>
      <point x="275" y="349" type="line"/>
    </contour>
    <contour>
      <point x="449" y="-213" type="line"/>
      <point x="-12" y="-213" type="line"/>
      <point x="-12" y="917" type="line"/>
      <point x="449" y="917" type="line"/>
    </contour>
  </outline>
</glyph>
<glyph name="Acircumflex" format="1">
  <advance width="622"/>
  <unicode hex="00C2"/>
  <outline>
    <contour>
      <point x="-12" y="917" type="line"/>
      <point x="-12" y="64" type="line"/>
      <point x="67" y="64" type="line"/>
      <point x="260" y="586" type="line"/>
      <point x="156" y="586" type="line"/>
      <point x="156" y="650" type="line"/>
      <point x="342" y="650" type="line"/>
      <point x="555" y="64" type="line"/>
      <point x="634" y="64" type="line"/>
      <point x="634" y="917" type="line"/>
    </contour>
    <contour>
      <point x="316" y="544" type="line"/>
      <point x="311" y="544" type="line"/>
      <point x="203" y="246" type="line"/>
      <point x="422" y="246" type="line"/>
    </contour>
    <contour>
      <point x="634" y="-213" type="line"/>
      <point x="634" y="0" type="line"/>
      <point x="409" y="0" type="line"/>
      <point x="409" y="64" type="line"/>
      <point x="486" y="64" type="line"/>
      <point x="442" y="189" type="line"/>
      <point x="182" y="189" type="line"/>
      <point x="136" y="64" type="line"/>
      <point x="216" y="64" type="line"/>
      <point x="216" y="0" type="line"/>
      <point x="-12" y="0" type="line"/>
      <point x="-12" y="-213" type="line"/>
    </contour>
    <contour>
      <point x="426" y="702" type="line"/>
      <point x="306" y="764" type="line"/>
      <point x="190" y="701" type="line"/>
      <point x="171" y="734" type="line"/>
      <point x="298" y="827" type="line"/>
      <point x="319" y="827" type="line"/>
      <point x="445" y="737" type="line"/>
    </contour>
  </outline>
</glyph>
<glyph name="Atilde" format="1">
  <advance width="622"/>
  <unicode hex="00C3"/>
  <outline>
    <contour>
      <point x="-12" y="917" type="line"/>
      <point x="-12" y="64" type="line"/>
      <point x="67" y="64" type="line"/>
      <point x="260" y="586" type="line"/>
      <point x="156" y="586" type="line"/>
      <point x="156" y="650" type="line"/>
      <point x="342" y="650" type="line"/>
      <point x="555" y="64" type="line"/>
      <point x="634" y="64" type="line"/>
      <point x="634" y="917" type="line"/>
    </contour>
    <contour>
      <point x="316" y="544" type="line"/>
      <point x="311" y="544" type="line"/>
      <point x="203" y="246" type="line"/>
      <point x="422" y="246" type="line"/>
    </contour>
    <contour>
      <point x="634" y="-213" type="line"/>
      <point x="634" y="0" type="line"/>
      <point x="409" y="0" type="line"/>
      <point x="409" y="64" type="line"/>
      <point x="486" y="64" type="line"/>
      <point x="442" y="189" type="line"/>
      <point x="182" y="189" type="line"/>
      <point x="136" y="64" type="line"/>
      <point x="216" y="64" type="line"/>
      <point x="216" y="0" type="line"/>
      <point x="-12" y="0" type="line"/>
      <point x="-12" y="-213" type="line"/>
    </contour>
    <contour>
      <point x="442" y="798" type="line"/>
      <point x="432" y="744"/>
      <point x="412" y="709"/>
      <point x="364" y="709" type="curve" smooth="yes"/>
      <point x="313" y="709"/>
      <point x="280" y="744"/>
      <point x="241" y="744" type="curve" smooth="yes"/>
      <point x="222" y="744"/>
      <point x="201" y="737"/>
      <point x="191" y="705" type="curve"/>
      <point x="158" y="718" type="line"/>
      <point x="163" y="752"/>
      <point x="189" y="800"/>
      <point x="240" y="800" type="curve" smooth="yes"/>
      <point x="284" y="800"/>
      <point x="311" y="765"/>
      <point x="359" y="765" type="curve" smooth="yes"/>
      <point x="377" y="765"/>
      <point x="395" y="770"/>
      <point x="406" y="807" type="curve"/>
    </contour>
  </outline>
</glyph>
<glyph name="Ccedilla" format="1">
  <advance width="642"/>
  <unicode hex="00C7"/>
  <outline>
    <contour>
      <point x="-12" y="-213" type="line"/>
      <point x="654" y="-213" type="line"/>
      <point x="654" y="917" type="line"/>
      <point x="-12" y="917" type="line"/>
    </contour>
    <contour>
      <point x="462" y="-125" type="curve" smooth="yes"/>
      <point x="462" y="-185"/>
      <point x="412" y="-209"/>
      <point x="354" y="-209" type="curve" smooth="yes"/>
      <point x="316" y="-209"/>
      <point x="281" y="-199"/>
      <point x="258" y="-179" type="curve"/>
      <point x="275" y="-138" type="line"/>
      <point x="292" y="-151"/>
      <point x="318" y="-161"/>
      <point x="349" y="-161" type="curve" smooth="yes"/>
      <point x="380" y="-161"/>
      <point x="400" y="-150"/>
      <point x="400" y="-120" type="curve" smooth="yes"/>
      <point x="400" y="-87"/>
      <point x="374" y="-80"/>
      <point x="342" y="-80" type="curve" smooth="yes"/>
      <point x="312" y="-80" type="line"/>
      <point x="312" y="-7" type="line"/>
      <point x="147" y="13"/>
      <point x="38" y="147"/>
      <point x="38" y="321" type="curve" smooth="yes"/>
      <point x="38" y="501"/>
      <point x="158" y="660"/>
      <point x="347" y="660" type="curve" smooth="yes"/>
      <point x="455" y="660"/>
      <point x="524" y="629"/>
      <point x="577" y="584" type="curve"/>
      <point x="595" y="459" type="line"/>
      <point x="532" y="453" type="line"/>
      <point x="514" y="548" type="line"/>
      <point x="472" y="576"/>
      <point x="426" y="594"/>
      <point x="353" y="594" type="curve" smooth="yes"/>
      <point x="211" y="594"/>
      <point x="115" y="482"/>
      <point x="115" y="324" type="curve" smooth="yes"/>
      <point x="115" y="163"/>
      <point x="211" y="56"/>
      <point x="366" y="56" type="curve" smooth="yes"/>
      <point x="424" y="56"/>
      <point x="467" y="64"/>
      <point x="509" y="85" type="curve"/>
      <point x="528" y="181" type="line"/>
      <point x="590" y="175" type="line"/>
      <point x="573" y="50" type="line"/>
      <point x="523" y="10"/>
      <point x="453" y="-8"/>
      <point x="365" y="-10" type="curve"/>
      <point x="365" y="-47" type="line"/>
      <point x="373" y="-47" type="line" smooth="yes"/>
      <point x="434" y="-47"/>
      <point x="462" y="-81"/>
    </contour>
  </outline>
</glyph>
<glyph name="Egrave" format="1">
  <advance width="584"/>
  <unicode hex="00C8"/>
  <outline>
    <contour>
      <point x="385" y="703" type="line"/>
      <point x="187" y="745" type="line"/>
      <point x="204" y="813" type="line"/>
      <point x="395" y="740" type="line"/>
    </contour>
    <contour>
      <point x="40" y="0" type="line"/>
      <point x="40" y="64" type="line"/>
      <point x="122" y="64" type="line"/>
      <point x="122" y="586" type="line"/>
      <point x="40" y="586" type="line"/>
      <point x="40" y="650" type="line"/>
      <point x="515" y="650" type="line"/>
      <point x="535" y="466" type="line"/>
      <point x="471" y="459" type="line"/>
      <point x="451" y="586" type="line"/>
      <point x="195" y="586" type="line"/>
      <point x="195" y="362" type="line"/>
      <point x="502" y="362" type="line"/>
      <point x="502" y="298" type="line"/>
      <point x="195" y="298" type="line"/>
      <point x="195" y="64" type="line"/>
      <point x="460" y="64" type="line"/>
      <point x="480" y="191" type="line"/>
      <point x="543" y="184" type="line"/>
      <point x="524" y="0" type="line"/>
    </contour>
    <contour>
      <point x="-12" y="-213" type="line"/>
      <point x="596" y="-213" type="line"/>
      <point x="596" y="917" type="line"/>
      <point x="-12" y="917" type="line"/>
    </contour>
  </outline>
</glyph>
<glyph name="Edieresis" format="1">
  <advance width="584"/>
  <unicode hex="00CB"/>
  <outline>
    <contour>
      <point x="194" y="803" type="line"/>
      <point x="275" y="803" type="line"/>
      <point x="275" y="718" type="line"/>
      <point x="194" y="718" type="line"/>
    </contour>
    <contour>
      <point x="366" y="803" type="line"/>
      <point x="446" y="803" type="line"/>
      <point x="446" y="718" type="line"/>
      <point x="366" y="718" type="line"/>
    </contour>
    <contour>
      <point x="40" y="0" type="line"/>
      <point x="40" y="64" type="line"/>
      <point x="122" y="64" type="line"/>
      <point x="122" y="586" type="line"/>
      <point x="40" y="586" type="line"/>
      <point x="40" y="650" type="line"/>
      <point x="515" y="650" type="line"/>
      <point x="535" y="466" type="line"/>
      <point x="471" y="459" type="line"/>
      <point x="451" y="586" type="line"/>
      <point x="195" y="586" type="line"/>
      <point x="195" y="362" type="line"/>
      <point x="502" y="362" type="line"/>
      <point x="502" y="298" type="line"/>
      <point x="195" y="298" type="line"/>
      <point x="195" y="64" type="line"/>
      <point x="460" y="64" type="line"/>
      <point x="480" y="191" type="line"/>
      <point x="543" y="184" type="line"/>
      <point x="524" y="0" type="line"/>
    </contour>
    <contour>
      <point x="-12" y="-213" type="line"/>
      <point x="596" y="-213" type="line"/>
      <point x="596" y="917" type="line"/>
      <point x="-12" y="917" type="line"/>
    </contour>
  </outline>
</glyph>
<glyph name="Icircumflex" format="1">
  <advance width="318"/>
  <unicode hex="00CE"/>
  <outline>
    <contour>
      <point x="40" y="0" type="line"/>
      <point x="40" y="64" type="line"/>
      <point x="122" y="64" type="line"/>
      <point x="122" y="586" type="line"/>
      <point x="40" y="586" type="line"/>
      <point x="40" y="650" type="line"/>
      <point x="277" y="650" type="line"/>
      <point x="277" y="586" type="line"/>
      <point x="196" y="586" type="line"/>
      <point x="196" y="64" type="line"/>
      <point x="277" y="64" type="line"/>
      <point x="277" y="0" type="line"/>
    </contour>
    <contour>
      <point x="-12" y="-213" type="line"/>
      <point x="330" y="-213" type="line"/>
      <point x="330" y="917" type="line"/>
      <point x="-12" y="917" type="line"/>
    </contour>
    <contour>
      <point x="278" y="702" type="line"/>
      <point x="158" y="764" type="line"/>
      <point x="42" y="701" type="line"/>
      <point x="23" y="734" type="line"/>
      <point x="150" y="827" type="line"/>
      <point x="171" y="827" type="line"/>
      <point x="297" y="737" type="line"/>
    </contour>
  </outline>
</glyph>
<glyph name="Idieresis" format="1">
  <advance width="318"/>
  <unicode hex="00CF"/>
  <outline>
    <contour>
      <point x="40" y="0" type="line"/>
      <point x="40" y="64" type="line"/>
      <point x="122" y="64" type="line"/>
      <point x="122" y="586" type="line"/>
      <point x="40" y="586" type="line"/>
      <point x="40" y="650" type="line"/>
      <point x="277" y="650" type="line"/>
      <point x="277" y="586" type="line"/>
      <point x="196" y="586" type="line"/>
      <point x="196" y="64" type="line"/>
      <point x="277" y="64" type="line"/>
      <point x="277" y="0" type="line"/>
    </contour>
    <contour>
      <point x="-12" y="-213" type="line"/>
      <point x="330" y="-213" type="line"/>
      <point x="330" y="917" type="line"/>
      <point x="-12" y="917" type="line"/>
    </contour>
    <contour>
      <point x="36" y="803" type="line"/>
      <point x="117" y="803" type="line"/>
      <point x="117" y="718" type="line"/>
      <point x="36" y="718" type="line"/>
    </contour>
    <contour>
      <point x="208" y="803" type="line"/>
      <point x="288" y="803" type="line"/>
      <point x="288" y="718" type="line"/>
      <point x="208" y="718" type="line"/>
    </contour>
  </outline>
</glyph>
<glyph name="Eth" format="1">
  <advance width="701"/>
  <unicode hex="00D0"/>
  <outline>
    <contour>
      <point x="-12" y="-213" type="line"/>
      <point x="713" y="-213" type="line"/>
      <point x="713" y="917" type="line"/>
      <point x="-12" y="917" type="line"/>
    </contour>
    <contour>
      <point x="663" y="326" type="curve" smooth="yes"/>
      <point x="663" y="135"/>
      <point x="539" y="0"/>
      <point x="334" y="0" type="curve" smooth="yes"/>
      <point x="40" y="0" type="line"/>
      <point x="40" y="63" type="line"/>
      <point x="122" y="63" type="line"/>
      <point x="122" y="308" type="line"/>
      <point x="43" y="308" type="line"/>
      <point x="43" y="370" type="line"/>
      <point x="122" y="370" type="line"/>
      <point x="122" y="587" type="line"/>
      <point x="40" y="587" type="line"/>
      <point x="40" y="650" type="line"/>
      <point x="331" y="650" type="line" smooth="yes"/>
      <point x="543" y="650"/>
      <point x="663" y="514"/>
    </contour>
    <contour>
      <point x="585" y="325" type="curve" smooth="yes"/>
      <point x="585" y="482"/>
      <point x="495" y="587"/>
      <point x="330" y="587" type="curve" smooth="yes"/>
      <point x="195" y="587" type="line"/>
      <point x="195" y="370" type="line"/>
      <point x="330" y="370" type="line"/>
      <point x="330" y="308" type="line"/>
      <point x="195" y="308" type="line"/>
      <point x="195" y="63" type="line"/>
      <point x="330" y="63" type="line" smooth="yes"/>
      <point x="495" y="63"/>
      <point x="585" y="164"/>
    </contour>
  </outline>
</glyph>
<glyph name="Ntilde" format="1">
  <advance width="733"/>
  <unicode hex="00D1"/>
  <outline>
    <contour>
      <point x="504" y="798" type="line"/>
      <point x="494" y="744"/>
      <point x="474" y="709"/>
      <point x="426" y="709" type="curve" smooth="yes"/>
      <point x="375" y="709"/>
      <point x="342" y="744"/>
      <point x="303" y="744" type="curve" smooth="yes"/>
      <point x="284" y="744"/>
      <point x="263" y="737"/>
      <point x="253" y="705" type="curve"/>
      <point x="220" y="718" type="line"/>
      <point x="225" y="752"/>
      <point x="251" y="800"/>
      <point x="302" y="800" type="curve" smooth="yes"/>
      <point x="346" y="800"/>
      <point x="373" y="765"/>
      <point x="421" y="765" type="curve" smooth="yes"/>
      <point x="439" y="765"/>
      <point x="457" y="770"/>
      <point x="468" y="807" type="curve"/>
    </contour>
    <contour>
      <point x="620" y="586" type="line"/>
      <point x="620" y="0" type="line"/>
      <point x="573" y="0" type="line"/>
      <point x="196" y="512" type="line"/>
      <point x="192" y="512" type="line"/>
      <point x="192" y="64" type="line"/>
      <point x="295" y="64" type="line"/>
      <point x="295" y="0" type="line"/>
      <point x="47" y="0" type="line"/>
      <point x="47" y="64" type="line"/>
      <point x="122" y="64" type="line"/>
      <point x="122" y="586" type="line"/>
      <point x="36" y="586" type="line"/>
      <point x="36" y="650" type="line"/>
      <point x="176" y="650" type="line"/>
      <point x="546" y="149" type="line"/>
      <point x="550" y="149" type="line"/>
      <point x="550" y="586" type="line"/>
      <point x="452" y="586" type="line"/>
      <point x="452" y="650" type="line"/>
      <point x="701" y="650" type="line"/>
      <point x="701" y="586" type="line"/>
    </contour>
    <contour>
      <point x="-12" y="-213" type="line"/>
      <point x="745" y="-213" type="line"/>
      <point x="745" y="917" type="line"/>
      <point x="-12" y="917" type="line"/>
    </contour>
  </outline>
</glyph>
<glyph name="multiply" format="1">
  <advance width="385"/>
  <unicode hex="00D7"/>
  <outline>
    <contour>
      <point x="87" y="131" type="line"/>
      <point x="192" y="237" type="line"/>
      <point x="296" y="133" type="line"/>
      <point x="333" y="172" type="line"/>
      <point x="230" y="274" type="line"/>
      <point x="332" y="377" type="line"/>
      <point x="295" y="415" type="line"/>
      <point x="192" y="312" type="line"/>
      <point x="88" y="417" type="line"/>
      <point x="51" y="379" type="line"/>
      <point x="155" y="274" type="line"/>
      <point x="50" y="169" type="line"/>
    </contour>
    <contour>
      <point x="-12" y="917" type="line"/>
      <point x="397" y="917" type="line"/>
      <point x="397" y="-213" type="line"/>
      <point x="-12" y="-213" type="line"/>
    </contour>
  </outline>
</glyph>
<glyph name="Oslash" format="1">
  <advance width="725"/>
  <unicode hex="00D8"/>
  <outline>
    <contour>
      <point x="-12" y="-213" type="line"/>
      <point x="737" y="-213" type="line"/>
      <point x="737" y="917" type="line"/>
      <point x="-12" y="917" type="line"/>
    </contour>
    <contour>
      <point x="688" y="325" type="curve" smooth="yes"/>
      <point x="688" y="141"/>
      <point x="556" y="-10"/>
      <point x="360" y="-10" type="curve" smooth="yes"/>
      <point x="281" y="-10"/>
      <point x="213" y="15"/>
      <point x="160" y="56" type="curve"/>
      <point x="110" y="0" type="line"/>
      <point x="37" y="0" type="line"/>
      <point x="120" y="94" type="line"/>
      <point x="66" y="154"/>
      <point x="37" y="235"/>
      <point x="37" y="325" type="curve" smooth="yes"/>
      <point x="37" y="512"/>
      <point x="170" y="660"/>
      <point x="362" y="660" type="curve" smooth="yes"/>
      <point x="440" y="660"/>
      <point x="507" y="635"/>
      <point x="560" y="594" type="curve"/>
      <point x="610" y="650" type="line"/>
      <point x="689" y="650" type="line"/>
      <point x="604" y="555" type="line"/>
      <point x="657" y="495"/>
      <point x="688" y="414"/>
    </contour>
    <contour>
      <point x="609" y="324" type="curve" smooth="yes"/>
      <point x="609" y="392"/>
      <point x="590" y="453"/>
      <point x="556" y="499" type="curve"/>
      <point x="207" y="109" type="line"/>
      <point x="247" y="75"/>
      <point x="300" y="56"/>
      <point x="364" y="56" type="curve" smooth="yes"/>
      <point x="517" y="56"/>
      <point x="609" y="173"/>
    </contour>
    <contour>
      <point x="362" y="594" type="curve" smooth="yes"/>
      <point x="208" y="594"/>
      <point x="116" y="475"/>
      <point x="116" y="326" type="curve" smooth="yes"/>
      <point x="116" y="260"/>
      <point x="135" y="198"/>
      <point x="169" y="151" type="curve"/>
      <point x="515" y="542" type="line"/>
      <point x="475" y="575"/>
      <point x="423" y="594"/>
    </contour>
  </outline>
</glyph>
<glyph name="Ucircumflex" format="1">
  <advance width="714"/>
  <unicode hex="00DB"/>
  <outline>
    <contour>
      <point x="615" y="586" type="line"/>
      <point x="615" y="267" type="line" smooth="yes"/>
      <point x="615" y="129"/>
      <point x="555" y="-10"/>
      <point x="355" y="-10" type="curve" smooth="yes"/>
      <point x="162" y="-10"/>
      <point x="101" y="116"/>
      <point x="101" y="256" type="curve" smooth="yes"/>
      <point x="101" y="586" type="line"/>
      <point x="34" y="586" type="line"/>
      <point x="34" y="650" type="line"/>
      <point x="265" y="650" type="line"/>
      <point x="265" y="586" type="line"/>
      <point x="175" y="586" type="line"/>
      <point x="175" y="258" type="line" smooth="yes"/>
      <point x="175" y="130"/>
      <point x="234" y="56"/>
      <point x="359" y="56" type="curve" smooth="yes"/>
      <point x="480" y="56"/>
      <point x="546" y="128"/>
      <point x="546" y="267" type="curve" smooth="yes"/>
      <point x="546" y="586" type="line"/>
      <point x="453" y="586" type="line"/>
      <point x="453" y="650" type="line"/>
      <point x="678" y="650" type="line"/>
      <point x="678" y="586" type="line"/>
    </contour>
    <contour>
      <point x="-12" y="-213" type="line"/>
      <point x="726" y="-213" type="line"/>
      <point x="726" y="917" type="line"/>
      <point x="-12" y="917" type="line"/>
    </contour>
    <contour>
      <point x="476" y="702" type="line"/>
      <point x="356" y="764" type="line"/>
      <point x="240" y="701" type="line"/>
      <point x="221" y="734" type="line"/>
      <point x="348" y="827" type="line"/>
      <point x="369" y="827" type="line"/>
      <point x="495" y="737" type="line"/>
    </contour>
  </outline>
</glyph>
<glyph name="Yacute" format="1">
  <advance width="570"/>
  <unicode hex="00DD"/>
  <outline>
    <contour>
      <point x="232" y="586" type="line"/>
      <point x="143" y="586" type="line"/>
      <point x="288" y="316" type="line"/>
      <point x="293" y="316" type="line"/>
      <point x="431" y="586" type="line"/>
      <point x="342" y="586" type="line"/>
      <point x="342" y="650" type="line"/>
      <point x="582" y="650" type="line"/>
      <point x="582" y="917" type="line"/>
      <point x="-12" y="917" type="line"/>
      <point x="-12" y="650" type="line"/>
      <point x="232" y="650" type="line"/>
    </contour>
    <contour>
      <point x="582" y="-213" type="line"/>
      <point x="582" y="586" type="line"/>
      <point x="505" y="586" type="line"/>
      <point x="323" y="248" type="line"/>
      <point x="323" y="64" type="line"/>
      <point x="438" y="64" type="line"/>
      <point x="438" y="0" type="line"/>
      <point x="139" y="0" type="line"/>
      <point x="139" y="64" type="line"/>
      <point x="250" y="64" type="line"/>
      <point x="250" y="249" type="line"/>
      <point x="60" y="586" type="line"/>
      <point x="-12" y="586" type="line"/>
      <point x="-12" y="-213" type="line"/>
    </contour>
    <contour>
      <point x="226" y="703" type="line"/>
      <point x="215" y="740" type="line"/>
      <point x="406" y="813" type="line"/>
      <point x="423" y="745" type="line"/>
    </contour>
  </outline>
</glyph>
<glyph name="germandbls" format="1">
  <advance width="648"/>
  <unicode hex="00DF"/>
  <outline>
    <contour>
      <point x="631" y="128" type="curve" smooth="yes"/>
      <point x="631" y="306"/>
      <point x="355" y="220"/>
      <point x="355" y="328" type="curve" smooth="yes"/>
      <point x="355" y="430"/>
      <point x="567" y="418"/>
      <point x="567" y="554" type="curve" smooth="yes"/>
      <point x="567" y="636"/>
      <point x="490" y="698"/>
      <point x="349" y="698" type="curve" smooth="yes"/>
      <point x="193" y="698"/>
      <point x="101" y="619"/>
      <point x="101" y="491" type="curve" smooth="yes"/>
      <point x="101" y="445" type="line"/>
      <point x="37" y="445" type="line"/>
      <point x="37" y="388" type="line"/>
      <point x="101" y="388" type="line"/>
      <point x="101" y="57" type="line"/>
      <point x="24" y="57" type="line"/>
      <point x="24" y="0" type="line"/>
      <point x="172" y="0" type="line"/>
      <point x="172" y="486" type="line" smooth="yes"/>
      <point x="172" y="571"/>
      <point x="212" y="639"/>
      <point x="344" y="639" type="curve" smooth="yes"/>
      <point x="439" y="639"/>
      <point x="496" y="606"/>
      <point x="496" y="550" type="curve" smooth="yes"/>
      <point x="496" y="439"/>
      <point x="279" y="463"/>
      <point x="279" y="320" type="curve" smooth="yes"/>
      <point x="279" y="157"/>
      <point x="559" y="246"/>
      <point x="559" y="122" type="curve" smooth="yes"/>
      <point x="559" y="72"/>
      <point x="507" y="48"/>
      <point x="446" y="48" type="curve" smooth="yes"/>
      <point x="408" y="48"/>
      <point x="367" y="53"/>
      <point x="339" y="73" type="curve"/>
      <point x="342" y="129" type="line"/>
      <point x="285" y="135" type="line"/>
      <point x="272" y="34" type="line"/>
      <point x="311" y="6"/>
      <point x="386" y="-10"/>
      <point x="451" y="-10" type="curve" smooth="yes"/>
      <point x="552" y="-10"/>
      <point x="631" y="41"/>
    </contour>
    <contour>
      <point x="-12" y="917" type="line"/>
      <point x="660" y="917" type="line"/>
      <point x="660" y="-213" type="line"/>
      <point x="-12" y="-213" type="line"/>
    </contour>
  </outline>
</glyph>
<glyph name="atilde" format="1">
  <advance width="479"/>
  <unicode hex="00E3"/>
  <outline>
    <contour>
      <point x="-12" y="-213" type="line"/>
      <point x="491" y="-213" type="line"/>
      <point x="491" y="917" type="line"/>
      <point x="-12" y="917" type="line"/>
    </contour>
    <contour>
      <point x="79" y="411" type="line"/>
      <point x="125" y="442"/>
      <point x="178" y="454"/>
      <point x="236" y="454" type="curve" smooth="yes"/>
      <point x="339" y="454"/>
      <point x="395" y="405"/>
      <point x="395" y="305" type="curve" smooth="yes"/>
      <point x="395" y="93" type="line" smooth="yes"/>
      <point x="395" y="60"/>
      <point x="407" y="45"/>
      <point x="433" y="45" type="curve" smooth="yes"/>
      <point x="442" y="45"/>
      <point x="454" y="47"/>
      <point x="463" y="51" type="curve"/>
      <point x="464" y="5" type="line"/>
      <point x="448" y="-4"/>
      <point x="427" y="-10"/>
      <point x="406" y="-10" type="curve" smooth="yes"/>
      <point x="354" y="-10"/>
      <point x="326" y="25"/>
      <point x="325" y="80" type="curve" smooth="yes"/>
      <point x="325" y="82" type="line"/>
      <point x="297" y="34"/>
      <point x="245" y="-10"/>
      <point x="173" y="-10" type="curve" smooth="yes"/>
      <point x="114" y="-10"/>
      <point x="38" y="20"/>
      <point x="38" y="115" type="curve" smooth="yes"/>
      <point x="38" y="227"/>
      <point x="146" y="252"/>
      <point x="246" y="252" type="curve" smooth="yes"/>
      <point x="273" y="252"/>
      <point x="301" y="250"/>
      <point x="325" y="248" type="curve"/>
      <point x="325" y="288" type="line" smooth="yes"/>
      <point x="325" y="352"/>
      <point x="304" y="396"/>
      <point x="224" y="396" type="curve" smooth="yes"/>
      <point x="194" y="396"/>
      <point x="165" y="391"/>
      <point x="138" y="378" type="curve"/>
      <point x="121" y="301" type="line"/>
      <point x="63" y="308" type="line"/>
    </contour>
    <contour>
      <point x="325" y="167" type="curve"/>
      <point x="325" y="201" type="line"/>
      <point x="300" y="203"/>
      <point x="272" y="206"/>
      <point x="242" y="206" type="curve" smooth="yes"/>
      <point x="176" y="206"/>
      <point x="111" y="192"/>
      <point x="111" y="123" type="curve" smooth="yes"/>
      <point x="111" y="66"/>
      <point x="155" y="48"/>
      <point x="194" y="48" type="curve" smooth="yes"/>
      <point x="256" y="48"/>
      <point x="320" y="94"/>
    </contour>
    <contour>
      <point x="368" y="646" type="line"/>
      <point x="359" y="592"/>
      <point x="337" y="553"/>
      <point x="291" y="553" type="curve" smooth="yes"/>
      <point x="239" y="553"/>
      <point x="205" y="592"/>
      <point x="168" y="592" type="curve" smooth="yes"/>
      <point x="149" y="592"/>
      <point x="127" y="581"/>
      <point x="117" y="549" type="curve"/>
      <point x="84" y="561" type="line"/>
      <point x="89" y="596"/>
      <point x="114" y="649"/>
      <point x="165" y="649" type="curve" smooth="yes"/>
      <point x="210" y="649"/>
      <point x="237" y="612"/>
      <point x="285" y="612" type="curve" smooth="yes"/>
      <point x="303" y="612"/>
      <point x="321" y="619"/>
      <point x="332" y="655" type="curve"/>
    </contour>
  </outline>
</glyph>
<glyph name="aring" format="1">
  <advance width="479"/>
  <unicode hex="00E5"/>
  <outline>
    <contour>
      <point x="-12" y="-213" type="line"/>
      <point x="491" y="-213" type="line"/>
      <point x="491" y="917" type="line"/>
      <point x="-12" y="917" type="line"/>
    </contour>
    <contour>
      <point x="79" y="411" type="line"/>
      <point x="125" y="442"/>
      <point x="178" y="454"/>
      <point x="236" y="454" type="curve" smooth="yes"/>
      <point x="339" y="454"/>
      <point x="395" y="405"/>
      <point x="395" y="305" type="curve" smooth="yes"/>
      <point x="395" y="93" type="line" smooth="yes"/>
      <point x="395" y="60"/>
      <point x="407" y="45"/>
      <point x="433" y="45" type="curve" smooth="yes"/>
      <point x="442" y="45"/>
      <point x="454" y="47"/>
      <point x="463" y="51" type="curve"/>
      <point x="464" y="5" type="line"/>
      <point x="448" y="-4"/>
      <point x="427" y="-10"/>
      <point x="406" y="-10" type="curve" smooth="yes"/>
      <point x="354" y="-10"/>
      <point x="326" y="25"/>
      <point x="325" y="80" type="curve" smooth="yes"/>
      <point x="325" y="82" type="line"/>
      <point x="297" y="34"/>
      <point x="245" y="-10"/>
      <point x="173" y="-10" type="curve" smooth="yes"/>
      <point x="114" y="-10"/>
      <point x="38" y="20"/>
      <point x="38" y="115" type="curve" smooth="yes"/>
      <point x="38" y="227"/>
      <point x="146" y="252"/>
      <point x="246" y="252" type="curve" smooth="yes"/>
      <point x="273" y="252"/>
      <point x="301" y="250"/>
      <point x="325" y="248" type="curve"/>
      <point x="325" y="288" type="line" smooth="yes"/>
      <point x="325" y="352"/>
      <point x="304" y="396"/>
      <point x="224" y="396" type="curve" smooth="yes"/>
      <point x="194" y="396"/>
      <point x="165" y="391"/>
      <point x="138" y="378" type="curve"/>
      <point x="121" y="301" type="line"/>
      <point x="63" y="308" type="line"/>
    </contour>
    <contour>
      <point x="332" y="607" type="curve" smooth="yes"/>
      <point x="332" y="553"/>
      <point x="299" y="514"/>
      <point x="233" y="514" type="curve" smooth="yes"/>
      <point x="168" y="514"/>
      <point x="135" y="549"/>
      <point x="135" y="606" type="curve" smooth="yes"/>
      <point x="135" y="660"/>
      <point x="171" y="698"/>
      <point x="234" y="698" type="curve" smooth="yes"/>
      <point x="302" y="698"/>
      <point x="332" y="660"/>
    </contour>
    <contour>
      <point x="325" y="167" type="curve"/>
      <point x="325" y="201" type="line"/>
      <point x="300" y="203"/>
      <point x="272" y="206"/>
      <point x="242" y="206" type="curve" smooth="yes"/>
      <point x="176" y="206"/>
      <point x="111" y="192"/>
      <point x="111" y="123" type="curve" smooth="yes"/>
      <point x="111" y="66"/>
      <point x="155" y="48"/>
      <point x="194" y="48" type="curve" smooth="yes"/>
      <point x="256" y="48"/>
      <point x="320" y="94"/>
    </contour>
    <contour>
      <point x="283" y="608" type="curve" smooth="yes"/>
      <point x="283" y="635"/>
      <point x="270" y="658"/>
      <point x="233" y="658" type="curve" smooth="yes"/>
      <point x="199" y="658"/>
      <point x="184" y="635"/>
      <point x="184" y="606" type="curve" smooth="yes"/>
      <point x="184" y="574"/>
      <point x="199" y="554"/>
      <point x="233" y="554" type="curve" smooth="yes"/>
      <point x="268" y="554"/>
      <point x="283" y="578"/>
    </contour>
  </outline>
</glyph>
<glyph name="ae" format="1">
  <advance width="755"/>
  <unicode hex="00E6"/>
  <outline>
    <contour>
      <point x="722" y="128" type="line"/>
      <point x="710" y="52"/>
      <point x="645" y="-10"/>
      <point x="535" y="-10" type="curve" smooth="yes"/>
      <point x="451" y="-10"/>
      <point x="385" y="27"/>
      <point x="352" y="95" type="curve"/>
      <point x="321" y="45"/>
      <point x="268" y="-10"/>
      <point x="177" y="-10" type="curve" smooth="yes"/>
      <point x="115" y="-10"/>
      <point x="37" y="20"/>
      <point x="37" y="115" type="curve" smooth="yes"/>
      <point x="37" y="227"/>
      <point x="147" y="252"/>
      <point x="248" y="252" type="curve" smooth="yes"/>
      <point x="273" y="252"/>
      <point x="302" y="250"/>
      <point x="326" y="248" type="curve"/>
      <point x="326" y="288" type="line" smooth="yes"/>
      <point x="326" y="349"/>
      <point x="305" y="396"/>
      <point x="229" y="396" type="curve" smooth="yes"/>
      <point x="193" y="396"/>
      <point x="166" y="391"/>
      <point x="139" y="378" type="curve"/>
      <point x="121" y="301" type="line"/>
      <point x="63" y="308" type="line"/>
      <point x="80" y="411" type="line"/>
      <point x="128" y="443"/>
      <point x="175" y="454"/>
      <point x="245" y="454" type="curve" smooth="yes"/>
      <point x="310" y="454"/>
      <point x="355" y="429"/>
      <point x="377" y="382" type="curve"/>
      <point x="413" y="427"/>
      <point x="464" y="454"/>
      <point x="529" y="454" type="curve" smooth="yes"/>
      <point x="652" y="454"/>
      <point x="718" y="364"/>
      <point x="718" y="259" type="curve" smooth="yes"/>
      <point x="718" y="242"/>
      <point x="716" y="224"/>
      <point x="712" y="206" type="curve"/>
      <point x="400" y="206" type="line"/>
      <point x="404" y="107"/>
      <point x="453" y="51"/>
      <point x="541" y="51" type="curve" smooth="yes"/>
      <point x="611" y="51"/>
      <point x="649" y="86"/>
      <point x="663" y="141" type="curve"/>
    </contour>
    <contour>
      <point x="644" y="257" type="curve"/>
      <point x="401" y="257" type="line"/>
      <point x="409" y="333"/>
      <point x="445" y="395"/>
      <point x="527" y="395" type="curve" smooth="yes"/>
      <point x="615" y="395"/>
      <point x="651" y="323"/>
    </contour>
    <contour>
      <point x="112" y="123" type="curve" smooth="yes"/>
      <point x="112" y="192"/>
      <point x="177" y="206"/>
      <point x="245" y="206" type="curve" smooth="yes"/>
      <point x="272" y="206"/>
      <point x="301" y="203"/>
      <point x="326" y="201" type="curve"/>
      <point x="326" y="168" type="line"/>
      <point x="322" y="94"/>
      <point x="257" y="48"/>
      <point x="195" y="48" type="curve" smooth="yes"/>
      <point x="156" y="48"/>
      <point x="112" y="66"/>
    </contour>
    <contour>
      <point x="-12" y="-213" type="line"/>
      <point x="767" y="-213" type="line"/>
      <point x="767" y="917" type="line"/>
      <point x="-12" y="917" type="line"/>
    </contour>
  </outline>
</glyph>
<glyph name="ccedilla" format="1">
  <advance width="457"/>
  <unicode hex="00E7"/>
  <outline>
    <contour>
      <point x="-12" y="-213" type="line"/>
      <point x="469" y="-213" type="line"/>
      <point x="469" y="917" type="line"/>
      <point x="-12" y="917" type="line"/>
    </contour>
    <contour>
      <point x="359" y="-128" type="curve" smooth="yes"/>
      <point x="359" y="-188"/>
      <point x="308" y="-212"/>
      <point x="251" y="-212" type="curve" smooth="yes"/>
      <point x="213" y="-212"/>
      <point x="178" y="-203"/>
      <point x="154" y="-182" type="curve"/>
      <point x="172" y="-142" type="line"/>
      <point x="188" y="-154"/>
      <point x="214" y="-165"/>
      <point x="246" y="-165" type="curve" smooth="yes"/>
      <point x="276" y="-165"/>
      <point x="297" y="-154"/>
      <point x="297" y="-124" type="curve" smooth="yes"/>
      <point x="297" y="-90"/>
      <point x="271" y="-84"/>
      <point x="239" y="-84" type="curve" smooth="yes"/>
      <point x="209" y="-84" type="line"/>
      <point x="209" y="-8" type="line"/>
      <point x="102" y="4"/>
      <point x="36" y="85"/>
      <point x="36" y="216" type="curve" smooth="yes"/>
      <point x="36" y="339"/>
      <point x="106" y="454"/>
      <point x="244" y="454" type="curve" smooth="yes"/>
      <point x="303" y="454"/>
      <point x="351" y="442"/>
      <point x="396" y="408" type="curve"/>
      <point x="413" y="301" type="line"/>
      <point x="355" y="294" type="line"/>
      <point x="338" y="369" type="line"/>
      <point x="311" y="386"/>
      <point x="281" y="394"/>
      <point x="243" y="394" type="curve" smooth="yes"/>
      <point x="148" y="394"/>
      <point x="110" y="316"/>
      <point x="110" y="220" type="curve" smooth="yes"/>
      <point x="110" y="113"/>
      <point x="158" y="50"/>
      <point x="246" y="50" type="curve" smooth="yes"/>
      <point x="315" y="50"/>
      <point x="353" y="90"/>
      <point x="366" y="163" type="curve"/>
      <point x="426" y="150" type="line"/>
      <point x="414" y="77"/>
      <point x="367" y="0"/>
      <point x="262" y="-9" type="curve"/>
      <point x="262" y="-50" type="line"/>
      <point x="270" y="-50" type="line" smooth="yes"/>
      <point x="331" y="-50"/>
      <point x="359" y="-85"/>
    </contour>
  </outline>
</glyph>
<glyph name="igrave" format="1">
  <advance width="277"/>
  <unicode hex="00EC"/>
  <outline>
    <contour>
      <point x="32" y="0" type="line"/>
      <point x="32" y="57" type="line"/>
      <point x="110" y="57" type="line"/>
      <point x="110" y="388" type="line"/>
      <point x="30" y="388" type="line"/>
      <point x="30" y="445" type="line"/>
      <point x="180" y="445" type="line"/>
      <point x="180" y="57" type="line"/>
      <point x="258" y="57" type="line"/>
      <point x="258" y="0" type="line"/>
    </contour>
    <contour>
      <point x="-12" y="-213" type="line"/>
      <point x="289" y="-213" type="line"/>
      <point x="289" y="917" type="line"/>
      <point x="-12" y="917" type="line"/>
    </contour>
    <contour>
      <point x="168" y="520" type="line"/>
      <point x="-5" y="624" type="line"/>
      <point x="35" y="683" type="line"/>
      <point x="189" y="551" type="line"/>
    </contour>
  </outline>
</glyph>
<glyph name="iacute" format="1">
  <advance width="277"/>
  <unicode hex="00ED"/>
  <outline>
    <contour>
      <point x="67" y="520" type="line"/>
      <point x="45" y="551" type="line"/>
      <point x="199" y="683" type="line"/>
      <point x="239" y="624" type="line"/>
    </contour>
    <contour>
      <point x="32" y="0" type="line"/>
      <point x="32" y="57" type="line"/>
      <point x="110" y="57" type="line"/>
      <point x="110" y="388" type="line"/>
      <point x="30" y="388" type="line"/>
      <point x="30" y="445" type="line"/>
      <point x="180" y="445" type="line"/>
      <point x="180" y="57" type="line"/>
      <point x="258" y="57" type="line"/>
      <point x="258" y="0" type="line"/>
    </contour>
    <contour>
      <point x="-12" y="-213" type="line"/>
      <point x="289" y="-213" type="line"/>
      <point x="289" y="917" type="line"/>
      <point x="-12" y="917" type="line"/>
    </contour>
  </outline>
</glyph>
<glyph name="icircumflex" format="1">
  <advance width="277"/>
  <unicode hex="00EE"/>
  <outline>
    <contour>
      <point x="240" y="518" type="line"/>
      <point x="130" y="602" type="line"/>
      <point x="30" y="518" type="line"/>
      <point x="5" y="550" type="line"/>
      <point x="125" y="669" type="line"/>
      <point x="147" y="669" type="line"/>
      <point x="266" y="552" type="line"/>
    </contour>
    <contour>
      <point x="32" y="0" type="line"/>
      <point x="32" y="57" type="line"/>
      <point x="110" y="57" type="line"/>
      <point x="110" y="388" type="line"/>
      <point x="30" y="388" type="line"/>
      <point x="30" y="445" type="line"/>
      <point x="180" y="445" type="line"/>
      <point x="180" y="57" type="line"/>
      <point x="258" y="57" type="line"/>
      <point x="258" y="0" type="line"/>
    </contour>
    <contour>
      <point x="-12" y="-213" type="line"/>
      <point x="289" y="-213" type="line"/>
      <point x="289" y="917" type="line"/>
      <point x="-12" y="917" type="line"/>
    </contour>
  </outline>
</glyph>
<glyph name="ocircumflex" format="1">
  <advance width="509"/>
  <unicode hex="00F4"/>
  <outline>
    <contour>
      <point x="363" y="519" type="line"/>
      <point x="252" y="603" type="line"/>
      <point x="151" y="519" type="line"/>
      <point x="126" y="551" type="line"/>
      <point x="247" y="671" type="line"/>
      <point x="269" y="671" type="line"/>
      <point x="390" y="553" type="line"/>
    </contour>
    <contour>
      <point x="255" y="455" type="curve" smooth="yes"/>
      <point x="400" y="455"/>
      <point x="474" y="349"/>
      <point x="474" y="223" type="curve" smooth="yes"/>
      <point x="474" y="88"/>
      <point x="388" y="-10"/>
      <point x="251" y="-10" type="curve" smooth="yes"/>
      <point x="116" y="-10"/>
      <point x="35" y="85"/>
      <point x="35" y="219" type="curve" smooth="yes"/>
      <point x="35" y="349"/>
      <point x="111" y="455"/>
    </contour>
    <contour>
      <point x="253" y="50" type="curve" smooth="yes"/>
      <point x="348" y="50"/>
      <point x="400" y="124"/>
      <point x="400" y="224" type="curve" smooth="yes"/>
      <point x="400" y="326"/>
      <point x="346" y="395"/>
      <point x="253" y="395" type="curve" smooth="yes"/>
      <point x="160" y="395"/>
      <point x="108" y="322"/>
      <point x="108" y="223" type="curve" smooth="yes"/>
      <point x="108" y="126"/>
      <point x="158" y="50"/>
    </contour>
    <contour>
      <point x="-12" y="-213" type="line"/>
      <point x="521" y="-213" type="line"/>
      <point x="521" y="917" type="line"/>
      <point x="-12" y="917" type="line"/>
    </contour>
  </outline>
</glyph>
<glyph name="otilde" format="1">
  <advance width="509"/>
  <unicode hex="00F5"/>
  <outline>
    <contour>
      <point x="255" y="455" type="curve" smooth="yes"/>
      <point x="400" y="455"/>
      <point x="474" y="349"/>
      <point x="474" y="223" type="curve" smooth="yes"/>
      <point x="474" y="88"/>
      <point x="388" y="-10"/>
      <point x="251" y="-10" type="curve" smooth="yes"/>
      <point x="116" y="-10"/>
      <point x="35" y="85"/>
      <point x="35" y="219" type="curve" smooth="yes"/>
      <point x="35" y="349"/>
      <point x="111" y="455"/>
    </contour>
    <contour>
      <point x="253" y="50" type="curve" smooth="yes"/>
      <point x="348" y="50"/>
      <point x="400" y="124"/>
      <point x="400" y="224" type="curve" smooth="yes"/>
      <point x="400" y="326"/>
      <point x="346" y="395"/>
      <point x="253" y="395" type="curve" smooth="yes"/>
      <point x="160" y="395"/>
      <point x="108" y="322"/>
      <point x="108" y="223" type="curve" smooth="yes"/>
      <point x="108" y="126"/>
      <point x="158" y="50"/>
    </contour>
    <contour>
      <point x="-12" y="-213" type="line"/>
      <point x="521" y="-213" type="line"/>
      <point x="521" y="917" type="line"/>
      <point x="-12" y="917" type="line"/>
    </contour>
    <contour>
      <point x="394" y="646" type="line"/>
      <point x="385" y="592"/>
      <point x="363" y="553"/>
      <point x="317" y="553" type="curve" smooth="yes"/>
      <point x="265" y="553"/>
      <point x="231" y="592"/>
      <point x="194" y="592" type="curve" smooth="yes"/>
      <point x="175" y="592"/>
      <point x="153" y="581"/>
      <point x="143" y="549" type="curve"/>
      <point x="110" y="561" type="line"/>
      <point x="115" y="596"/>
      <point x="140" y="649"/>
      <point x="191" y="649" type="curve" smooth="yes"/>
      <point x="236" y="649"/>
      <point x="263" y="612"/>
      <point x="311" y="612" type="curve" smooth="yes"/>
      <point x="329" y="612"/>
      <point x="347" y="619"/>
      <point x="358" y="655" type="curve"/>
    </contour>
  </outline>
</glyph>
<glyph name="divide" format="1">
  <advance width="444"/>
  <unicode hex="00F7"/>
  <outline>
    <contour>
      <point x="395" y="254" type="line"/>
      <point x="395" y="308" type="line"/>
      <point x="48" y="308" type="line"/>
      <point x="48" y="254" type="line"/>
    </contour>
    <contour>
      <point x="171" y="374" type="line"/>
      <point x="268" y="374" type="line"/>
      <point x="268" y="477" type="line"/>
      <point x="171" y="477" type="line"/>
    </contour>
    <contour>
      <point x="171" y="86" type="line"/>
      <point x="268" y="86" type="line"/>
      <point x="268" y="189" type="line"/>
      <point x="171" y="189" type="line"/>
    </contour>
    <contour>
      <point x="-12" y="917" type="line"/>
      <point x="456" y="917" type="line"/>
      <point x="456" y="-213" type="line"/>
      <point x="-12" y="-213" type="line"/>
    </contour>
  </outline>
</glyph>
<glyph name="ucircumflex" format="1">
  <advance width="558"/>
  <unicode hex="00FB"/>
  <outline>
    <contour>
      <point x="372" y="519" type="line"/>
      <point x="261" y="603" type="line"/>
      <point x="160" y="519" type="line"/>
      <point x="135" y="551" type="line"/>
      <point x="256" y="671" type="line"/>
      <point x="278" y="671" type="line"/>
      <point x="399" y="553" type="line"/>
    </contour>
    <contour>
      <point x="394" y="0" type="line"/>
      <point x="394" y="84" type="line"/>
      <point x="366" y="28"/>
      <point x="310" y="-10"/>
      <point x="239" y="-10" type="curve" smooth="yes"/>
      <point x="152" y="-10"/>
      <point x="85" y="41"/>
      <point x="85" y="160" type="curve" smooth="yes"/>
      <point x="85" y="388" type="line"/>
      <point x="7" y="388" type="line"/>
      <point x="7" y="445" type="line"/>
      <point x="155" y="445" type="line"/>
      <point x="155" y="180" type="line" smooth="yes"/>
      <point x="155" y="84"/>
      <point x="199" y="50"/>
      <point x="262" y="50" type="curve" smooth="yes"/>
      <point x="338" y="50"/>
      <point x="392" y="120"/>
      <point x="394" y="184" type="curve"/>
      <point x="394" y="388" type="line"/>
      <point x="301" y="388" type="line"/>
      <point x="301" y="445" type="line"/>
      <point x="464" y="445" type="line"/>
      <point x="464" y="57" type="line"/>
      <point x="544" y="57" type="line"/>
      <point x="544" y="0" type="line"/>
    </contour>
    <contour>
      <point x="-12" y="-213" type="line"/>
      <point x="570" y="-213" type="line"/>
      <point x="570" y="917" type="line"/>
      <point x="-12" y="917" type="line"/>
    </contour>
  </outline>
</glyph>
<glyph name="Abreve" format="1">
  <advance width="622"/>
  <unicode hex="0102"/>
  <outline>
    <contour>
      <point x="-12" y="917" type="line"/>
      <point x="-12" y="64" type="line"/>
      <point x="67" y="64" type="line"/>
      <point x="260" y="586" type="line"/>
      <point x="156" y="586" type="line"/>
      <point x="156" y="650" type="line"/>
      <point x="342" y="650" type="line"/>
      <point x="555" y="64" type="line"/>
      <point x="634" y="64" type="line"/>
      <point x="634" y="917" type="line"/>
    </contour>
    <contour>
      <point x="316" y="544" type="line"/>
      <point x="311" y="544" type="line"/>
      <point x="203" y="246" type="line"/>
      <point x="422" y="246" type="line"/>
    </contour>
    <contour>
      <point x="634" y="-213" type="line"/>
      <point x="634" y="0" type="line"/>
      <point x="409" y="0" type="line"/>
      <point x="409" y="64" type="line"/>
      <point x="486" y="64" type="line"/>
      <point x="442" y="189" type="line"/>
      <point x="182" y="189" type="line"/>
      <point x="136" y="64" type="line"/>
      <point x="216" y="64" type="line"/>
      <point x="216" y="0" type="line"/>
      <point x="-12" y="0" type="line"/>
      <point x="-12" y="-213" type="line"/>
    </contour>
    <contour>
      <point x="438" y="816" type="line"/>
      <point x="438" y="733"/>
      <point x="397" y="699"/>
      <point x="316" y="699" type="curve" smooth="yes"/>
      <point x="235" y="699"/>
      <point x="194" y="735"/>
      <point x="194" y="816" type="curve"/>
      <point x="252" y="816" type="line"/>
      <point x="252" y="763"/>
      <point x="275" y="747"/>
      <point x="316" y="747" type="curve" smooth="yes"/>
      <point x="361" y="747"/>
      <point x="380" y="765"/>
      <point x="380" y="816" type="curve"/>
    </contour>
  </outline>
</glyph>
<glyph name="aogonek" format="1">
  <advance width="479"/>
  <unicode hex="0105"/>
  <outline>
    <contour>
      <point x="-12" y="-213" type="line"/>
      <point x="491" y="-213" type="line"/>
      <point x="491" y="917" type="line"/>
      <point x="-12" y="917" type="line"/>
    </contour>
    <contour>
      <point x="479" y="-192" type="line"/>
      <point x="456" y="-204"/>
      <point x="431" y="-212"/>
      <point x="400" y="-212" type="curve" smooth="yes"/>
      <point x="337" y="-212"/>
      <point x="295" y="-175"/>
      <point x="295" y="-118" type="curve" smooth="yes"/>
      <point x="295" y="-68"/>
      <point x="325" y="-27"/>
      <point x="366" y="-1" type="curve"/>
      <point x="339" y="12"/>
      <point x="326" y="41"/>
      <point x="325" y="80" type="curve" smooth="yes"/>
      <point x="325" y="82" type="line"/>
      <point x="297" y="34"/>
      <point x="245" y="-10"/>
      <point x="173" y="-10" type="curve" smooth="yes"/>
      <point x="114" y="-10"/>
      <point x="38" y="20"/>
      <point x="38" y="115" type="curve" smooth="yes"/>
      <point x="38" y="227"/>
      <point x="146" y="252"/>
      <point x="246" y="252" type="curve" smooth="yes"/>
      <point x="273" y="252"/>
      <point x="301" y="250"/>
      <point x="325" y="248" type="curve"/>
      <point x="325" y="288" type="line" smooth="yes"/>
      <point x="325" y="352"/>
      <point x="304" y="396"/>
      <point x="224" y="396" type="curve" smooth="yes"/>
      <point x="194" y="396"/>
      <point x="165" y="391"/>
      <point x="138" y="378" type="curve"/>
      <point x="121" y="301" type="line"/>
      <point x="63" y="308" type="line"/>
      <point x="79" y="411" type="line"/>
      <point x="125" y="442"/>
      <point x="178" y="454"/>
      <point x="236" y="454" type="curve" smooth="yes"/>
      <point x="339" y="454"/>
      <point x="395" y="405"/>
      <point x="395" y="305" type="curve" smooth="yes"/>
      <point x="395" y="93" type="line" smooth="yes"/>
      <point x="395" y="60"/>
      <point x="407" y="45"/>
      <point x="433" y="45" type="curve" smooth="yes"/>
      <point x="442" y="45"/>
      <point x="454" y="47"/>
      <point x="463" y="51" type="curve"/>
      <point x="464" y="5" type="line"/>
      <point x="449" y="-4"/>
      <point x="430" y="-9"/>
      <point x="407" y="-10" type="curve"/>
      <point x="370" y="-37"/>
      <point x="358" y="-69"/>
      <point x="358" y="-99" type="curve" smooth="yes"/>
      <point x="358" y="-141"/>
      <point x="381" y="-158"/>
      <point x="416" y="-158" type="curve" smooth="yes"/>
      <point x="434" y="-158"/>
      <point x="452" y="-154"/>
      <point x="470" y="-143" type="curve"/>
    </contour>
    <contour>
      <point x="325" y="167" type="curve"/>
      <point x="325" y="201" type="line"/>
      <point x="300" y="203"/>
      <point x="272" y="206"/>
      <point x="242" y="206" type="curve" smooth="yes"/>
      <point x="176" y="206"/>
      <point x="111" y="192"/>
      <point x="111" y="123" type="curve" smooth="yes"/>
      <point x="111" y="66"/>
      <point x="155" y="48"/>
      <point x="194" y="48" type="curve" smooth="yes"/>
      <point x="256" y="48"/>
      <point x="320" y="94"/>
    </contour>
  </outline>
</glyph>
<glyph name="Cacute" format="1">
  <advance width="642"/>
  <unicode hex="0106"/>
  <outline>
    <contour>
      <point x="573" y="50" type="line"/>
      <point x="521" y="10"/>
      <point x="448" y="-10"/>
      <point x="356" y="-10" type="curve" smooth="yes"/>
      <point x="167" y="-10"/>
      <point x="38" y="132"/>
      <point x="38" y="321" type="curve" smooth="yes"/>
      <point x="38" y="501"/>
      <point x="158" y="660"/>
      <point x="347" y="660" type="curve" smooth="yes"/>
      <point x="455" y="660"/>
      <point x="524" y="629"/>
      <point x="577" y="584" type="curve"/>
      <point x="595" y="459" type="line"/>
      <point x="532" y="453" type="line"/>
      <point x="514" y="548" type="line"/>
      <point x="472" y="576"/>
      <point x="426" y="594"/>
      <point x="353" y="594" type="curve" smooth="yes"/>
      <point x="211" y="594"/>
      <point x="115" y="482"/>
      <point x="115" y="324" type="curve" smooth="yes"/>
      <point x="115" y="163"/>
      <point x="211" y="56"/>
      <point x="366" y="56" type="curve" smooth="yes"/>
      <point x="424" y="56"/>
      <point x="467" y="64"/>
      <point x="509" y="85" type="curve"/>
      <point x="528" y="181" type="line"/>
      <point x="590" y="175" type="line"/>
    </contour>
    <contour>
      <point x="-12" y="-213" type="line"/>
      <point x="654" y="-213" type="line"/>
      <point x="654" y="917" type="line"/>
      <point x="-12" y="917" type="line"/>
    </contour>
    <contour>
      <point x="310" y="703" type="line"/>
      <point x="299" y="740" type="line"/>
      <point x="490" y="813" type="line"/>
      <point x="507" y="745" type="line"/>
    </contour>
  </outline>
</glyph>
<glyph name="cacute" format="1">
  <advance width="457"/>
  <unicode hex="0107"/>
  <outline>
    <contour>
      <point x="205" y="520" type="line"/>
      <point x="183" y="551" type="line"/>
      <point x="337" y="683" type="line"/>
      <point x="377" y="624" type="line"/>
    </contour>
    <contour>
      <point x="426" y="150" type="line"/>
      <point x="414" y="72"/>
      <point x="361" y="-10"/>
      <point x="238" y="-10" type="curve" smooth="yes"/>
      <point x="115" y="-10"/>
      <point x="36" y="73"/>
      <point x="36" y="216" type="curve" smooth="yes"/>
      <point x="36" y="339"/>
      <point x="106" y="454"/>
      <point x="244" y="454" type="curve" smooth="yes"/>
      <point x="303" y="454"/>
      <point x="351" y="442"/>
      <point x="396" y="408" type="curve"/>
      <point x="413" y="301" type="line"/>
      <point x="355" y="294" type="line"/>
      <point x="338" y="369" type="line"/>
      <point x="311" y="386"/>
      <point x="281" y="394"/>
      <point x="243" y="394" type="curve" smooth="yes"/>
      <point x="148" y="394"/>
      <point x="110" y="316"/>
      <point x="110" y="220" type="curve" smooth="yes"/>
      <point x="110" y="113"/>
      <point x="158" y="50"/>
      <point x="246" y="50" type="curve" smooth="yes"/>
      <point x="315" y="50"/>
      <point x="353" y="90"/>
      <point x="366" y="163" type="curve"/>
    </contour>
    <contour>
      <point x="-12" y="-213" type="line"/>
      <point x="469" y="-213" type="line"/>
      <point x="469" y="917" type="line"/>
      <point x="-12" y="917" type="line"/>
    </contour>
  </outline>
</glyph>
<glyph name="dcaron" format="1">
  <advance width="610"/>
  <unicode hex="010F"/>
  <outline>
    <contour>
      <point x="579" y="457" type="line"/>
      <point x="522" y="457" type="line"/>
      <point x="535" y="681" type="line"/>
      <point x="602" y="681" type="line"/>
    </contour>
    <contour>
      <point x="386" y="0" type="line"/>
      <point x="386" y="90" type="line"/>
      <point x="357" y="37"/>
      <point x="308" y="-10"/>
      <point x="227" y="-10" type="curve" smooth="yes"/>
      <point x="112" y="-10"/>
      <point x="36" y="72"/>
      <point x="36" y="211" type="curve" smooth="yes"/>
      <point x="36" y="330"/>
      <point x="92" y="454"/>
      <point x="237" y="454" type="curve" smooth="yes"/>
      <point x="302" y="454"/>
      <point x="357" y="425"/>
      <point x="386" y="373" type="curve"/>
      <point x="386" y="631" type="line"/>
      <point x="278" y="631" type="line"/>
      <point x="278" y="688" type="line"/>
      <point x="456" y="688" type="line"/>
      <point x="456" y="57" type="line"/>
      <point x="533" y="57" type="line"/>
      <point x="533" y="0" type="line"/>
    </contour>
    <contour>
      <point x="386" y="268" type="line"/>
      <point x="383" y="342"/>
      <point x="324" y="394"/>
      <point x="253" y="394" type="curve" smooth="yes"/>
      <point x="154" y="394"/>
      <point x="110" y="310"/>
      <point x="110" y="216" type="curve" smooth="yes"/>
      <point x="110" y="107"/>
      <point x="168" y="50"/>
      <point x="245" y="50" type="curve" smooth="yes"/>
      <point x="325" y="50"/>
      <point x="383" y="130"/>
      <point x="386" y="197" type="curve"/>
    </contour>
    <contour>
      <point x="-12" y="-213" type="line"/>
      <point x="622" y="-213" type="line"/>
      <point x="622" y="917" type="line"/>
      <point x="-12" y="917" type="line"/>
    </contour>
  </outline>
</glyph>
<glyph name="Emacron" format="1">
  <advance width="584"/>
  <unicode hex="0112"/>
  <outline>
    <contour>
      <point x="181" y="733" type="line"/>
      <point x="181" y="790" type="line"/>
      <point x="460" y="790" type="line"/>
      <point x="460" y="733" type="line"/>
    </contour>
    <contour>
      <point x="40" y="0" type="line"/>
      <point x="40" y="64" type="line"/>
      <point x="122" y="64" type="line"/>
      <point x="122" y="586" type="line"/>
      <point x="40" y="586" type="line"/>
      <point x="40" y="650" type="line"/>
      <point x="515" y="650" type="line"/>
      <point x="535" y="466" type="line"/>
      <point x="471" y="459" type="line"/>
      <point x="451" y="586" type="line"/>
      <point x="195" y="586" type="line"/>
      <point x="195" y="362" type="line"/>
      <point x="502" y="362" type="line"/>
      <point x="502" y="298" type="line"/>
      <point x="195" y="298" type="line"/>
      <point x="195" y="64" type="line"/>
      <point x="460" y="64" type="line"/>
      <point x="480" y="191" type="line"/>
      <point x="543" y="184" type="line"/>
      <point x="524" y="0" type="line"/>
    </contour>
    <contour>
      <point x="-12" y="-213" type="line"/>
      <point x="596" y="-213" type="line"/>
      <point x="596" y="917" type="line"/>
      <point x="-12" y="917" type="line"/>
    </contour>
  </outline>
</glyph>
<glyph name="Ebreve" format="1">
  <advance width="584"/>
  <unicode hex="0114"/>
  <outline>
    <contour>
      <point x="447" y="816" type="line"/>
      <point x="447" y="733"/>
      <point x="406" y="699"/>
      <point x="325" y="699" type="curve" smooth="yes"/>
      <point x="244" y="699"/>
      <point x="203" y="735"/>
      <point x="203" y="816" type="curve"/>
      <point x="261" y="816" type="line"/>
      <point x="261" y="763"/>
      <point x="284" y="747"/>
      <point x="325" y="747" type="curve" smooth="yes"/>
      <point x="370" y="747"/>
      <point x="389" y="765"/>
      <point x="389" y="816" type="curve"/>
    </contour>
    <contour>
      <point x="40" y="0" type="line"/>
      <point x="40" y="64" type="line"/>
      <point x="122" y="64" type="line"/>
      <point x="122" y="586" type="line"/>
      <point x="40" y="586" type="line"/>
      <point x="40" y="650" type="line"/>
      <point x="515" y="650" type="line"/>
      <point x="535" y="466" type="line"/>
      <point x="471" y="459" type="line"/>
      <point x="451" y="586" type="line"/>
      <point x="195" y="586" type="line"/>
      <point x="195" y="362" type="line"/>
      <point x="502" y="362" type="line"/>
      <point x="502" y="298" type="line"/>
      <point x="195" y="298" type="line"/>
      <point x="195" y="64" type="line"/>
      <point x="460" y="64" type="line"/>
      <point x="480" y="191" type="line"/>
      <point x="543" y="184" type="line"/>
      <point x="524" y="0" type="line"/>
    </contour>
    <contour>
      <point x="-12" y="-213" type="line"/>
      <point x="596" y="-213" type="line"/>
      <point x="596" y="917" type="line"/>
      <point x="-12" y="917" type="line"/>
    </contour>
  </outline>
</glyph>
<glyph name="Ecaron" format="1">
  <advance width="584"/>
  <unicode hex="011A"/>
  <outline>
    <contour>
      <point x="327" y="701" type="line"/>
      <point x="305" y="701" type="line"/>
      <point x="179" y="790" type="line"/>
      <point x="199" y="824" type="line"/>
      <point x="319" y="763" type="line"/>
      <point x="434" y="827" type="line"/>
      <point x="453" y="792" type="line"/>
    </contour>
    <contour>
      <point x="40" y="0" type="line"/>
      <point x="40" y="64" type="line"/>
      <point x="122" y="64" type="line"/>
      <point x="122" y="586" type="line"/>
      <point x="40" y="586" type="line"/>
      <point x="40" y="650" type="line"/>
      <point x="515" y="650" type="line"/>
      <point x="535" y="466" type="line"/>
      <point x="471" y="459" type="line"/>
      <point x="451" y="586" type="line"/>
      <point x="195" y="586" type="line"/>
      <point x="195" y="362" type="line"/>
      <point x="502" y="362" type="line"/>
      <point x="502" y="298" type="line"/>
      <point x="195" y="298" type="line"/>
      <point x="195" y="64" type="line"/>
      <point x="460" y="64" type="line"/>
      <point x="480" y="191" type="line"/>
      <point x="543" y="184" type="line"/>
      <point x="524" y="0" type="line"/>
    </contour>
    <contour>
      <point x="-12" y="-213" type="line"/>
      <point x="596" y="-213" type="line"/>
      <point x="596" y="917" type="line"/>
      <point x="-12" y="917" type="line"/>
    </contour>
  </outline>
</glyph>
<glyph name="Gbreve" format="1">
  <advance width="688"/>
  <unicode hex="011E"/>
  <outline>
    <contour>
      <point x="477" y="816" type="line"/>
      <point x="477" y="733"/>
      <point x="436" y="699"/>
      <point x="355" y="699" type="curve" smooth="yes"/>
      <point x="274" y="699"/>
      <point x="233" y="735"/>
      <point x="233" y="816" type="curve"/>
      <point x="291" y="816" type="line"/>
      <point x="291" y="763"/>
      <point x="314" y="747"/>
      <point x="355" y="747" type="curve" smooth="yes"/>
      <point x="400" y="747"/>
      <point x="419" y="765"/>
      <point x="419" y="816" type="curve"/>
    </contour>
    <contour>
      <point x="611" y="270" type="line"/>
      <point x="611" y="0" type="line"/>
      <point x="555" y="0" type="line"/>
      <point x="546" y="90" type="line"/>
      <point x="507" y="33"/>
      <point x="434" y="-10"/>
      <point x="338" y="-10" type="curve" smooth="yes"/>
      <point x="160" y="-10"/>
      <point x="38" y="136"/>
      <point x="38" y="322" type="curve" smooth="yes"/>
      <point x="38" y="509"/>
      <point x="168" y="660"/>
      <point x="355" y="660" type="curve" smooth="yes"/>
      <point x="459" y="660"/>
      <point x="538" y="628"/>
      <point x="587" y="584" type="curve"/>
      <point x="605" y="462" type="line"/>
      <point x="543" y="455" type="line"/>
      <point x="523" y="547" type="line"/>
      <point x="487" y="571"/>
      <point x="439" y="594"/>
      <point x="359" y="594" type="curve" smooth="yes"/>
      <point x="213" y="594"/>
      <point x="116" y="483"/>
      <point x="116" y="325" type="curve" smooth="yes"/>
      <point x="116" y="164"/>
      <point x="209" y="56"/>
      <point x="351" y="56" type="curve" smooth="yes"/>
      <point x="469" y="56"/>
      <point x="538" y="133"/>
      <point x="538" y="212" type="curve" smooth="yes"/>
      <point x="538" y="270" type="line"/>
      <point x="383" y="270" type="line"/>
      <point x="383" y="335" type="line"/>
      <point x="662" y="335" type="line"/>
      <point x="662" y="270" type="line"/>
    </contour>
    <contour>
      <point x="-12" y="-213" type="line"/>
      <point x="700" y="-213" type="line"/>
      <point x="700" y="917" type="line"/>
      <point x="-12" y="917" type="line"/>
    </contour>
  </outline>
</glyph>
<glyph name="Hbar" format="1">
  <advance width="752"/>
  <unicode hex="0126"/>
  <outline>
    <contour>
      <point x="-12" y="-213" type="line"/>
      <point x="764" y="-213" type="line"/>
      <point x="764" y="917" type="line"/>
      <point x="-12" y="917" type="line"/>
    </contour>
    <contour>
      <point x="474" y="0" type="line"/>
      <point x="474" y="64" type="line"/>
      <point x="556" y="64" type="line"/>
      <point x="556" y="300" type="line"/>
      <point x="195" y="300" type="line"/>
      <point x="195" y="64" type="line"/>
      <point x="277" y="64" type="line"/>
      <point x="277" y="0" type="line"/>
      <point x="40" y="0" type="line"/>
      <point x="40" y="64" type="line"/>
      <point x="122" y="64" type="line"/>
      <point x="122" y="462" type="line"/>
      <point x="47" y="462" type="line"/>
      <point x="47" y="515" type="line"/>
      <point x="122" y="515" type="line"/>
      <point x="122" y="586" type="line"/>
      <point x="40" y="586" type="line"/>
      <point x="40" y="650" type="line"/>
      <point x="277" y="650" type="line"/>
      <point x="277" y="586" type="line"/>
      <point x="195" y="586" type="line"/>
      <point x="195" y="515" type="line"/>
      <point x="556" y="515" type="line"/>
      <point x="556" y="586" type="line"/>
      <point x="474" y="586" type="line"/>
      <point x="474" y="650" type="line"/>
      <point x="711" y="650" type="line"/>
      <point x="711" y="586" type="line"/>
      <point x="629" y="586" type="line"/>
      <point x="629" y="515" type="line"/>
      <point x="703" y="515" type="line"/>
      <point x="703" y="462" type="line"/>
      <point x="629" y="462" type="line"/>
      <point x="629" y="64" type="line"/>
      <point x="711" y="64" type="line"/>
      <point x="711" y="0" type="line"/>
    </contour>
    <contour>
      <point x="556" y="362" type="line"/>
      <point x="556" y="462" type="line"/>
      <point x="195" y="462" type="line"/>
      <point x="195" y="362" type="line"/>
    </contour>
  </outline>
</glyph>
<glyph name="hbar" format="1">
  <advance width="556"/>
  <unicode hex="0127"/>
  <outline>
    <contour>
      <point x="-12" y="-213" type="line"/>
      <point x="568" y="-213" type="line"/>
      <point x="568" y="917" type="line"/>
      <point x="-12" y="917" type="line"/>
    </contour>
    <contour>
      <point x="323" y="0" type="line"/>
      <point x="323" y="57" type="line"/>
      <point x="401" y="57" type="line"/>
      <point x="401" y="264" type="line" smooth="yes"/>
      <point x="401" y="360"/>
      <point x="358" y="395"/>
      <point x="296" y="395" type="curve" smooth="yes"/>
      <point x="218" y="395"/>
      <point x="166" y="332"/>
      <point x="163" y="267" type="curve"/>
      <point x="163" y="57" type="line"/>
      <point x="240" y="57" type="line"/>
      <point x="240" y="0" type="line"/>
      <point x="15" y="0" type="line"/>
      <point x="15" y="57" type="line"/>
      <point x="92" y="57" type="line"/>
      <point x="92" y="517" type="line"/>
      <point x="20" y="517" type="line"/>
      <point x="20" y="566" type="line"/>
      <point x="92" y="566" type="line"/>
      <point x="92" y="631" type="line"/>
      <point x="15" y="631" type="line"/>
      <point x="15" y="688" type="line"/>
      <point x="163" y="688" type="line"/>
      <point x="163" y="566" type="line"/>
      <point x="335" y="566" type="line"/>
      <point x="335" y="517" type="line"/>
      <point x="163" y="517" type="line"/>
      <point x="163" y="365" type="line"/>
      <point x="193" y="420"/>
      <point x="247" y="454"/>
      <point x="319" y="454" type="curve" smooth="yes"/>
      <point x="406" y="454"/>
      <point x="472" y="403"/>
      <point x="472" y="285" type="curve" smooth="yes"/>
      <point x="472" y="57" type="line"/>
      <point x="549" y="57" type="line"/>
      <point x="549" y="0" type="line"/>
    </contour>
  </outline>
</glyph>
<glyph name="Imacron" format="1">
  <advance width="318"/>
  <unicode hex="012A"/>
  <outline>
    <contour>
      <point x="40" y="0" type="line"/>
      <point x="40" y="64" type="line"/>
      <point x="122" y="64" type="line"/>
      <point x="122" y="586" type="line"/>
      <point x="40" y="586" type="line"/>
      <point x="40" y="650" type="line"/>
      <point x="277" y="650" type="line"/>
      <point x="277" y="586" type="line"/>
      <point x="196" y="586" type="line"/>
      <point x="196" y="64" type="line"/>
      <point x="277" y="64" type="line"/>
      <point x="277" y="0" type="line"/>
    </contour>
    <contour>
      <point x="-12" y="-213" type="line"/>
      <point x="330" y="-213" type="line"/>
      <point x="330" y="917" type="line"/>
      <point x="-12" y="917" type="line"/>
    </contour>
    <contour>
      <point x="22" y="733" type="line"/>
      <point x="22" y="790" type="line"/>
      <point x="301" y="790" type="line"/>
      <point x="301" y="733" type="line"/>
    </contour>
  </outline>
</glyph>
<glyph name="imacron" format="1">
  <advance width="277"/>
  <unicode hex="012B"/>
  <outline>
    <contour>
      <point x="32" y="0" type="line"/>
      <point x="32" y="57" type="line"/>
      <point x="110" y="57" type="line"/>
      <point x="110" y="388" type="line"/>
      <point x="30" y="388" type="line"/>
      <point x="30" y="445" type="line"/>
      <point x="180" y="445" type="line"/>
      <point x="180" y="57" type="line"/>
      <point x="258" y="57" type="line"/>
      <point x="258" y="0" type="line"/>
    </contour>
    <contour>
      <point x="-12" y="-213" type="line"/>
      <point x="289" y="-213" type="line"/>
      <point x="289" y="917" type="line"/>
      <point x="-12" y="917" type="line"/>
    </contour>
    <contour>
      <point x="8" y="564" type="line"/>
      <point x="8" y="621" type="line"/>
      <point x="252" y="621" type="line"/>
      <point x="252" y="564" type="line"/>
    </contour>
  </outline>
</glyph>
<glyph name="Ibreve" format="1">
  <advance width="318"/>
  <unicode hex="012C"/>
  <outline>
    <contour>
      <point x="40" y="0" type="line"/>
      <point x="40" y="64" type="line"/>
      <point x="122" y="64" type="line"/>
      <point x="122" y="586" type="line"/>
      <point x="40" y="586" type="line"/>
      <point x="40" y="650" type="line"/>
      <point x="277" y="650" type="line"/>
      <point x="277" y="586" type="line"/>
      <point x="196" y="586" type="line"/>
      <point x="196" y="64" type="line"/>
      <point x="277" y="64" type="line"/>
      <point x="277" y="0" type="line"/>
    </contour>
    <contour>
      <point x="-12" y="-213" type="line"/>
      <point x="330" y="-213" type="line"/>
      <point x="330" y="917" type="line"/>
      <point x="-12" y="917" type="line"/>
    </contour>
    <contour>
      <point x="281" y="816" type="line"/>
      <point x="281" y="733"/>
      <point x="240" y="699"/>
      <point x="159" y="699" type="curve" smooth="yes"/>
      <point x="78" y="699"/>
      <point x="37" y="735"/>
      <point x="37" y="816" type="curve"/>
      <point x="95" y="816" type="line"/>
      <point x="95" y="763"/>
      <point x="118" y="747"/>
      <point x="159" y="747" type="curve" smooth="yes"/>
      <point x="204" y="747"/>
      <point x="223" y="765"/>
      <point x="223" y="816" type="curve"/>
    </contour>
  </outline>
</glyph>
<glyph name="Iogonek" format="1">
  <advance width="318"/>
  <unicode hex="012E"/>
  <outline>
    <contour>
      <point x="-12" y="-213" type="line"/>
      <point x="330" y="-213" type="line"/>
      <point x="330" y="917" type="line"/>
      <point x="-12" y="917" type="line"/>
    </contour>
    <contour>
      <point x="246" y="-189" type="line"/>
      <point x="224" y="-201"/>
      <point x="198" y="-209"/>
      <point x="167" y="-209" type="curve" smooth="yes"/>
      <point x="104" y="-209"/>
      <point x="62" y="-175"/>
      <point x="62" y="-118" type="curve" smooth="yes"/>
      <point x="62" y="-67"/>
      <point x="93" y="-25"/>
      <point x="134" y="0" type="curve"/>
      <point x="40" y="0" type="line"/>
      <point x="40" y="64" type="line"/>
      <point x="122" y="64" type="line"/>
      <point x="122" y="586" type="line"/>
      <point x="40" y="586" type="line"/>
      <point x="40" y="650" type="line"/>
      <point x="277" y="650" type="line"/>
      <point x="277" y="586" type="line"/>
      <point x="196" y="586" type="line"/>
      <point x="196" y="64" type="line"/>
      <point x="277" y="64" type="line"/>
      <point x="277" y="0" type="line"/>
      <point x="189" y="0" type="line"/>
      <point x="141" y="-30"/>
      <point x="125" y="-65"/>
      <point x="125" y="-99" type="curve" smooth="yes"/>
      <point x="125" y="-141"/>
      <point x="149" y="-155"/>
      <point x="183" y="-155" type="curve" smooth="yes"/>
      <point x="201" y="-155"/>
      <point x="219" y="-151"/>
      <point x="237" y="-140" type="curve"/>
    </contour>
  </outline>
</glyph>
<glyph name="iogonek" format="1">
  <advance width="277"/>
  <unicode hex="012F"/>
  <outline>
    <contour>
      <point x="-12" y="917" type="line"/>
      <point x="289" y="917" type="line"/>
      <point x="289" y="-213" type="line"/>
      <point x="-12" y="-213" type="line"/>
    </contour>
    <contour>
      <point x="224" y="-143" type="line"/>
      <point x="206" y="-154"/>
      <point x="188" y="-158"/>
      <point x="170" y="-158" type="curve" smooth="yes"/>
      <point x="135" y="-158"/>
      <point x="112" y="-144"/>
      <point x="112" y="-102" type="curve" smooth="yes"/>
      <point x="112" y="-69"/>
      <point x="127" y="-30"/>
      <point x="176" y="0" type="curve"/>
      <point x="258" y="0" type="line"/>
      <point x="258" y="57" type="line"/>
      <point x="180" y="57" type="line"/>
      <point x="180" y="445" type="line"/>
      <point x="30" y="445" type="line"/>
      <point x="30" y="388" type="line"/>
      <point x="110" y="388" type="line"/>
      <point x="110" y="57" type="line"/>
      <point x="32" y="57" type="line"/>
      <point x="32" y="0" type="line"/>
      <point x="121" y="0" type="line"/>
      <point x="80" y="-25"/>
      <point x="49" y="-70"/>
      <point x="49" y="-121" type="curve" smooth="yes"/>
      <point x="49" y="-179"/>
      <point x="91" y="-212"/>
      <point x="154" y="-212" type="curve" smooth="yes"/>
      <point x="185" y="-212"/>
      <point x="210" y="-204"/>
      <point x="233" y="-192" type="curve"/>
    </contour>
    <contour>
      <point x="103" y="560" type="line"/>
      <point x="179" y="560" type="line"/>
      <point x="179" y="651" type="line"/>
      <point x="103" y="651" type="line"/>
    </contour>
  </outline>
</glyph>
<glyph name="IJ" format="1">
  <advance width="775"/>
  <unicode hex="0132"/>
  <outline>
    <contour>
      <point x="40" y="0" type="line"/>
      <point x="40" y="64" type="line"/>
      <point x="122" y="64" type="line"/>
      <point x="122" y="586" type="line"/>
      <point x="40" y="586" type="line"/>
      <point x="40" y="650" type="line"/>
      <point x="277" y="650" type="line"/>
      <point x="277" y="586" type="line"/>
      <point x="196" y="586" type="line"/>
      <point x="196" y="64" type="line"/>
      <point x="277" y="64" type="line"/>
      <point x="277" y="0" type="line"/>
    </contour>
    <contour>
      <point x="668" y="586" type="line"/>
      <point x="668" y="166" type="line" smooth="yes"/>
      <point x="668" y="48"/>
      <point x="605" y="-10"/>
      <point x="501" y="-10" type="curve" smooth="yes"/>
      <point x="415" y="-10"/>
      <point x="366" y="30"/>
      <point x="338" y="89" type="curve"/>
      <point x="391" y="129" type="line"/>
      <point x="419" y="75"/>
      <point x="450" y="59"/>
      <point x="494" y="59" type="curve" smooth="yes"/>
      <point x="565" y="59"/>
      <point x="595" y="101"/>
      <point x="595" y="166" type="curve" smooth="yes"/>
      <point x="595" y="586" type="line"/>
      <point x="466" y="586" type="line"/>
      <point x="466" y="650" type="line"/>
      <point x="740" y="650" type="line"/>
      <point x="740" y="586" type="line"/>
    </contour>
    <contour>
      <point x="-12" y="-213" type="line"/>
      <point x="787" y="-213" type="line"/>
      <point x="787" y="917" type="line"/>
      <point x="-12" y="917" type="line"/>
    </contour>
  </outline>
</glyph>
<glyph name="Lacute" format="1">
  <advance width="540"/>
  <unicode hex="0139"/>
  <outline>
    <contour>
      <point x="99" y="703" type="line"/>
      <point x="88" y="740" type="line"/>
      <point x="279" y="813" type="line"/>
      <point x="296" y="745" type="line"/>
    </contour>
    <contour>
      <point x="40" y="0" type="line"/>
      <point x="40" y="64" type="line"/>
      <point x="122" y="64" type="line"/>
      <point x="122" y="586" type="line"/>
      <point x="40" y="586" type="line"/>
      <point x="40" y="650" type="line"/>
      <point x="304" y="650" type="line"/>
      <point x="304" y="586" type="line"/>
      <point x="195" y="586" type="line"/>
      <point x="195" y="64" type="line"/>
      <point x="434" y="64" type="line"/>
      <point x="454" y="213" type="line"/>
      <point x="519" y="208" type="line"/>
      <point x="499" y="0" type="line"/>
    </contour>
    <contour>
      <point x="-12" y="-213" type="line"/>
      <point x="552" y="-213" type="line"/>
      <point x="552" y="917" type="line"/>
      <point x="-12" y="917" type="line"/>
    </contour>
  </outline>
</glyph>
<glyph name="lcommaaccent" format="1">
  <advance width="262"/>
  <unicode hex="013C"/>
  <outline>
    <contour>
      <point x="-12" y="-213" type="line"/>
      <point x="93" y="-213" type="line"/>
      <point x="101" y="-59" type="line"/>
      <point x="168" y="-59" type="line"/>
      <point x="150" y="-213" type="line"/>
      <point x="274" y="-213" type="line"/>
      <point x="274" y="917" type="line"/>
      <point x="-12" y="917" type="line"/>
    </contour>
    <contour>
      <point x="18" y="0" type="line"/>
      <point x="18" y="57" type="line"/>
      <point x="96" y="57" type="line"/>
      <point x="96" y="631" type="line"/>
      <point x="17" y="631" type="line"/>
      <point x="17" y="688" type="line"/>
      <point x="166" y="688" type="line"/>
      <point x="166" y="57" type="line"/>
      <point x="244" y="57" type="line"/>
      <point x="244" y="0" type="line"/>
    </contour>
  </outline>
</glyph>
<glyph name="Ldot" format="1">
  <advance width="540"/>
  <unicode hex="013F"/>
  <outline>
    <contour>
      <point x="40" y="0" type="line"/>
      <point x="40" y="64" type="line"/>
      <point x="122" y="64" type="line"/>
      <point x="122" y="586" type="line"/>
      <point x="40" y="586" type="line"/>
      <point x="40" y="650" type="line"/>
      <point x="304" y="650" type="line"/>
      <point x="304" y="586" type="line"/>
      <point x="195" y="586" type="line"/>
      <point x="195" y="64" type="line"/>
      <point x="434" y="64" type="line"/>
      <point x="454" y="213" type="line"/>
      <point x="519" y="208" type="line"/>
      <point x="499" y="0" type="line"/>
    </contour>
    <contour>
      <point x="-12" y="-213" type="line"/>
      <point x="552" y="-213" type="line"/>
      <point x="552" y="917" type="line"/>
      <point x="-12" y="917" type="line"/>
    </contour>
    <contour>
      <point x="331" y="386" type="line"/>
      <point x="408" y="386" type="line"/>
      <point x="408" y="295" type="line"/>
      <point x="331" y="295" type="line"/>
    </contour>
  </outline>
</glyph>
<glyph name="Lslash" format="1">
  <advance width="540"/>
  <unicode hex="0141"/>
  <outline>
    <contour>
      <point x="-12" y="-213" type="line"/>
      <point x="552" y="-213" type="line"/>
      <point x="552" y="917" type="line"/>
      <point x="-12" y="917" type="line"/>
    </contour>
    <contour>
      <point x="40" y="0" type="line"/>
      <point x="40" y="64" type="line"/>
      <point x="122" y="64" type="line"/>
      <point x="122" y="267" type="line"/>
      <point x="42" y="235" type="line"/>
      <point x="42" y="294" type="line"/>
      <point x="122" y="326" type="line"/>
      <point x="122" y="586" type="line"/>
      <point x="40" y="586" type="line"/>
      <point x="40" y="650" type="line"/>
      <point x="304" y="650" type="line"/>
      <point x="304" y="586" type="line"/>
      <point x="195" y="586" type="line"/>
      <point x="195" y="354" type="line"/>
      <point x="351" y="416" type="line"/>
      <point x="351" y="357" type="line"/>
      <point x="195" y="295" type="line"/>
      <point x="195" y="64" type="line"/>
      <point x="444" y="64" type="line"/>
      <point x="464" y="213" type="line"/>
      <point x="529" y="208" type="line"/>
      <point x="509" y="0" type="line"/>
    </contour>
  </outline>
</glyph>
<glyph name="lslash" format="1">
  <advance width="262"/>
  <unicode hex="0142"/>
  <outline>
    <contour>
      <point x="-12" y="-213" type="line"/>
      <point x="274" y="-213" type="line"/>
      <point x="274" y="917" type="line"/>
      <point x="-12" y="917" type="line"/>
    </contour>
    <contour>
      <point x="18" y="0" type="line"/>
      <point x="18" y="57" type="line"/>
      <point x="96" y="57" type="line"/>
      <point x="96" y="280" type="line"/>
      <point x="15" y="242" type="line"/>
      <point x="15" y="301" type="line"/>
      <point x="96" y="338" type="line"/>
      <point x="96" y="631" type="line"/>
      <point x="17" y="631" type="line"/>
      <point x="17" y="688" type="line"/>
      <point x="166" y="688" type="line"/>
      <point x="166" y="371" type="line"/>
      <point x="247" y="409" type="line"/>
      <point x="247" y="350" type="line"/>
      <point x="166" y="312" type="line"/>
      <point x="166" y="57" type="line"/>
      <point x="244" y="57" type="line"/>
      <point x="244" y="0" type="line"/>
    </contour>
  </outline>
</glyph>
<glyph name="Nacute" format="1">
  <advance width="733"/>
  <unicode hex="0143"/>
  <outline>
    <contour>
      <point x="315" y="703" type="line"/>
      <point x="304" y="740" type="line"/>
      <point x="495" y="813" type="line"/>
      <point x="512" y="745" type="line"/>
    </contour>
    <contour>
      <point x="620" y="586" type="line"/>
      <point x="620" y="0" type="line"/>
      <point x="573" y="0" type="line"/>
      <point x="196" y="512" type="line"/>
      <point x="192" y="512" type="line"/>
      <point x="192" y="64" type="line"/>
      <point x="295" y="64" type="line"/>
      <point x="295" y="0" type="line"/>
      <point x="47" y="0" type="line"/>
      <point x="47" y="64" type="line"/>
      <point x="122" y="64" type="line"/>
      <point x="122" y="586" type="line"/>
      <point x="36" y="586" type="line"/>
      <point x="36" y="650" type="line"/>
      <point x="176" y="650" type="line"/>
      <point x="546" y="149" type="line"/>
      <point x="550" y="149" type="line"/>
      <point x="550" y="586" type="line"/>
      <point x="452" y="586" type="line"/>
      <point x="452" y="650" type="line"/>
      <point x="701" y="650" type="line"/>
      <point x="701" y="586" type="line"/>
    </contour>
    <contour>
      <point x="-12" y="-213" type="line"/>
      <point x="745" y="-213" type="line"/>
      <point x="745" y="917" type="line"/>
      <point x="-12" y="917" type="line"/>
    </contour>
  </outline>
</glyph>
<glyph name="Ncaron" format="1">
  <advance width="733"/>
  <unicode hex="0147"/>
  <outline>
    <contour>
      <point x="374" y="701" type="line"/>
      <point x="352" y="701" type="line"/>
      <point x="226" y="790" type="line"/>
      <point x="246" y="824" type="line"/>
      <point x="366" y="763" type="line"/>
      <point x="481" y="827" type="line"/>
      <point x="500" y="792" type="line"/>
    </contour>
    <contour>
      <point x="620" y="586" type="line"/>
      <point x="620" y="0" type="line"/>
      <point x="573" y="0" type="line"/>
      <point x="196" y="512" type="line"/>
      <point x="192" y="512" type="line"/>
      <point x="192" y="64" type="line"/>
      <point x="295" y="64" type="line"/>
      <point x="295" y="0" type="line"/>
      <point x="47" y="0" type="line"/>
      <point x="47" y="64" type="line"/>
      <point x="122" y="64" type="line"/>
      <point x="122" y="586" type="line"/>
      <point x="36" y="586" type="line"/>
      <point x="36" y="650" type="line"/>
      <point x="176" y="650" type="line"/>
      <point x="546" y="149" type="line"/>
      <point x="550" y="149" type="line"/>
      <point x="550" y="586" type="line"/>
      <point x="452" y="586" type="line"/>
      <point x="452" y="650" type="line"/>
      <point x="701" y="650" type="line"/>
      <point x="701" y="586" type="line"/>
    </contour>
    <contour>
      <point x="-12" y="-213" type="line"/>
      <point x="745" y="-213" type="line"/>
      <point x="745" y="917" type="line"/>
      <point x="-12" y="917" type="line"/>
    </contour>
  </outline>
</glyph>
<glyph name="eng" format="1">
  <advance width="570"/>
  <unicode hex="014B"/>
  <outline>
    <contour>
      <point x="414" y="-3" type="curve" smooth="yes"/>
      <point x="414" y="264" type="line" smooth="yes"/>
      <point x="414" y="360"/>
      <point x="372" y="395"/>
      <point x="310" y="395" type="curve" smooth="yes"/>
      <point x="231" y="395"/>
      <point x="179" y="333"/>
      <point x="176" y="267" type="curve"/>
      <point x="176" y="57" type="line"/>
      <point x="254" y="57" type="line"/>
      <point x="254" y="0" type="line"/>
      <point x="28" y="0" type="line"/>
      <point x="28" y="57" type="line"/>
      <point x="106" y="57" type="line"/>
      <point x="106" y="388" type="line"/>
      <point x="26" y="388" type="line"/>
      <point x="26" y="445" type="line"/>
      <point x="176" y="445" type="line"/>
      <point x="176" y="366" type="line"/>
      <point x="206" y="421"/>
      <point x="261" y="454"/>
      <point x="332" y="454" type="curve" smooth="yes"/>
      <point x="419" y="454"/>
      <point x="485" y="403"/>
      <point x="485" y="285" type="curve" smooth="yes"/>
      <point x="485" y="-6" type="line" smooth="yes"/>
      <point x="484" y="-147"/>
      <point x="427" y="-205"/>
      <point x="340" y="-213" type="curve"/>
      <point x="582" y="-213" type="line"/>
      <point x="582" y="917" type="line"/>
      <point x="-12" y="917" type="line"/>
      <point x="-12" y="-213" type="line"/>
      <point x="293" y="-213" type="line"/>
      <point x="292" y="-162" type="line"/>
      <point x="347" y="-162"/>
      <point x="414" y="-147"/>
    </contour>
  </outline>
</glyph>
<glyph name="obreve" format="1">
  <advance width="509"/>
  <unicode hex="014F"/>
  <outline>
    <contour>
      <point x="255" y="455" type="curve" smooth="yes"/>
      <point x="400" y="455"/>
      <point x="474" y="349"/>
      <point x="474" y="223" type="curve" smooth="yes"/>
      <point x="474" y="88"/>
      <point x="388" y="-10"/>
      <point x="251" y="-10" type="curve" smooth="yes"/>
      <point x="116" y="-10"/>
      <point x="35" y="85"/>
      <point x="35" y="219" type="curve" smooth="yes"/>
      <point x="35" y="349"/>
      <point x="111" y="455"/>
    </contour>
    <contour>
      <point x="253" y="50" type="curve" smooth="yes"/>
      <point x="348" y="50"/>
      <point x="400" y="124"/>
      <point x="400" y="224" type="curve" smooth="yes"/>
      <point x="400" y="326"/>
      <point x="346" y="395"/>
      <point x="253" y="395" type="curve" smooth="yes"/>
      <point x="160" y="395"/>
      <point x="108" y="322"/>
      <point x="108" y="223" type="curve" smooth="yes"/>
      <point x="108" y="126"/>
      <point x="158" y="50"/>
    </contour>
    <contour>
      <point x="-12" y="-213" type="line"/>
      <point x="521" y="-213" type="line"/>
      <point x="521" y="917" type="line"/>
      <point x="-12" y="917" type="line"/>
    </contour>
    <contour>
      <point x="382" y="655" type="line"/>
      <point x="382" y="572"/>
      <point x="339" y="532"/>
      <point x="259" y="532" type="curve" smooth="yes"/>
      <point x="178" y="532"/>
      <point x="137" y="574"/>
      <point x="137" y="655" type="curve"/>
      <point x="196" y="655" type="line"/>
      <point x="196" y="601"/>
      <point x="219" y="580"/>
      <point x="260" y="580" type="curve" smooth="yes"/>
      <point x="304" y="580"/>
      <point x="323" y="604"/>
      <point x="323" y="655" type="curve"/>
    </contour>
  </outline>
</glyph>
<glyph name="ohungarumlaut" format="1">
  <advance width="509"/>
  <unicode hex="0151"/>
  <outline>
    <contour>
      <point x="293" y="520" type="line"/>
      <point x="272" y="551" type="line"/>
      <point x="426" y="683" type="line"/>
      <point x="466" y="624" type="line"/>
    </contour>
    <contour>
      <point x="184" y="519" type="line"/>
      <point x="153" y="541" type="line"/>
      <point x="253" y="718" type="line"/>
      <point x="310" y="678" type="line"/>
    </contour>
    <contour>
      <point x="255" y="455" type="curve" smooth="yes"/>
      <point x="400" y="455"/>
      <point x="474" y="349"/>
      <point x="474" y="223" type="curve" smooth="yes"/>
      <point x="474" y="88"/>
      <point x="388" y="-10"/>
      <point x="251" y="-10" type="curve" smooth="yes"/>
      <point x="116" y="-10"/>
      <point x="35" y="85"/>
      <point x="35" y="219" type="curve" smooth="yes"/>
      <point x="35" y="349"/>
      <point x="111" y="455"/>
    </contour>
    <contour>
      <point x="253" y="50" type="curve" smooth="yes"/>
      <point x="348" y="50"/>
      <point x="400" y="124"/>
      <point x="400" y="224" type="curve" smooth="yes"/>
      <point x="400" y="326"/>
      <point x="346" y="395"/>
      <point x="253" y="395" type="curve" smooth="yes"/>
      <point x="160" y="395"/>
      <point x="108" y="322"/>
      <point x="108" y="223" type="curve" smooth="yes"/>
      <point x="108" y="126"/>
      <point x="158" y="50"/>
    </contour>
    <contour>
      <point x="-12" y="-213" type="line"/>
      <point x="521" y="-213" type="line"/>
      <point x="521" y="917" type="line"/>
      <point x="-12" y="917" type="line"/>
    </contour>
  </outline>
</glyph>
<glyph name="OE" format="1">
  <advance width="994"/>
  <unicode hex="0152"/>
  <outline>
    <contour>
      <point x="935" y="0" type="line"/>
      <point x="955" y="184" type="line"/>
      <point x="890" y="191" type="line"/>
      <point x="870" y="64" type="line"/>
      <point x="604" y="64" type="line"/>
      <point x="604" y="298" type="line"/>
      <point x="910" y="298" type="line"/>
      <point x="910" y="362" type="line"/>
      <point x="604" y="362" type="line"/>
      <point x="604" y="586" type="line"/>
      <point x="861" y="586" type="line"/>
      <point x="881" y="459" type="line"/>
      <point x="946" y="466" type="line"/>
      <point x="926" y="650" type="line"/>
      <point x="531" y="650" type="line"/>
      <point x="531" y="611" type="line"/>
      <point x="485" y="641"/>
      <point x="429" y="660"/>
      <point x="363" y="660" type="curve" smooth="yes"/>
      <point x="173" y="660"/>
      <point x="37" y="512"/>
      <point x="37" y="325" type="curve" smooth="yes"/>
      <point x="37" y="141"/>
      <point x="168" y="-10"/>
      <point x="363" y="-10" type="curve" smooth="yes"/>
      <point x="430" y="-10"/>
      <point x="485" y="8"/>
      <point x="531" y="38" type="curve"/>
      <point x="531" y="0" type="line"/>
    </contour>
    <contour>
      <point x="531" y="116" type="line"/>
      <point x="493" y="78"/>
      <point x="434" y="56"/>
      <point x="367" y="56" type="curve" smooth="yes"/>
      <point x="206" y="56"/>
      <point x="115" y="183"/>
      <point x="115" y="327" type="curve" smooth="yes"/>
      <point x="115" y="475"/>
      <point x="211" y="594"/>
      <point x="366" y="594" type="curve" smooth="yes"/>
      <point x="430" y="594"/>
      <point x="487" y="573"/>
      <point x="531" y="534" type="curve"/>
    </contour>
    <contour>
      <point x="-12" y="917" type="line"/>
      <point x="1006" y="917" type="line"/>
      <point x="1006" y="-213" type="line"/>
      <point x="-12" y="-213" type="line"/>
    </contour>
  </outline>
</glyph>
<glyph name="racute" format="1">
  <advance width="416"/>
  <unicode hex="0155"/>
  <outline>
    <contour>
      <point x="232" y="520" type="line"/>
      <point x="210" y="551" type="line"/>
      <point x="364" y="683" type="line"/>
      <point x="404" y="624" type="line"/>
    </contour>
    <contour>
      <point x="282" y="453" type="curve" smooth="yes"/>
      <point x="313" y="453"/>
      <point x="336" y="448"/>
      <point x="358" y="430" type="curve"/>
      <point x="375" y="318" type="line"/>
      <point x="318" y="311" type="line"/>
      <point x="301" y="387" type="line"/>
      <point x="290" y="391"/>
      <point x="279" y="393"/>
      <point x="267" y="393" type="curve" smooth="yes"/>
      <point x="215" y="393"/>
      <point x="176" y="345"/>
      <point x="176" y="276" type="curve" smooth="yes"/>
      <point x="176" y="57" type="line"/>
      <point x="279" y="57" type="line"/>
      <point x="279" y="0" type="line"/>
      <point x="28" y="0" type="line"/>
      <point x="28" y="57" type="line"/>
      <point x="106" y="57" type="line"/>
      <point x="106" y="388" type="line"/>
      <point x="26" y="388" type="line"/>
      <point x="26" y="445" type="line"/>
      <point x="172" y="445" type="line"/>
      <point x="172" y="365" type="line"/>
      <point x="189" y="415"/>
      <point x="231" y="453"/>
    </contour>
    <contour>
      <point x="-12" y="-213" type="line"/>
      <point x="428" y="-213" type="line"/>
      <point x="428" y="917" type="line"/>
      <point x="-12" y="917" type="line"/>
    </contour>
  </outline>
</glyph>
<glyph name="Scedilla" format="1">
  <advance width="529"/>
  <unicode hex="015E"/>
  <outline>
    <contour>
      <point x="-12" y="-213" type="line"/>
      <point x="541" y="-213" type="line"/>
      <point x="541" y="917" type="line"/>
      <point x="-12" y="917" type="line"/>
    </contour>
    <contour>
      <point x="387" y="-125" type="curve" smooth="yes"/>
      <point x="387" y="-185"/>
      <point x="337" y="-209"/>
      <point x="279" y="-209" type="curve" smooth="yes"/>
      <point x="241" y="-209"/>
      <point x="207" y="-199"/>
      <point x="183" y="-179" type="curve"/>
      <point x="201" y="-138" type="line"/>
      <point x="217" y="-151"/>
      <point x="243" y="-161"/>
      <point x="275" y="-161" type="curve" smooth="yes"/>
      <point x="305" y="-161"/>
      <point x="326" y="-150"/>
      <point x="326" y="-120" type="curve" smooth="yes"/>
      <point x="326" y="-87"/>
      <point x="300" y="-80"/>
      <point x="268" y="-80" type="curve" smooth="yes"/>
      <point x="238" y="-80" type="line"/>
      <point x="238" y="-10" type="line"/>
      <point x="158" y="-7"/>
      <point x="88" y="13"/>
      <point x="47" y="43" type="curve"/>
      <point x="61" y="171" type="line"/>
      <point x="121" y="165" type="line"/>
      <point x="117" y="83" type="line"/>
      <point x="161" y="61"/>
      <point x="204" y="54"/>
      <point x="252" y="54" type="curve" smooth="yes"/>
      <point x="338" y="54"/>
      <point x="409" y="87"/>
      <point x="409" y="175" type="curve" smooth="yes"/>
      <point x="409" y="274"/>
      <point x="327" y="290"/>
      <point x="247" y="308" type="curve" smooth="yes"/>
      <point x="155" y="327"/>
      <point x="51" y="352"/>
      <point x="51" y="480" type="curve" smooth="yes"/>
      <point x="51" y="602"/>
      <point x="146" y="660"/>
      <point x="258" y="660" type="curve" smooth="yes"/>
      <point x="330" y="660"/>
      <point x="412" y="638"/>
      <point x="453" y="606" type="curve"/>
      <point x="459" y="477" type="line"/>
      <point x="399" y="471" type="line"/>
      <point x="389" y="568" type="line"/>
      <point x="348" y="590"/>
      <point x="303" y="595"/>
      <point x="265" y="595" type="curve" smooth="yes"/>
      <point x="184" y="595"/>
      <point x="129" y="558"/>
      <point x="129" y="488" type="curve" smooth="yes"/>
      <point x="129" y="407"/>
      <point x="201" y="389"/>
      <point x="274" y="372" type="curve" smooth="yes"/>
      <point x="361" y="352"/>
      <point x="488" y="331"/>
      <point x="488" y="182" type="curve" smooth="yes"/>
      <point x="488" y="67"/>
      <point x="405" y="2"/>
      <point x="290" y="-8" type="curve"/>
      <point x="290" y="-47" type="line"/>
      <point x="298" y="-47" type="line" smooth="yes"/>
      <point x="360" y="-47"/>
      <point x="387" y="-81"/>
    </contour>
  </outline>
</glyph>
<glyph name="scedilla" format="1">
  <advance width="433"/>
  <unicode hex="015F"/>
  <outline>
    <contour>
      <point x="-12" y="-213" type="line"/>
      <point x="445" y="-213" type="line"/>
      <point x="445" y="917" type="line"/>
      <point x="-12" y="917" type="line"/>
    </contour>
    <contour>
      <point x="336" y="-128" type="curve" smooth="yes"/>
      <point x="336" y="-188"/>
      <point x="286" y="-212"/>
      <point x="229" y="-212" type="curve" smooth="yes"/>
      <point x="191" y="-212"/>
      <point x="156" y="-203"/>
      <point x="132" y="-182" type="curve"/>
      <point x="150" y="-141" type="line"/>
      <point x="166" y="-154"/>
      <point x="192" y="-164"/>
      <point x="224" y="-164" type="curve" smooth="yes"/>
      <point x="254" y="-164"/>
      <point x="275" y="-153"/>
      <point x="275" y="-124" type="curve" smooth="yes"/>
      <point x="275" y="-90"/>
      <point x="249" y="-84"/>
      <point x="217" y="-84" type="curve" smooth="yes"/>
      <point x="187" y="-84" type="line"/>
      <point x="187" y="-9" type="line"/>
      <point x="130" y="-6"/>
      <point x="73" y="12"/>
      <point x="39" y="34" type="curve"/>
      <point x="53" y="135" type="line"/>
      <point x="109" y="129" type="line"/>
      <point x="106" y="70" type="line"/>
      <point x="135" y="56"/>
      <point x="168" y="48"/>
      <point x="205" y="48" type="curve" smooth="yes"/>
      <point x="267" y="48"/>
      <point x="325" y="72"/>
      <point x="325" y="123" type="curve" smooth="yes"/>
      <point x="325" y="245"/>
      <point x="46" y="152"/>
      <point x="46" y="325" type="curve" smooth="yes"/>
      <point x="46" y="419"/>
      <point x="130" y="454"/>
      <point x="211" y="454" type="curve" smooth="yes"/>
      <point x="272" y="454"/>
      <point x="329" y="435"/>
      <point x="366" y="413" type="curve"/>
      <point x="377" y="309" type="line"/>
      <point x="319" y="302" type="line"/>
      <point x="308" y="374" type="line"/>
      <point x="281" y="388"/>
      <point x="253" y="396"/>
      <point x="217" y="396" type="curve" smooth="yes"/>
      <point x="161" y="396"/>
      <point x="121" y="376"/>
      <point x="121" y="330" type="curve" smooth="yes"/>
      <point x="121" y="214"/>
      <point x="397" y="306"/>
      <point x="397" y="129" type="curve" smooth="yes"/>
      <point x="397" y="51"/>
      <point x="330" y="0"/>
      <point x="239" y="-8" type="curve"/>
      <point x="239" y="-50" type="line"/>
      <point x="247" y="-50" type="line" smooth="yes"/>
      <point x="309" y="-50"/>
      <point x="336" y="-84"/>
    </contour>
  </outline>
</glyph>
<glyph name="scaron" format="1">
  <advance width="433"/>
  <unicode hex="0161"/>
  <outline>
    <contour>
      <point x="228" y="519" type="line"/>
      <point x="206" y="519" type="line"/>
      <point x="85" y="636" type="line"/>
      <point x="111" y="670" type="line"/>
      <point x="221" y="586" type="line"/>
      <point x="323" y="671" type="line"/>
      <point x="349" y="638" type="line"/>
    </contour>
    <contour>
      <point x="397" y="129" type="curve" smooth="yes"/>
      <point x="397" y="42"/>
      <point x="315" y="-10"/>
      <point x="208" y="-10" type="curve" smooth="yes"/>
      <point x="145" y="-10"/>
      <point x="77" y="9"/>
      <point x="39" y="34" type="curve"/>
      <point x="53" y="135" type="line"/>
      <point x="109" y="129" type="line"/>
      <point x="106" y="70" type="line"/>
      <point x="135" y="56"/>
      <point x="168" y="48"/>
      <point x="205" y="48" type="curve" smooth="yes"/>
      <point x="267" y="48"/>
      <point x="325" y="72"/>
      <point x="325" y="123" type="curve" smooth="yes"/>
      <point x="325" y="245"/>
      <point x="46" y="152"/>
      <point x="46" y="325" type="curve" smooth="yes"/>
      <point x="46" y="419"/>
      <point x="130" y="454"/>
      <point x="211" y="454" type="curve" smooth="yes"/>
      <point x="272" y="454"/>
      <point x="329" y="435"/>
      <point x="366" y="413" type="curve"/>
      <point x="377" y="309" type="line"/>
      <point x="319" y="302" type="line"/>
      <point x="308" y="374" type="line"/>
      <point x="281" y="388"/>
      <point x="253" y="396"/>
      <point x="217" y="396" type="curve" smooth="yes"/>
      <point x="161" y="396"/>
      <point x="121" y="376"/>
      <point x="121" y="330" type="curve" smooth="yes"/>
      <point x="121" y="214"/>
      <point x="397" y="306"/>
    </contour>
    <contour>
      <point x="-12" y="-213" type="line"/>
      <point x="445" y="-213" type="line"/>
      <point x="445" y="917" type="line"/>
      <point x="-12" y="917" type="line"/>
    </contour>
  </outline>
</glyph>
<glyph name="Tcaron" format="1">
  <advance width="568"/>
  <unicode hex="0164"/>
  <outline>
    <contour>
      <point x="294" y="701" type="line"/>
      <point x="272" y="701" type="line"/>
      <point x="146" y="790" type="line"/>
      <point x="166" y="824" type="line"/>
      <point x="286" y="763" type="line"/>
      <point x="401" y="827" type="line"/>
      <point x="420" y="792" type="line"/>
    </contour>
    <contour>
      <point x="485" y="447" type="line"/>
      <point x="465" y="586" type="line"/>
      <point x="320" y="586" type="line"/>
      <point x="320" y="64" type="line"/>
      <point x="435" y="64" type="line"/>
      <point x="435" y="0" type="line"/>
      <point x="135" y="0" type="line"/>
      <point x="135" y="64" type="line"/>
      <point x="247" y="64" type="line"/>
      <point x="247" y="586" type="line"/>
      <point x="103" y="586" type="line"/>
      <point x="83" y="447" type="line"/>
      <point x="19" y="452" type="line"/>
      <point x="38" y="650" type="line"/>
      <point x="530" y="650" type="line"/>
      <point x="550" y="452" type="line"/>
    </contour>
    <contour>
      <point x="-12" y="-213" type="line"/>
      <point x="580" y="-213" type="line"/>
      <point x="580" y="917" type="line"/>
      <point x="-12" y="917" type="line"/>
    </contour>
  </outline>
</glyph>
<glyph name="utilde" format="1">
  <advance width="558"/>
  <unicode hex="0169"/>
  <outline>
    <contour>
      <point x="394" y="0" type="line"/>
      <point x="394" y="84" type="line"/>
      <point x="366" y="28"/>
      <point x="310" y="-10"/>
      <point x="239" y="-10" type="curve" smooth="yes"/>
      <point x="152" y="-10"/>
      <point x="85" y="41"/>
      <point x="85" y="160" type="curve" smooth="yes"/>
      <point x="85" y="388" type="line"/>
      <point x="7" y="388" type="line"/>
      <point x="7" y="445" type="line"/>
      <point x="155" y="445" type="line"/>
      <point x="155" y="180" type="line" smooth="yes"/>
      <point x="155" y="84"/>
      <point x="199" y="50"/>
      <point x="262" y="50" type="curve" smooth="yes"/>
      <point x="338" y="50"/>
      <point x="392" y="120"/>
      <point x="394" y="184" type="curve"/>
      <point x="394" y="388" type="line"/>
      <point x="301" y="388" type="line"/>
      <point x="301" y="445" type="line"/>
      <point x="464" y="445" type="line"/>
      <point x="464" y="57" type="line"/>
      <point x="544" y="57" type="line"/>
      <point x="544" y="0" type="line"/>
    </contour>
    <contour>
      <point x="-12" y="-213" type="line"/>
      <point x="570" y="-213" type="line"/>
      <point x="570" y="917" type="line"/>
      <point x="-12" y="917" type="line"/>
    </contour>
    <contour>
      <point x="413" y="646" type="line"/>
      <point x="404" y="592"/>
      <point x="382" y="553"/>
      <point x="336" y="553" type="curve" smooth="yes"/>
      <point x="284" y="553"/>
      <point x="250" y="592"/>
      <point x="213" y="592" type="curve" smooth="yes"/>
      <point x="194" y="592"/>
      <point x="172" y="581"/>
      <point x="162" y="549" type="curve"/>
      <point x="129" y="561" type="line"/>
      <point x="134" y="596"/>
      <point x="159" y="649"/>
      <point x="210" y="649" type="curve" smooth="yes"/>
      <point x="255" y="649"/>
      <point x="282" y="612"/>
      <point x="330" y="612" type="curve" smooth="yes"/>
      <point x="348" y="612"/>
      <point x="366" y="619"/>
      <point x="377" y="655" type="curve"/>
    </contour>
  </outline>
</glyph>
<glyph name="ubreve" format="1">
  <advance width="558"/>
  <unicode hex="016D"/>
  <outline>
    <contour>
      <point x="394" y="0" type="line"/>
      <point x="394" y="84" type="line"/>
      <point x="366" y="28"/>
      <point x="310" y="-10"/>
      <point x="239" y="-10" type="curve" smooth="yes"/>
      <point x="152" y="-10"/>
      <point x="85" y="41"/>
      <point x="85" y="160" type="curve" smooth="yes"/>
      <point x="85" y="388" type="line"/>
      <point x="7" y="388" type="line"/>
      <point x="7" y="445" type="line"/>
      <point x="155" y="445" type="line"/>
      <point x="155" y="180" type="line" smooth="yes"/>
      <point x="155" y="84"/>
      <point x="199" y="50"/>
      <point x="262" y="50" type="curve" smooth="yes"/>
      <point x="338" y="50"/>
      <point x="392" y="120"/>
      <point x="394" y="184" type="curve"/>
      <point x="394" y="388" type="line"/>
      <point x="301" y="388" type="line"/>
      <point x="301" y="445" type="line"/>
      <point x="464" y="445" type="line"/>
      <point x="464" y="57" type="line"/>
      <point x="544" y="57" type="line"/>
      <point x="544" y="0" type="line"/>
    </contour>
    <contour>
      <point x="-12" y="-213" type="line"/>
      <point x="570" y="-213" type="line"/>
      <point x="570" y="917" type="line"/>
      <point x="-12" y="917" type="line"/>
    </contour>
    <contour>
      <point x="385" y="655" type="line"/>
      <point x="385" y="572"/>
      <point x="342" y="532"/>
      <point x="262" y="532" type="curve" smooth="yes"/>
      <point x="181" y="532"/>
      <point x="140" y="574"/>
      <point x="140" y="655" type="curve"/>
      <point x="199" y="655" type="line"/>
      <point x="199" y="601"/>
      <point x="222" y="580"/>
      <point x="263" y="580" type="curve" smooth="yes"/>
      <point x="307" y="580"/>
      <point x="326" y="604"/>
      <point x="326" y="655" type="curve"/>
    </contour>
  </outline>
</glyph>
<glyph name="Uring" format="1">
  <advance width="714"/>
  <unicode hex="016E"/>
  <outline>
    <contour>
      <point x="615" y="586" type="line"/>
      <point x="615" y="267" type="line" smooth="yes"/>
      <point x="615" y="129"/>
      <point x="555" y="-10"/>
      <point x="355" y="-10" type="curve" smooth="yes"/>
      <point x="162" y="-10"/>
      <point x="101" y="116"/>
      <point x="101" y="256" type="curve" smooth="yes"/>
      <point x="101" y="586" type="line"/>
      <point x="34" y="586" type="line"/>
      <point x="34" y="650" type="line"/>
      <point x="265" y="650" type="line"/>
      <point x="265" y="586" type="line"/>
      <point x="175" y="586" type="line"/>
      <point x="175" y="258" type="line" smooth="yes"/>
      <point x="175" y="130"/>
      <point x="234" y="56"/>
      <point x="359" y="56" type="curve" smooth="yes"/>
      <point x="480" y="56"/>
      <point x="546" y="128"/>
      <point x="546" y="267" type="curve" smooth="yes"/>
      <point x="546" y="586" type="line"/>
      <point x="453" y="586" type="line"/>
      <point x="453" y="650" type="line"/>
      <point x="678" y="650" type="line"/>
      <point x="678" y="586" type="line"/>
    </contour>
    <contour>
      <point x="-12" y="-213" type="line"/>
      <point x="726" y="-213" type="line"/>
      <point x="726" y="917" type="line"/>
      <point x="-12" y="917" type="line"/>
    </contour>
    <contour>
      <point x="460" y="784" type="curve" smooth="yes"/>
      <point x="460" y="729"/>
      <point x="427" y="690"/>
      <point x="361" y="690" type="curve" smooth="yes"/>
      <point x="296" y="690"/>
      <point x="263" y="725"/>
      <point x="263" y="782" type="curve" smooth="yes"/>
      <point x="263" y="837"/>
      <point x="299" y="874"/>
      <point x="362" y="874" type="curve" smooth="yes"/>
      <point x="430" y="874"/>
      <point x="460" y="836"/>
    </contour>
    <contour>
      <point x="411" y="784" type="curve" smooth="yes"/>
      <point x="411" y="811"/>
      <point x="398" y="834"/>
      <point x="361" y="834" type="curve" smooth="yes"/>
      <point x="327" y="834"/>
      <point x="312" y="812"/>
      <point x="312" y="782" type="curve" smooth="yes"/>
      <point x="312" y="751"/>
      <point x="327" y="730"/>
      <point x="361" y="730" type="curve" smooth="yes"/>
      <point x="396" y="730"/>
      <point x="411" y="753"/>
    </contour>
  </outline>
</glyph>
<glyph name="uring" format="1">
  <advance width="558"/>
  <unicode hex="016F"/>
  <outline>
    <contour>
      <point x="361" y="607" type="curve" smooth="yes"/>
      <point x="361" y="553"/>
      <point x="328" y="514"/>
      <point x="262" y="514" type="curve" smooth="yes"/>
      <point x="197" y="514"/>
      <point x="164" y="549"/>
      <point x="164" y="606" type="curve" smooth="yes"/>
      <point x="164" y="660"/>
      <point x="200" y="698"/>
      <point x="263" y="698" type="curve" smooth="yes"/>
      <point x="331" y="698"/>
      <point x="361" y="660"/>
    </contour>
    <contour>
      <point x="312" y="608" type="curve" smooth="yes"/>
      <point x="312" y="635"/>
      <point x="299" y="658"/>
      <point x="262" y="658" type="curve" smooth="yes"/>
      <point x="228" y="658"/>
      <point x="213" y="635"/>
      <point x="213" y="606" type="curve" smooth="yes"/>
      <point x="213" y="574"/>
      <point x="228" y="554"/>
      <point x="262" y="554" type="curve" smooth="yes"/>
      <point x="297" y="554"/>
      <point x="312" y="578"/>
    </contour>
    <contour>
      <point x="394" y="0" type="line"/>
      <point x="394" y="84" type="line"/>
      <point x="366" y="28"/>
      <point x="310" y="-10"/>
      <point x="239" y="-10" type="curve" smooth="yes"/>
      <point x="152" y="-10"/>
      <point x="85" y="41"/>
      <point x="85" y="160" type="curve" smooth="yes"/>
      <point x="85" y="388" type="line"/>
      <point x="7" y="388" type="line"/>
      <point x="7" y="445" type="line"/>
      <point x="155" y="445" type="line"/>
      <point x="155" y="180" type="line" smooth="yes"/>
      <point x="155" y="84"/>
      <point x="199" y="50"/>
      <point x="262" y="50" type="curve" smooth="yes"/>
      <point x="338" y="50"/>
      <point x="392" y="120"/>
      <point x="394" y="184" type="curve"/>
      <point x="394" y="388" type="line"/>
      <point x="301" y="388" type="line"/>
      <point x="301" y="445" type="line"/>
      <point x="464" y="445" type="line"/>
      <point x="464" y="57" type="line"/>
      <point x="544" y="57" type="line"/>
      <point x="544" y="0" type="line"/>
    </contour>
    <contour>
      <point x="-12" y="-213" type="line"/>
      <point x="570" y="-213" type="line"/>
      <point x="570" y="917" type="line"/>
      <point x="-12" y="917" type="line"/>
    </contour>
  </outline>
</glyph>
<glyph name="Uhungarumlaut" format="1">
  <advance width="714"/>
  <unicode hex="0170"/>
  <outline>
    <contour>
      <point x="615" y="586" type="line"/>
      <point x="615" y="267" type="line" smooth="yes"/>
      <point x="615" y="129"/>
      <point x="555" y="-10"/>
      <point x="355" y="-10" type="curve" smooth="yes"/>
      <point x="162" y="-10"/>
      <point x="101" y="116"/>
      <point x="101" y="256" type="curve" smooth="yes"/>
      <point x="101" y="586" type="line"/>
      <point x="34" y="586" type="line"/>
      <point x="34" y="650" type="line"/>
      <point x="265" y="650" type="line"/>
      <point x="265" y="586" type="line"/>
      <point x="175" y="586" type="line"/>
      <point x="175" y="258" type="line" smooth="yes"/>
      <point x="175" y="130"/>
      <point x="234" y="56"/>
      <point x="359" y="56" type="curve" smooth="yes"/>
      <point x="480" y="56"/>
      <point x="546" y="128"/>
      <point x="546" y="267" type="curve" smooth="yes"/>
      <point x="546" y="586" type="line"/>
      <point x="453" y="586" type="line"/>
      <point x="453" y="650" type="line"/>
      <point x="678" y="650" type="line"/>
      <point x="678" y="586" type="line"/>
    </contour>
    <contour>
      <point x="-12" y="-213" type="line"/>
      <point x="726" y="-213" type="line"/>
      <point x="726" y="917" type="line"/>
      <point x="-12" y="917" type="line"/>
    </contour>
    <contour>
      <point x="378" y="703" type="line"/>
      <point x="368" y="740" type="line"/>
      <point x="558" y="813" type="line"/>
      <point x="576" y="745" type="line"/>
    </contour>
    <contour>
      <point x="268" y="703" type="line"/>
      <point x="242" y="729" type="line"/>
      <point x="376" y="882" type="line"/>
      <point x="425" y="831" type="line"/>
    </contour>
  </outline>
</glyph>
<glyph name="uhungarumlaut" format="1">
  <advance width="558"/>
  <unicode hex="0171"/>
  <outline>
    <contour>
      <point x="394" y="0" type="line"/>
      <point x="394" y="84" type="line"/>
      <point x="366" y="28"/>
      <point x="310" y="-10"/>
      <point x="239" y="-10" type="curve" smooth="yes"/>
      <point x="152" y="-10"/>
      <point x="85" y="41"/>
      <point x="85" y="160" type="curve" smooth="yes"/>
      <point x="85" y="388" type="line"/>
      <point x="7" y="388" type="line"/>
      <point x="7" y="445" type="line"/>
      <point x="155" y="445" type="line"/>
      <point x="155" y="180" type="line" smooth="yes"/>
      <point x="155" y="84"/>
      <point x="199" y="50"/>
      <point x="262" y="50" type="curve" smooth="yes"/>
      <point x="338" y="50"/>
      <point x="392" y="120"/>
      <point x="394" y="184" type="curve"/>
      <point x="394" y="388" type="line"/>
      <point x="301" y="388" type="line"/>
      <point x="301" y="445" type="line"/>
      <point x="464" y="445" type="line"/>
      <point x="464" y="57" type="line"/>
      <point x="544" y="57" type="line"/>
      <point x="544" y="0" type="line"/>
    </contour>
    <contour>
      <point x="-12" y="-213" type="line"/>
      <point x="570" y="-213" type="line"/>
      <point x="570" y="917" type="line"/>
      <point x="-12" y="917" type="line"/>
    </contour>
    <contour>
      <point x="295" y="520" type="line"/>
      <point x="274" y="551" type="line"/>
      <point x="428" y="683" type="line"/>
      <point x="468" y="624" type="line"/>
    </contour>
    <contour>
      <point x="186" y="519" type="line"/>
      <point x="155" y="541" type="line"/>
      <point x="255" y="718" type="line"/>
      <point x="312" y="678" type="line"/>
    </contour>
  </outline>
</glyph>
<glyph name="Wcircumflex" format="1">
  <advance width="887"/>
  <unicode hex="0174"/>
  <outline>
    <contour>
      <point x="224" y="586" type="line"/>
      <point x="133" y="586" type="line"/>
      <point x="249" y="119" type="line"/>
      <point x="254" y="119" type="line"/>
      <point x="404" y="586" type="line"/>
      <point x="338" y="586" type="line"/>
      <point x="338" y="650" type="line"/>
      <point x="563" y="650" type="line"/>
      <point x="563" y="586" type="line"/>
      <point x="498" y="586" type="line"/>
      <point x="649" y="116" type="line"/>
      <point x="653" y="116" type="line"/>
      <point x="760" y="586" type="line"/>
      <point x="665" y="586" type="line"/>
      <point x="665" y="650" type="line"/>
      <point x="899" y="650" type="line"/>
      <point x="899" y="917" type="line"/>
      <point x="-12" y="917" type="line"/>
      <point x="-12" y="650" type="line"/>
      <point x="224" y="650" type="line"/>
    </contour>
    <contour>
      <point x="899" y="-213" type="line"/>
      <point x="899" y="586" type="line"/>
      <point x="833" y="586" type="line"/>
      <point x="679" y="0" type="line"/>
      <point x="620" y="0" type="line"/>
      <point x="450" y="520" type="line"/>
      <point x="445" y="520" type="line"/>
      <point x="280" y="0" type="line"/>
      <point x="220" y="0" type="line"/>
      <point x="55" y="586" type="line"/>
      <point x="-12" y="586" type="line"/>
      <point x="-12" y="-213" type="line"/>
    </contour>
    <contour>
      <point x="573" y="702" type="line"/>
      <point x="453" y="764" type="line"/>
      <point x="337" y="701" type="line"/>
      <point x="318" y="734" type="line"/>
      <point x="445" y="827" type="line"/>
      <point x="466" y="827" type="line"/>
      <point x="592" y="737" type="line"/>
    </contour>
  </outline>
</glyph>
<glyph name="Ycircumflex" format="1">
  <advance width="570"/>
  <unicode hex="0176"/>
  <outline>
    <contour>
      <point x="232" y="586" type="line"/>
      <point x="143" y="586" type="line"/>
      <point x="288" y="316" type="line"/>
      <point x="293" y="316" type="line"/>
      <point x="431" y="586" type="line"/>
      <point x="342" y="586" type="line"/>
      <point x="342" y="650" type="line"/>
      <point x="582" y="650" type="line"/>
      <point x="582" y="917" type="line"/>
      <point x="-12" y="917" type="line"/>
      <point x="-12" y="650" type="line"/>
      <point x="232" y="650" type="line"/>
    </contour>
    <contour>
      <point x="582" y="-213" type="line"/>
      <point x="582" y="586" type="line"/>
      <point x="505" y="586" type="line"/>
      <point x="323" y="248" type="line"/>
      <point x="323" y="64" type="line"/>
      <point x="438" y="64" type="line"/>
      <point x="438" y="0" type="line"/>
      <point x="139" y="0" type="line"/>
      <point x="139" y="64" type="line"/>
      <point x="250" y="64" type="line"/>
      <point x="250" y="249" type="line"/>
      <point x="60" y="586" type="line"/>
      <point x="-12" y="586" type="line"/>
      <point x="-12" y="-213" type="line"/>
    </contour>
    <contour>
      <point x="412" y="702" type="line"/>
      <point x="292" y="764" type="line"/>
      <point x="176" y="701" type="line"/>
      <point x="157" y="734" type="line"/>
      <point x="284" y="827" type="line"/>
      <point x="305" y="827" type="line"/>
      <point x="431" y="737" type="line"/>
    </contour>
  </outline>
</glyph>
<glyph name="Ydieresis" format="1">
  <advance width="570"/>
  <unicode hex="0178"/>
  <outline>
    <contour>
      <point x="232" y="586" type="line"/>
      <point x="143" y="586" type="line"/>
      <point x="288" y="316" type="line"/>
      <point x="293" y="316" type="line"/>
      <point x="431" y="586" type="line"/>
      <point x="342" y="586" type="line"/>
      <point x="342" y="650" type="line"/>
      <point x="582" y="650" type="line"/>
      <point x="582" y="917" type="line"/>
      <point x="-12" y="917" type="line"/>
      <point x="-12" y="650" type="line"/>
      <point x="232" y="650" type="line"/>
    </contour>
    <contour>
      <point x="582" y="-213" type="line"/>
      <point x="582" y="586" type="line"/>
      <point x="505" y="586" type="line"/>
      <point x="323" y="248" type="line"/>
      <point x="323" y="64" type="line"/>
      <point x="438" y="64" type="line"/>
      <point x="438" y="0" type="line"/>
      <point x="139" y="0" type="line"/>
      <point x="139" y="64" type="line"/>
      <point x="250" y="64" type="line"/>
      <point x="250" y="249" type="line"/>
      <point x="60" y="586" type="line"/>
      <point x="-12" y="586" type="line"/>
      <point x="-12" y="-213" type="line"/>
    </contour>
    <contour>
      <point x="165" y="803" type="line"/>
      <point x="246" y="803" type="line"/>
      <point x="246" y="718" type="line"/>
      <point x="165" y="718" type="line"/>
    </contour>
    <contour>
      <point x="337" y="803" type="line"/>
      <point x="417" y="803" type="line"/>
      <point x="417" y="718" type="line"/>
      <point x="337" y="718" type="line"/>
    </contour>
  </outline>
</glyph>
<glyph name="uni01C7" format="1">
  <advance width="996"/>
  <unicode hex="01C7"/>
  <outline>
    <contour>
      <point x="40" y="0" type="line"/>
      <point x="40" y="64" type="line"/>
      <point x="122" y="64" type="line"/>
      <point x="122" y="586" type="line"/>
      <point x="40" y="586" type="line"/>
      <point x="40" y="650" type="line"/>
      <point x="304" y="650" type="line"/>
      <point x="304" y="586" type="line"/>
      <point x="195" y="586" type="line"/>
      <point x="195" y="64" type="line"/>
      <point x="444" y="64" type="line"/>
      <point x="464" y="213" type="line"/>
      <point x="529" y="208" type="line"/>
      <point x="509" y="0" type="line"/>
    </contour>
    <contour>
      <point x="888" y="586" type="line"/>
      <point x="888" y="166" type="line" smooth="yes"/>
      <point x="888" y="48"/>
      <point x="826" y="-10"/>
      <point x="721" y="-10" type="curve" smooth="yes"/>
      <point x="636" y="-10"/>
      <point x="587" y="30"/>
      <point x="559" y="89" type="curve"/>
      <point x="612" y="129" type="line"/>
      <point x="639" y="75"/>
      <point x="671" y="59"/>
      <point x="715" y="59" type="curve" smooth="yes"/>
      <point x="786" y="59"/>
      <point x="815" y="101"/>
      <point x="815" y="166" type="curve" smooth="yes"/>
      <point x="815" y="586" type="line"/>
      <point x="686" y="586" type="line"/>
      <point x="686" y="650" type="line"/>
      <point x="960" y="650" type="line"/>
      <point x="960" y="586" type="line"/>
    </contour>
    <contour>
      <point x="-12" y="-213" type="line"/>
      <point x="1008" y="-213" type="line"/>
      <point x="1008" y="917" type="line"/>
      <point x="-12" y="917" type="line"/>
    </contour>
  </outline>
</glyph>
